<?xml version="1.0" encoding="utf-8"?>
<!-- Generator: Adobe Illustrator 19.0.0, SVG Export Plug-In . SVG Version: 6.00 Build 0)  -->
<svg version="1.1" id="Layer_1" xmlns="http://www.w3.org/2000/svg" xmlns:xlink="http://www.w3.org/1999/xlink" x="0px" y="0px"
	 viewBox="-399 101 100 100" style="enable-background:new -399 101 100 100;" xml:space="preserve">
<style type="text/css">
	.st0{fill:none;stroke:#A8AAAD;stroke-width:2;stroke-miterlimit:10;stroke-dasharray:6.3;}
	.st1{fill:#818285;}
	.st2{fill:#2FA1DB;}
</style>
<circle id="XMLID_6760_" class="st0" cx="-349.7" cy="153.3" r="35.2"/>
<g id="XMLID_2837_">
	<g id="XMLID_3140_">
		<g id="XMLID_3141_">
			<path id="XMLID_3935_" class="st1" d="M-367.6,163.1l0-17.1c0-0.8,0.9-1.4,1.6-1.1l15.5,6.6c0.4,0.2,0.7,0.6,0.7,1.1l0,17.1
				c0,0.8-0.9,1.4-1.6,1.1l-15.5-6.6C-367.3,164-367.6,163.6-367.6,163.1L-367.6,163.1z M-349,133.4"/>
			<path id="XMLID_3912_" class="st1" d="M-346.8,170.6c-0.4,0-0.8-0.3-0.8-0.8l0-17.1c0-0.3,0.2-0.6,0.5-0.7l15.5-6.7
				c0.1,0,0.2-0.1,0.3-0.1c0.4,0,0.8,0.3,0.8,0.8l0,17.1c0,0.3-0.2,0.6-0.5,0.7l-15.5,6.7C-346.6,170.6-346.7,170.6-346.8,170.6
				L-346.8,170.6z M-346.7,152.9l0,16.6l15.1-6.5l0-16.6L-346.7,152.9z"/>
			<g id="XMLID_3145_">
				<path id="XMLID_3146_" class="st1" d="M-349,149.9c-0.1,0-0.2,0-0.3-0.1l-16.3-7.2c-0.3-0.1-0.5-0.4-0.5-0.7
					c0-0.3,0.2-0.6,0.5-0.7l16.3-7.3c0.1,0,0.2-0.1,0.3-0.1c0.1,0,0.2,0,0.3,0.1l16.3,7.2c0.3,0.1,0.5,0.4,0.5,0.7
					c0,0.3-0.2,0.6-0.5,0.7l-16.3,7.3C-348.8,149.8-348.9,149.9-349,149.9L-349,149.9z M-364.8,141.9l15.8,7l15.8-7l-15.8-7
					L-364.8,141.9z"/>
			</g>
			<path id="XMLID_3142_" class="st1" d="M-351.2,170c-0.1,0-0.2,0-0.3-0.1l-14.8-6.3c-0.3-0.1-0.5-0.4-0.5-0.7l0-16.3
				c0-0.2,0.1-0.4,0.2-0.5c0.1-0.1,0.3-0.2,0.5-0.2c0.1,0,0.2,0,0.3,0.1l14.8,6.3c0.3,0.1,0.5,0.4,0.5,0.7l0,16.3
				c0,0.2-0.1,0.4-0.2,0.5C-350.8,170-351,170-351.2,170z"/>
		</g>
	</g>
	<g id="XMLID_2842_" transform="translate(1 1)">
		<path id="XMLID_2868_" class="st1" d="M-349.5,137.6l-4.3,2.2l-0.1-0.1c-0.5-0.4-0.7-1.4,0.9-2.1c0.8-0.3,1.5-0.4,2-0.4
			c0.6,0,1.1,0.2,1.4,0.3L-349.5,137.6z M-353.7,139.5l3.7-1.8c-0.5-0.2-1.7-0.4-2.8,0.1C-354.1,138.3-354.1,139-353.7,139.5z"/>
		<path id="XMLID_2865_" class="st1" d="M-351.6,142.8c-0.5,0.3-1.1,0.3-1.5,0l-1.8-1.4c-0.4-0.3-0.2-0.7,0.2-0.9
			c0.5-0.2,1.1-0.2,1.4,0l1.8,1.3C-351.1,142.1-351.2,142.5-351.6,142.8z M-354.5,140.7c-0.3,0.2-0.4,0.4-0.1,0.5l1.8,1.3
			c0.2,0.2,0.6,0.2,0.9,0c0.3-0.2,0.3-0.4,0.1-0.6l-1.8-1.3C-353.8,140.6-354.2,140.6-354.5,140.7z"/>
		<path id="XMLID_2862_" class="st1" d="M-345.8,139c-0.3,0.2-0.8,0.2-1.1,0l-1.6-1c-0.3-0.2-0.3-0.5,0-0.6c0.3-0.2,0.8-0.1,1.1,0
			l1.6,0.9C-345.6,138.5-345.5,138.8-345.8,139z M-348.3,137.5c-0.2,0.1-0.2,0.3,0,0.4l1.6,1c0.2,0.1,0.5,0.1,0.7,0
			c0.2-0.1,0.1-0.3-0.1-0.4l-1.6-0.9C-347.9,137.4-348.1,137.4-348.3,137.5z"/>
		<path id="XMLID_2847_" class="st1" d="M-345,141.5c-0.2,0.2-0.7,0.2-1,0l-1.2-0.8l-1,0.7l1.2,0.8c0.3,0.2,0.3,0.5,0.1,0.8
			c-0.3,0.2-0.8,0.2-1.1,0l-1.3-0.9l-0.6,0.4l-3.7-2.6l4.3-2.2l3.4,2.1l-0.4,0.3l1.2,0.7C-344.9,141-344.8,141.3-345,141.5z
			 M-348.7,141.4l1.5-1l1.4,0.9c0.1,0.1,0.4,0.1,0.5,0c0.1-0.1,0.1-0.2-0.1-0.3l-1.4-0.9l0.4-0.3l-3-1.8l-3.7,1.9l3.2,2.2l0.6-0.4
			l1.5,1c0.2,0.1,0.4,0.1,0.5,0c0.1-0.1,0.1-0.3,0-0.4L-348.7,141.4z"/>
		<path id="XMLID_2846_" class="st1" d="M-352.6,138.4c-0.1-0.1-0.4-0.1-0.5,0c-0.2,0.1-0.2,0.2-0.1,0.3c0.1,0.1,0.4,0.1,0.5,0
			C-352.5,138.6-352.5,138.5-352.6,138.4"/>
		<path id="XMLID_2845_" class="st1" d="M-351.3,137.8c-0.1-0.1-0.3-0.1-0.5,0c-0.1,0.1-0.2,0.2,0,0.3c0.1,0.1,0.3,0.1,0.5,0
			C-351.2,138-351.1,137.8-351.3,137.8"/>
		<path id="XMLID_2844_" class="st1" d="M-353.8,138.4c-0.1,0-0.1,0-0.2,0l-0.7-0.2c-0.1,0-0.1-0.1-0.1-0.1c0.1,0,0.2-0.1,0.3,0
			l0.7,0.2C-353.7,138.3-353.7,138.3-353.8,138.4C-353.7,138.4-353.7,138.4-353.8,138.4z"/>
		<path id="XMLID_2843_" class="st1" d="M-351.6,137.4C-351.6,137.4-351.6,137.4-351.6,137.4c-0.1,0-0.2,0-0.3,0l-0.2-0.4
			c0,0,0-0.1,0.1-0.1c0.1,0,0.2,0,0.2,0.1L-351.6,137.4C-351.5,137.4-351.5,137.4-351.6,137.4z"/>
	</g>
	<path id="XMLID_2838_" class="st1" d="M-338.1,154.4c0.4-0.6,0.6-1.3,0.5-1.8c-0.7,0.3-1.4,1-1.8,1.6c-0.4,0.5-0.6,1.3-0.4,1.7
		C-339.2,155.7-338.5,155-338.1,154.4L-338.1,154.4z M-336.2,157.3c-0.2-1.1,0.9-2.2,1-2.3c-0.8-0.5-1.8-0.1-2.2,0.1
		c-0.9,0.3-1.6,1.2-2.1,1.4c-0.4,0.2-1.2,0.1-1.9,0.5c-1,0.5-1.8,1.3-2.1,2.2c-0.7,1.8,0.5,3.4,1.6,3.9c0.6,0.3,1.2,0.6,1.9,0.2
		c0.7-0.3,0.9-0.8,1.7-1.2c0.8-0.4,1.1-0.2,1.8-0.5c0.7-0.4,1.1-1.1,1.5-1.8c0.4-0.8,0.6-1.5,0.6-1.6
		C-334.6,158.4-336,158.7-336.2,157.3L-336.2,157.3z M-336.2,157.3"/>
</g>
<path id="XMLID_6429_" class="st2" d="M-349.8,114.8c-20.7,0-37.5,16.8-37.5,37.5s16.8,37.5,37.5,37.5c20.7,0,37.5-16.8,37.5-37.5
	S-329.1,114.8-349.8,114.8z M-349.8,185.7c-18.4,0-33.4-14.9-33.4-33.4s14.9-33.4,33.4-33.4c18.4,0,33.4,14.9,33.4,33.4
	S-331.4,185.7-349.8,185.7z"/>
</svg>
