<?xml version="1.0" encoding="utf-8"?>
<!-- Generator: Adobe Illustrator 19.0.0, SVG Export Plug-In . SVG Version: 6.00 Build 0)  -->
<svg version="1.1" id="Layer_1" xmlns="http://www.w3.org/2000/svg" xmlns:xlink="http://www.w3.org/1999/xlink" x="0px" y="0px"
	 viewBox="-399 101 100 100" style="enable-background:new -399 101 100 100;" xml:space="preserve">
<style type="text/css">
	.st0{fill:none;stroke:#A8AAAD;stroke-width:2;stroke-miterlimit:10;stroke-dasharray:6.3;}
	.st1{fill:#818285;}
</style>
<circle id="XMLID_6760_" class="st0" cx="-348.4" cy="152" r="35.2"/>
<g id="XMLID_2837_">
	<g id="XMLID_3140_">
		<g id="XMLID_3141_">
			<path id="XMLID_3935_" class="st1" d="M-366.2,161.8l0-17.1c0-0.8,0.9-1.4,1.6-1.1l15.5,6.6c0.4,0.2,0.7,0.6,0.7,1.1l0,17.1
				c0,0.8-0.9,1.4-1.6,1.1l-15.5-6.6C-365.9,162.7-366.2,162.3-366.2,161.8L-366.2,161.8z M-347.7,132.1"/>
			<path id="XMLID_3912_" class="st1" d="M-345.5,169.3c-0.4,0-0.8-0.3-0.8-0.8l0-17.1c0-0.3,0.2-0.6,0.5-0.7l15.5-6.7
				c0.1,0,0.2-0.1,0.3-0.1c0.4,0,0.8,0.3,0.8,0.8l0,17.1c0,0.3-0.2,0.6-0.5,0.7l-15.5,6.7C-345.3,169.2-345.4,169.3-345.5,169.3
				L-345.5,169.3z M-345.3,151.5l0,16.6l15.1-6.5l0-16.6L-345.3,151.5z"/>
			<g id="XMLID_3145_">
				<path id="XMLID_3146_" class="st1" d="M-347.7,148.5c-0.1,0-0.2,0-0.3-0.1l-16.3-7.2c-0.3-0.1-0.5-0.4-0.5-0.7s0.2-0.6,0.5-0.7
					l16.3-7.3c0.1,0,0.2-0.1,0.3-0.1c0.1,0,0.2,0,0.3,0.1l16.3,7.2c0.3,0.1,0.5,0.4,0.5,0.7c0,0.3-0.2,0.6-0.5,0.7l-16.3,7.3
					C-347.4,148.5-347.6,148.5-347.7,148.5L-347.7,148.5z M-363.5,140.5l15.8,7l15.8-7l-15.8-7L-363.5,140.5z"/>
			</g>
			<path id="XMLID_3142_" class="st1" d="M-349.9,168.7c-0.1,0-0.2,0-0.3-0.1l-14.8-6.3c-0.3-0.1-0.5-0.4-0.5-0.7l0-16.3
				c0-0.2,0.1-0.4,0.2-0.5c0.1-0.1,0.3-0.2,0.5-0.2c0.1,0,0.2,0,0.3,0.1l14.8,6.3c0.3,0.1,0.5,0.4,0.5,0.7l0,16.3
				c0,0.2-0.1,0.4-0.2,0.5C-349.5,168.6-349.7,168.7-349.9,168.7z"/>
		</g>
	</g>
	<g id="XMLID_2842_" transform="translate(1 1)">
		<path id="XMLID_2868_" class="st1" d="M-348.2,136.3l-4.3,2.2l-0.1-0.1c-0.5-0.4-0.7-1.4,0.9-2.1c0.8-0.3,1.5-0.4,2-0.4
			c0.6,0,1.1,0.2,1.4,0.3L-348.2,136.3z M-352.4,138.1l3.7-1.8c-0.5-0.2-1.7-0.4-2.8,0.1C-352.7,137-352.7,137.7-352.4,138.1z"/>
		<path id="XMLID_2865_" class="st1" d="M-350.3,141.4c-0.5,0.3-1.1,0.3-1.5,0l-1.8-1.4c-0.4-0.3-0.2-0.7,0.2-0.9
			c0.5-0.2,1.1-0.2,1.4,0l1.8,1.3C-349.8,140.7-349.8,141.1-350.3,141.4z M-353.1,139.4c-0.3,0.2-0.4,0.4-0.1,0.5l1.8,1.3
			c0.2,0.2,0.6,0.2,0.9,0c0.3-0.2,0.3-0.4,0.1-0.6l-1.8-1.3C-352.5,139.2-352.8,139.2-353.1,139.4z"/>
		<path id="XMLID_2862_" class="st1" d="M-344.5,137.7c-0.3,0.2-0.8,0.2-1.1,0l-1.6-1c-0.3-0.2-0.3-0.5,0-0.6c0.3-0.2,0.8-0.1,1.1,0
			l1.6,0.9C-344.2,137.2-344.2,137.5-344.5,137.7z M-347,136.2c-0.2,0.1-0.2,0.3,0,0.4l1.6,1c0.2,0.1,0.5,0.1,0.7,0
			c0.2-0.1,0.1-0.3-0.1-0.4l-1.6-0.9C-346.5,136.1-346.8,136.1-347,136.2z"/>
		<path id="XMLID_2847_" class="st1" d="M-343.7,140.1c-0.2,0.2-0.7,0.2-1,0l-1.2-0.8l-1,0.7l1.2,0.8c0.3,0.2,0.3,0.5,0.1,0.8
			c-0.3,0.2-0.8,0.2-1.1,0l-1.3-0.9l-0.6,0.4l-3.7-2.6l4.3-2.2l3.4,2.1l-0.4,0.3l1.2,0.7C-343.5,139.7-343.5,140-343.7,140.1z
			 M-347.4,140.1l1.5-1l1.4,0.9c0.1,0.1,0.4,0.1,0.5,0c0.1-0.1,0.1-0.2-0.1-0.3l-1.4-0.9l0.4-0.3l-3-1.8l-3.7,1.9l3.2,2.2l0.6-0.4
			l1.5,1c0.2,0.1,0.4,0.1,0.5,0c0.1-0.1,0.1-0.3,0-0.4L-347.4,140.1z"/>
		<path id="XMLID_2846_" class="st1" d="M-351.3,137.1c-0.1-0.1-0.4-0.1-0.5,0c-0.2,0.1-0.2,0.2-0.1,0.3c0.1,0.1,0.4,0.1,0.5,0
			C-351.2,137.3-351.1,137.1-351.3,137.1"/>
		<path id="XMLID_2845_" class="st1" d="M-349.9,136.4c-0.1-0.1-0.3-0.1-0.5,0c-0.1,0.1-0.2,0.2,0,0.3c0.1,0.1,0.3,0.1,0.5,0
			C-349.8,136.6-349.8,136.5-349.9,136.4"/>
		<path id="XMLID_2844_" class="st1" d="M-352.4,137.1c-0.1,0-0.1,0-0.2,0l-0.7-0.2c-0.1,0-0.1-0.1-0.1-0.1c0.1,0,0.2-0.1,0.3,0
			l0.7,0.2C-352.4,137-352.3,137-352.4,137.1C-352.4,137.1-352.4,137.1-352.4,137.1z"/>
		<path id="XMLID_2843_" class="st1" d="M-350.2,136.1C-350.3,136.1-350.3,136.1-350.2,136.1c-0.1,0-0.2,0-0.3,0l-0.2-0.4
			c0,0,0-0.1,0.1-0.1c0.1,0,0.2,0,0.2,0.1L-350.2,136.1C-350.2,136-350.2,136.1-350.2,136.1z"/>
	</g>
	<path id="XMLID_2838_" class="st1" d="M-336.7,153.1c0.4-0.6,0.6-1.3,0.5-1.8c-0.7,0.3-1.4,1-1.8,1.6c-0.4,0.5-0.6,1.3-0.4,1.7
		C-337.8,154.3-337.1,153.7-336.7,153.1L-336.7,153.1z M-334.9,156c-0.2-1.1,0.9-2.2,1-2.3c-0.8-0.5-1.8-0.1-2.2,0.1
		c-0.9,0.3-1.6,1.2-2.1,1.4c-0.4,0.2-1.2,0.1-1.9,0.5c-1,0.5-1.8,1.3-2.1,2.2c-0.7,1.8,0.5,3.4,1.6,3.9c0.6,0.3,1.2,0.6,1.9,0.2
		c0.7-0.3,0.9-0.8,1.7-1.2c0.8-0.4,1.1-0.2,1.8-0.5c0.7-0.4,1.1-1.1,1.5-1.8c0.4-0.8,0.6-1.5,0.6-1.6
		C-333.2,157.1-334.7,157.3-334.9,156L-334.9,156z M-334.9,156"/>
</g>
</svg>
