<?xml version="1.0" encoding="utf-8"?>
<!-- Generator: Adobe Illustrator 19.0.0, SVG Export Plug-In . SVG Version: 6.00 Build 0)  -->
<svg version="1.1" baseProfile="basic" id="Layer_1"
	 xmlns="http://www.w3.org/2000/svg" xmlns:xlink="http://www.w3.org/1999/xlink" x="0px" y="0px" viewBox="0 0 100 100"
	 xml:space="preserve">
<style type="text/css">
	.st0{fill:#2EA1DA;}
	.st1{fill:none;stroke:#A7A9AC;stroke-width:2;stroke-miterlimit:10;stroke-dasharray:6.3;}
	.st2{fill:#FFFFFF;}
</style>
<circle id="XMLID_6762_" class="st0" cx="50.7" cy="50.9" r="31.3"/>
<circle id="XMLID_6760_" class="st1" cx="49.9" cy="50.8" r="35.2"/>
<g id="XMLID_2837_">
	<g id="XMLID_3140_">
		<g id="XMLID_3141_">
			<path id="XMLID_3935_" class="st2" d="M33.1,61.6l0-17.1c0-0.8,0.9-1.4,1.6-1.1l15.5,6.6c0.4,0.2,0.7,0.6,0.7,1.1l0,17.1
				c0,0.8-0.9,1.4-1.6,1.1l-15.5-6.6C33.4,62.5,33.1,62.1,33.1,61.6L33.1,61.6z M51.7,31.9"/>
			<path id="XMLID_3912_" class="st2" d="M53.8,69.1c-0.4,0-0.8-0.3-0.8-0.8l0-17.1c0-0.3,0.2-0.6,0.5-0.7L69,43.8
				c0.1,0,0.2-0.1,0.3-0.1c0.4,0,0.8,0.3,0.8,0.8l0,17.1c0,0.3-0.2,0.6-0.5,0.7L54.1,69C54,69.1,53.9,69.1,53.8,69.1L53.8,69.1z
				 M54,51.4l0,16.6l15.1-6.5l0-16.6L54,51.4z"/>
			<g id="XMLID_3145_">
				<path id="XMLID_3146_" class="st2" d="M51.7,48.4c-0.1,0-0.2,0-0.3-0.1L35,41.1c-0.3-0.1-0.5-0.4-0.5-0.7s0.2-0.6,0.5-0.7
					l16.3-7.3c0.1,0,0.2-0.1,0.3-0.1c0.1,0,0.2,0,0.3,0.1l16.3,7.2c0.3,0.1,0.5,0.4,0.5,0.7s-0.2,0.6-0.5,0.7L52,48.3
					C51.9,48.3,51.8,48.4,51.7,48.4L51.7,48.4z M35.9,40.4l15.8,7l15.8-7l-15.8-7L35.9,40.4z"/>
			</g>
			<path id="XMLID_3142_" class="st2" d="M49.5,68.5c-0.1,0-0.2,0-0.3-0.1l-14.8-6.3c-0.3-0.1-0.5-0.4-0.5-0.7l0-16.3
				c0-0.2,0.1-0.4,0.2-0.5c0.1-0.1,0.3-0.2,0.5-0.2c0.1,0,0.2,0,0.3,0.1l14.8,6.3c0.3,0.1,0.5,0.4,0.5,0.7l0,16.3
				c0,0.2-0.1,0.4-0.2,0.5C49.9,68.5,49.7,68.5,49.5,68.5z"/>
		</g>
	</g>
	<g id="XMLID_2842_" transform="translate(1 1)">
		<path id="XMLID_2868_" class="st2" d="M51.1,36.1l-4.3,2.2l-0.1-0.1c-0.5-0.4-0.7-1.4,0.9-2.1c0.8-0.3,1.5-0.4,2-0.4
			c0.6,0,1.1,0.2,1.4,0.3L51.1,36.1z M47,38l3.7-1.8c-0.5-0.2-1.7-0.4-2.8,0.1C46.6,36.8,46.6,37.5,47,38z"/>
		<path id="XMLID_2865_" class="st2" d="M49.1,41.3c-0.5,0.3-1.1,0.3-1.5,0l-1.8-1.4c-0.4-0.3-0.2-0.7,0.2-0.9
			c0.5-0.2,1.1-0.2,1.4,0l1.8,1.3C49.6,40.6,49.5,41,49.1,41.3z M46.2,39.2c-0.3,0.2-0.4,0.4-0.1,0.5l1.8,1.3c0.2,0.2,0.6,0.2,0.9,0
			c0.3-0.2,0.3-0.4,0.1-0.6l-1.8-1.3C46.9,39.1,46.5,39.1,46.2,39.2z"/>
		<path id="XMLID_2862_" class="st2" d="M54.9,37.5c-0.3,0.2-0.8,0.2-1.1,0l-1.6-1c-0.3-0.2-0.3-0.5,0-0.6c0.3-0.2,0.8-0.1,1.1,0
			l1.6,0.9C55.1,37,55.1,37.3,54.9,37.5z M52.3,36c-0.2,0.1-0.2,0.3,0,0.4l1.6,1c0.2,0.1,0.5,0.1,0.7,0c0.2-0.1,0.1-0.3-0.1-0.4
			L53,36C52.8,35.9,52.5,35.9,52.3,36z"/>
		<path id="XMLID_2847_" class="st2" d="M55.6,40c-0.2,0.2-0.7,0.2-1,0l-1.2-0.8l-1,0.7l1.2,0.8c0.3,0.2,0.3,0.5,0.1,0.8
			c-0.3,0.2-0.8,0.2-1.1,0l-1.3-0.9L50.8,41l-3.7-2.6l4.3-2.2l3.4,2.1l-0.4,0.3l1.2,0.7C55.8,39.5,55.9,39.8,55.6,40z M51.9,39.9
			l1.5-1l1.4,0.9c0.1,0.1,0.4,0.1,0.5,0c0.1-0.1,0.1-0.2-0.1-0.3l-1.4-0.9l0.4-0.3l-3-1.8l-3.7,1.9l3.2,2.2l0.6-0.4l1.5,1
			c0.2,0.1,0.4,0.1,0.5,0c0.1-0.1,0.1-0.3,0-0.4L51.9,39.9z"/>
		<path id="XMLID_2846_" class="st2" d="M48.1,36.9c-0.1-0.1-0.4-0.1-0.5,0c-0.2,0.1-0.2,0.2-0.1,0.3c0.1,0.1,0.4,0.1,0.5,0
			C48.2,37.1,48.2,37,48.1,36.9"/>
		<path id="XMLID_2845_" class="st2" d="M49.4,36.3c-0.1-0.1-0.3-0.1-0.5,0c-0.1,0.1-0.2,0.2,0,0.3c0.1,0.1,0.3,0.1,0.5,0
			C49.5,36.5,49.5,36.3,49.4,36.3"/>
		<path id="XMLID_2844_" class="st2" d="M46.9,36.9c-0.1,0-0.1,0-0.2,0L46,36.8c-0.1,0-0.1-0.1-0.1-0.1c0.1,0,0.2-0.1,0.3,0l0.7,0.2
			C47,36.8,47,36.8,46.9,36.9C46.9,36.9,46.9,36.9,46.9,36.9z"/>
		<path id="XMLID_2843_" class="st2" d="M49.1,35.9C49.1,35.9,49,35.9,49.1,35.9c-0.1,0-0.2,0-0.3,0l-0.2-0.4c0,0,0-0.1,0.1-0.1
			c0.1,0,0.2,0,0.2,0.1L49.1,35.9C49.2,35.9,49.1,35.9,49.1,35.9z"/>
	</g>
	<path id="XMLID_2838_" class="st2" d="M62.6,52.9c0.4-0.6,0.6-1.3,0.5-1.8c-0.7,0.3-1.4,1-1.8,1.6c-0.4,0.5-0.6,1.3-0.4,1.7
		C61.5,54.2,62.2,53.5,62.6,52.9L62.6,52.9z M64.4,55.8c-0.2-1.1,0.9-2.2,1-2.3c-0.8-0.5-1.8-0.1-2.2,0.1c-0.9,0.3-1.6,1.2-2.1,1.4
		c-0.4,0.2-1.2,0.1-1.9,0.5c-1,0.5-1.8,1.3-2.1,2.2c-0.7,1.8,0.5,3.4,1.6,3.9c0.6,0.3,1.2,0.6,1.9,0.2c0.7-0.3,0.9-0.8,1.7-1.2
		c0.8-0.4,1.1-0.2,1.8-0.5c0.7-0.4,1.1-1.1,1.5-1.8c0.4-0.8,0.6-1.5,0.6-1.6C66.1,56.9,64.6,57.2,64.4,55.8L64.4,55.8z M64.4,55.8"
		/>
</g>
</svg>
