<?xml version="1.0" encoding="UTF-8" standalone="no"?>
<!-- Generator: Adobe Illustrator 19.0.0, SVG Export Plug-In . SVG Version: 6.00 Build 0)  -->

<svg
   xmlns:dc="http://purl.org/dc/elements/1.1/"
   xmlns:cc="http://creativecommons.org/ns#"
   xmlns:rdf="http://www.w3.org/1999/02/22-rdf-syntax-ns#"
   xmlns:svg="http://www.w3.org/2000/svg"
   xmlns="http://www.w3.org/2000/svg"
   xmlns:xlink="http://www.w3.org/1999/xlink"
   xmlns:sodipodi="http://sodipodi.sourceforge.net/DTD/sodipodi-0.dtd"
   xmlns:inkscape="http://www.inkscape.org/namespaces/inkscape"
   version="1.1"
   id="Layer_1"
   x="0px"
   y="0px"
   viewBox="0 0 591 591"
   style="enable-background:new 0 0 591 591;"
   xml:space="preserve"
   sodipodi:docname="bk.svg"
   inkscape:version="0.92.1 r15371"><metadata
     id="metadata273"><rdf:RDF><cc:Work
         rdf:about=""><dc:format>image/svg+xml</dc:format><dc:type
           rdf:resource="http://purl.org/dc/dcmitype/StillImage" /></cc:Work></rdf:RDF></metadata><defs
     id="defs271" /><sodipodi:namedview
     pagecolor="#ffffff"
     bordercolor="#666666"
     borderopacity="1"
     objecttolerance="10"
     gridtolerance="10"
     guidetolerance="10"
     inkscape:pageopacity="0"
     inkscape:pageshadow="2"
     inkscape:window-width="1119"
     inkscape:window-height="707"
     id="namedview269"
     showgrid="true"
     inkscape:zoom="0.39932318"
     inkscape:cx="295.5"
     inkscape:cy="20.677063"
     inkscape:window-x="0"
     inkscape:window-y="27"
     inkscape:window-maximized="0"
     inkscape:current-layer="Layer_1" /><style
     type="text/css"
     id="style2">
	.st0{opacity:0.2;}
	.st1{opacity:0.8;}
	.st2{clip-path:url(#XMLID_2_);}
	.st3{opacity:7.000000e-002;}
</style><g
     id="XMLID_1172_"
     class="st0"
     transform="matrix(1.1574373,0,0,1.1831014,2.5357248,-122.50362)"
     style="opacity:0.2"><g
       id="XMLID_1173_"
       class="st1"
       style="opacity:0.8"><defs
         id="defs5"><rect
           id="XMLID_1174_"
           x="-0.2"
           y="1.8"
           class="st1"
           width="591.20001"
           height="591.20001"
           style="opacity:0.8" /></defs><clipPath
         id="XMLID_2_"><use
           xlink:href="#XMLID_1174_"
           style="overflow:visible"
           id="use7"
           x="0"
           y="0"
           width="100%"
           height="100%" /></clipPath><g
         id="XMLID_1175_"
         class="st2"
         clip-path="url(#XMLID_2_)"><g
           id="XMLID_1346_"
           class="st3"><g
             id="XMLID_1429_"><polygon
               id="XMLID_1430_"
               points="108.1,467.3 75.3,501 2.4,501 -11.6,514.9 -74.9,514.9 -112.2,477.6 -110.4,475.9 -73.9,512.4 -12.6,512.4 1.4,498.5 74.3,498.5 107.1,464.9 146.9,464.9 146.9,467.3 " /></g><g
             id="XMLID_1427_"><polygon
               id="XMLID_1428_"
               points="51.8,461.2 96.4,416.5 250.7,416.5 286.8,452.6 337.9,452.6 337.9,455 285.8,455 249.7,419 97.4,419 52.8,463.6 3,463.6 -44,416.7 -109.7,416.7 -109.7,414.3 -43,414.3 4,461.2 " /></g><g
             id="XMLID_1425_"><polygon
               id="XMLID_1426_"
               points="443.7,400.1 443.7,402.6 366.9,402.6 348.5,384.2 245.8,384.2 182.9,447.1 86.8,447.1 43,490.8 -73.3,490.8 -92.8,471.3 -112.1,471.3 -112.1,468.8 -91.8,468.8 -72.2,488.4 42,488.4 85.8,444.6 181.9,444.6 244.8,381.7 349.5,381.7 367.9,400.1 " /></g><g
             id="XMLID_1423_"><polygon
               id="XMLID_1424_"
               points="167.9,278 291.7,401.7 337.1,401.7 337.1,404.2 290.7,404.2 166.9,280.5 111.2,280.5 67.3,236.6 25.6,236.6 25.6,234.1 68.3,234.1 112.2,278 " /></g><g
             id="XMLID_1421_"><polygon
               id="XMLID_1422_"
               points="196.9,396.4 196.9,401.3 58.2,401.3 33.2,376.3 -25,376.3 -56.8,408.1 -112.1,408.1 -112.1,403.2 -58.8,403.2 -27,371.4 35.2,371.4 60.2,396.4 " /></g><g
             id="XMLID_1419_"><polygon
               id="XMLID_1420_"
               points="82.7,328 51.9,358.8 -55,358.8 -74.9,378.6 -116.2,378.6 -116.2,376.2 -75.9,376.2 -56.1,356.3 51,356.3 81.7,325.5 180.5,325.5 180.5,328 " /></g><g
             id="XMLID_1417_"><polygon
               id="XMLID_1418_"
               points="209.3,373.7 254.1,328.8 401.2,328.8 426.2,303.8 461.7,303.8 461.7,308.7 428.3,308.7 403.3,333.7 256.2,333.7 211.3,378.6 146.7,378.6 53.2,285.1 13.5,285.1 -6.5,305.1 -115.4,305.1 -115.4,300.2 -8.6,300.2 11.5,280.1 55.2,280.1 148.7,373.7 " /></g><g
             id="XMLID_1415_"><polygon
               id="XMLID_1416_"
               points="389.6,366.1 389.6,371.1 301.7,371.1 227.5,296.8 70.1,296.8 35.4,331.5 -112.1,331.5 -112.1,326.5 33.4,326.5 68,291.9 229.5,291.9 303.7,366.1 " /></g><g
             id="XMLID_1413_"><polygon
               id="XMLID_1414_"
               points="408.1,277.1 371.6,313.7 266.6,313.7 266.6,311.2 370.6,311.2 407.1,274.7 461.7,274.7 461.7,277.1 " /></g><g
             id="XMLID_1411_"><polygon
               id="XMLID_1412_"
               points="260.6,227.1 298.3,264.9 336.3,264.9 336.3,267.3 297.2,267.3 259.5,229.7 163.6,229.7 110.4,176.4 -75.5,176.4 -109.1,209.9 -121.1,209.9 -121.1,207.5 -110.2,207.5 -76.5,173.9 111.3,173.9 164.6,227.1 " /></g><g
             id="XMLID_1409_"><polygon
               id="XMLID_1410_"
               points="215.5,124.7 327.7,237 479.2,237 501.8,214.4 503.6,216.2 480.2,239.5 326.8,239.5 214.5,127.2 128.4,127.2 112,110.8 -44.3,110.8 -56.7,123.1 -118.6,123.1 -118.6,120.6 -57.7,120.6 -45.4,108.3 113,108.3 129.4,124.7 " /></g><g
             id="XMLID_1407_"><polygon
               id="XMLID_1408_"
               points="239.2,214.9 191.7,262.4 21.2,262.4 -32.9,316.5 -116.2,316.5 -116.2,314.1 -33.9,314.1 20.2,259.9 190.7,259.9 238.3,212.4 368.3,212.4 368.3,214.9 " /></g><g
             id="XMLID_1405_"><path
               id="XMLID_1406_"
               d="m 142,466.1 c 0,-2.8 2.2,-5 4.9,-5 2.7,0 4.9,2.2 4.9,5 0,2.7 -2.2,4.9 -4.9,4.9 -2.7,0 -4.9,-2.2 -4.9,-4.9 z"
               inkscape:connector-curvature="0" /></g><g
             id="XMLID_1403_"><path
               id="XMLID_1404_"
               d="m 333,453.4 c 0,-2.7 2.2,-4.9 4.9,-4.9 2.7,0 4.9,2.2 4.9,4.9 0,2.7 -2.2,4.9 -4.9,4.9 -2.7,0 -4.9,-2.2 -4.9,-4.9 z"
               inkscape:connector-curvature="0" /></g><g
             id="XMLID_1401_"><path
               id="XMLID_1402_"
               d="m 331.3,401.7 c 0,-2.7 2.2,-4.9 5,-4.9 2.7,0 4.9,2.2 4.9,4.9 0,2.8 -2.2,4.9 -4.9,4.9 -2.7,0.1 -5,-2.1 -5,-4.9 z"
               inkscape:connector-curvature="0" /></g><g
             id="XMLID_1399_"><path
               id="XMLID_1400_"
               d="m 456,275.9 c 0,-2.7 2.2,-4.9 4.9,-4.9 2.7,0 4.9,2.2 4.9,4.9 0,2.7 -2.2,4.9 -4.9,4.9 -2.7,0 -4.9,-2.2 -4.9,-4.9 z"
               inkscape:connector-curvature="0" /></g><g
             id="XMLID_1397_"><path
               id="XMLID_1398_"
               d="m 261.7,312.4 c 0,-2.8 2.2,-4.9 4.9,-4.9 2.8,0 4.9,2.2 4.9,4.9 0,2.7 -2.2,5 -4.9,5 -2.7,0 -4.9,-2.3 -4.9,-5 z"
               inkscape:connector-curvature="0" /></g><g
             id="XMLID_1395_"><path
               id="XMLID_1396_"
               d="m 330.6,266.5 c 0,-2.7 2.1,-4.8 4.9,-4.8 2.7,0 4.9,2.1 4.9,4.8 0,2.8 -2.2,5 -4.9,5 -2.8,-0.1 -4.9,-2.3 -4.9,-5 z"
               inkscape:connector-curvature="0" /></g><g
             id="XMLID_1393_"><path
               id="XMLID_1394_"
               d="m 321.5,237 c 0,-2.7 2.2,-4.9 4.9,-4.9 2.8,0 4.9,2.2 4.9,4.9 0,2.7 -2.2,4.9 -4.9,4.9 -2.6,0 -4.9,-2.2 -4.9,-4.9 z"
               inkscape:connector-curvature="0" /></g><g
             id="XMLID_1391_"><path
               id="XMLID_1392_"
               d="m 108.2,280 c 0,-2.7 2.2,-4.9 4.9,-4.9 2.7,0 4.9,2.2 4.9,4.9 0,2.8 -2.2,4.9 -4.9,4.9 -2.7,0 -4.9,-2.1 -4.9,-4.9 z"
               inkscape:connector-curvature="0" /></g><g
             id="XMLID_1389_"><path
               id="XMLID_1390_"
               d="m 46.7,358.8 c 0,-2.7 2.2,-4.9 4.9,-4.9 2.8,0 4.9,2.2 4.9,4.9 0,2.7 -2.2,4.9 -4.9,4.9 -2.7,-0.1 -4.9,-2.2 -4.9,-4.9 z"
               inkscape:connector-curvature="0" /></g><g
             id="XMLID_1387_"><path
               id="XMLID_1388_"
               d="m 245.3,417.8 c 0,-2.8 2.2,-4.9 4.9,-4.9 2.8,0 4.9,2.2 4.9,4.9 0,2.7 -2.1,4.9 -4.9,4.9 -2.7,0 -4.9,-2.2 -4.9,-4.9 z"
               inkscape:connector-curvature="0" /></g><g
             id="XMLID_1385_"><path
               id="XMLID_1386_"
               d="m 175.3,327.6 c 0,-2.7 2.2,-4.9 4.8,-4.9 2.8,0 4.9,2.2 4.9,4.9 0,2.7 -2.2,4.9 -4.9,4.9 -2.7,0 -4.8,-2.2 -4.8,-4.9 z"
               inkscape:connector-curvature="0" /></g><g
             id="XMLID_1383_"><path
               id="XMLID_1384_"
               d="m 158.6,228.6 c 0,-2.8 2.2,-5 4.9,-5 2.7,0 4.9,2.2 4.9,5 0,2.7 -2.2,4.9 -4.9,4.9 -2.7,0 -4.9,-2.2 -4.9,-4.9 z"
               inkscape:connector-curvature="0" /></g><g
             id="XMLID_1381_"><path
               id="XMLID_1382_"
               d="m 105.9,176.4 c 0,-2.7 2.2,-4.9 4.9,-4.9 2.7,0 4.9,2.2 4.9,4.9 0,2.7 -2.2,4.9 -4.9,4.9 -2.7,0 -4.9,-2.2 -4.9,-4.9 z"
               inkscape:connector-curvature="0" /></g><g
             id="XMLID_1379_"><path
               id="XMLID_1380_"
               d="m 499,214.9 c 0,-2.8 2.2,-4.9 4.9,-4.9 2.7,0 4.9,2.2 4.9,4.9 0,2.7 -2.2,4.9 -4.9,4.9 -2.7,0 -4.9,-2.2 -4.9,-4.9 z"
               inkscape:connector-curvature="0" /></g><g
             id="XMLID_1377_"><path
               id="XMLID_1378_"
               d="m 362.5,214.1 c 0,-2.8 2.2,-4.9 4.9,-4.9 2.7,0 4.9,2.2 4.9,4.9 0,2.7 -2.2,4.9 -4.9,4.9 -2.7,0 -4.9,-2.3 -4.9,-4.9 z"
               inkscape:connector-curvature="0" /></g><g
             id="XMLID_1375_"><path
               id="XMLID_1376_"
               d="m 24,236.6 c 0,-2.8 2.2,-4.9 4.9,-4.9 2.8,0 4.9,2.1 4.9,4.9 0,2.6 -2.2,4.9 -4.9,4.9 -2.7,0 -4.9,-2.2 -4.9,-4.9 z"
               inkscape:connector-curvature="0" /></g><g
             id="XMLID_1373_"><path
               id="XMLID_1374_"
               d="m -80.7,377.6 c 0,-2.7 2.2,-4.9 4.9,-4.9 2.7,0 4.9,2.2 4.9,4.9 0,2.7 -2.2,4.9 -4.9,4.9 -2.7,0 -4.9,-2.2 -4.9,-4.9 z"
               inkscape:connector-curvature="0" /></g><g
             id="XMLID_1371_"><path
               id="XMLID_1372_"
               d="m 186.3,261.1 c 0,-2.8 2.2,-4.9 4.9,-4.9 2.7,0 4.9,2.2 4.9,4.9 0,2.7 -2.2,4.9 -4.9,4.9 -2.7,0 -4.9,-2.1 -4.9,-4.9 z"
               inkscape:connector-curvature="0" /></g><g
             id="XMLID_1369_"><path
               id="XMLID_1370_"
               d="m 177.4,445.9 c 0,-2.8 2.3,-4.9 4.9,-4.9 2.8,0 5,2.2 5,4.9 0,2.7 -2.2,4.9 -5,4.9 -2.6,0 -4.9,-2.2 -4.9,-4.9 z"
               inkscape:connector-curvature="0" /></g><g
             id="XMLID_1367_"><path
               id="XMLID_1368_"
               d="m 69.2,499.3 c 0,-2.7 2.2,-4.9 5,-4.9 2.7,0 4.9,2.2 4.9,4.9 0,2.7 -2.2,4.9 -4.9,4.9 -2.8,0 -5,-2.2 -5,-4.9 z"
               inkscape:connector-curvature="0" /></g><g
             id="XMLID_1365_"><path
               id="XMLID_1366_"
               d="m -17.1,513.7 c 0,-2.7 2.2,-4.9 4.9,-4.9 2.7,0 4.9,2.2 4.9,4.9 0,2.8 -2.2,4.9 -4.9,4.9 -2.7,0.1 -4.9,-2.1 -4.9,-4.9 z"
               inkscape:connector-curvature="0" /></g><g
             id="XMLID_1363_"><path
               id="XMLID_1364_"
               d="m -79.3,513.7 c 0,-2.7 2.2,-4.9 4.9,-4.9 2.7,0 4.9,2.2 4.9,4.9 0,2.8 -2.2,4.9 -4.9,4.9 -2.7,0.1 -4.9,-2.1 -4.9,-4.9 z"
               inkscape:connector-curvature="0" /></g><g
             id="XMLID_1361_"><path
               id="XMLID_1362_"
               d="m -78.1,490.4 c 0,-2.7 2.2,-4.9 4.9,-4.9 2.7,0 4.9,2.3 4.9,4.9 0,2.8 -2.2,4.9 -4.9,4.9 -2.7,0 -4.9,-2.2 -4.9,-4.9 z"
               inkscape:connector-curvature="0" /></g><g
             id="XMLID_1359_"><path
               id="XMLID_1360_"
               d="m -1,462.1 c 0,-2.7 2.3,-4.8 5,-4.8 2.7,0 4.9,2.2 4.9,4.8 0,2.8 -2.2,5 -4.9,5 -2.7,0 -5,-2.3 -5,-5 z"
               inkscape:connector-curvature="0" /></g><g
             id="XMLID_1357_"><path
               id="XMLID_1358_"
               d="m 92,417.8 c 0,-2.8 2.2,-4.9 4.9,-4.9 2.7,0 4.9,2.2 4.9,4.9 0,2.7 -2.2,4.9 -4.9,4.9 -2.7,0 -4.9,-2.2 -4.9,-4.9 z"
               inkscape:connector-curvature="0" /></g><g
             id="XMLID_1355_"><path
               id="XMLID_1356_"
               d="m 437.5,401.3 c 0,-2.7 2.2,-4.9 4.9,-4.9 2.8,0 4.9,2.2 4.9,4.9 0,2.7 -2.2,4.9 -4.9,4.9 -2.7,0.1 -4.9,-2.2 -4.9,-4.9 z"
               inkscape:connector-curvature="0" /></g><g
             id="XMLID_1353_"><path
               id="XMLID_1354_"
               d="m 382.2,368.6 c 0,-3.9 3.1,-7 7,-7 3.9,0 7,3.1 7,7 0,3.8 -3.1,7 -7,7 -3.9,-0.1 -7,-3.2 -7,-7 z"
               inkscape:connector-curvature="0" /></g><g
             id="XMLID_1351_"><path
               id="XMLID_1352_"
               d="m 189.5,398.7 c 0,-3.8 3.1,-7 7,-7 3.8,0 7,3.2 7,7 0,3.8 -3.2,6.9 -7,6.9 -3.9,0 -7,-3.1 -7,-6.9 z"
               inkscape:connector-curvature="0" /></g><g
             id="XMLID_1349_"><path
               id="XMLID_1350_"
               d="m 51.8,398.4 c 0,-3.8 3.1,-6.9 7,-6.9 3.8,0 6.9,3.1 6.9,6.9 0,3.9 -3.1,7 -6.9,7 -3.9,0 -7,-3.1 -7,-7 z"
               inkscape:connector-curvature="0" /></g><g
             id="XMLID_1347_"><path
               id="XMLID_1348_"
               d="m 455.6,305.9 c 0,-3.9 3.2,-6.9 7,-6.9 3.8,0 7,3.1 7,6.9 0,3.8 -3.2,6.9 -7,6.9 -3.8,0 -7,-3.1 -7,-6.9 z"
               inkscape:connector-curvature="0" /></g></g><g
           id="XMLID_1261_"
           class="st0"
           style="opacity:0.2"><g
             id="XMLID_1344_"><polygon
               id="XMLID_1345_"
               points="130.4,427.3 106.2,452.1 52.2,452.1 41.9,462.4 -4.9,462.4 -32.4,434.9 -31.2,433.6 -4.2,460.6 41.1,460.6 51.5,450.3 105.4,450.3 129.7,425.5 159.1,425.5 159.1,427.3 " /></g><g
             id="XMLID_1342_"><polygon
               id="XMLID_1343_"
               points="88.7,422.7 121.8,389.7 235.9,389.7 262.6,416.3 300.4,416.3 300.4,418.2 261.8,418.2 235.2,391.5 122.5,391.5 89.5,424.6 52.7,424.6 18,389.9 -30.6,389.9 -30.6,388.1 18.7,388.1 53.4,422.7 " /></g><g
             id="XMLID_1340_"><polygon
               id="XMLID_1341_"
               points="378.6,377.6 378.6,379.4 321.8,379.4 308.2,365.8 232.3,365.8 185.7,412.3 114.7,412.3 82.3,444.6 -3.7,444.6 -18.1,430.2 -32.4,430.2 -32.4,428.4 -17.4,428.4 -3,442.8 81.6,442.8 113.9,410.5 185,410.5 231.5,363.9 309,363.9 322.6,377.6 " /></g><g
             id="XMLID_1338_"><polygon
               id="XMLID_1339_"
               points="174.7,287.3 266.2,378.8 299.8,378.8 299.8,380.6 265.4,380.6 174,289.1 132.7,289.1 100.2,256.7 69.4,256.7 69.4,254.8 101,254.8 133.5,287.3 " /></g><g
             id="XMLID_1336_"><polygon
               id="XMLID_1337_"
               points="196.1,374.8 196.1,378.5 93.5,378.5 75,360 31.9,360 8.5,383.5 -32.4,383.5 -32.4,379.9 6.9,379.9 30.5,356.3 76.5,356.3 95,374.8 " /></g><g
             id="XMLID_1334_"><polygon
               id="XMLID_1335_"
               points="111.6,324.2 88.9,347 9.8,347 -4.9,361.6 -35.5,361.6 -35.5,359.9 -5.7,359.9 9,345.1 88.2,345.1 110.9,322.4 184,322.4 184,324.2 " /></g><g
             id="XMLID_1332_"><polygon
               id="XMLID_1333_"
               points="205.2,358 238.4,324.8 347.2,324.8 365.7,306.4 392,306.4 392,310 367.3,310 348.8,328.5 239.9,328.5 206.8,361.6 159,361.6 89.8,292.5 60.5,292.5 45.7,307.3 -34.8,307.3 -34.8,303.6 44.2,303.6 59,288.8 91.3,288.8 160.5,358 " /></g><g
             id="XMLID_1330_"><polygon
               id="XMLID_1331_"
               points="338.6,352.4 338.6,356.1 273.6,356.1 218.7,301.2 102.3,301.2 76.7,326.8 -32.4,326.8 -32.4,323.2 75.2,323.2 100.8,297.6 220.2,297.6 275.1,352.4 " /></g><g
             id="XMLID_1328_"><polygon
               id="XMLID_1329_"
               points="352.3,286.6 325.4,313.6 247.7,313.6 247.7,311.8 324.6,311.8 351.6,284.8 392,284.8 392,286.6 " /></g><g
             id="XMLID_1326_"><polygon
               id="XMLID_1327_"
               points="243.2,249.6 271,277.5 299.2,277.5 299.2,279.3 270.3,279.3 242.4,251.5 171.5,251.5 132.1,212.1 -5.4,212.1 -30.2,236.9 -39.1,236.9 -39.1,235.1 -31,235.1 -6.1,210.3 132.8,210.3 172.2,249.6 " /></g><g
             id="XMLID_1324_"><polygon
               id="XMLID_1325_"
               points="209.8,173.9 292.9,256.9 404.9,256.9 421.6,240.2 422.9,241.5 405.7,258.7 292.1,258.7 209.1,175.7 145.4,175.7 133.3,163.6 17.7,163.6 8.6,172.6 -37.3,172.6 -37.3,170.8 7.8,170.8 16.9,161.8 134.1,161.8 146.2,173.9 " /></g><g
             id="XMLID_1322_"><polygon
               id="XMLID_1323_"
               points="227.4,240.5 192.3,275.7 66.2,275.7 26.2,315.7 -35.5,315.7 -35.5,313.9 25.4,313.9 65.4,273.9 191.5,273.9 226.7,238.7 322.9,238.7 322.9,240.5 " /></g><g
             id="XMLID_1320_"><path
               id="XMLID_1321_"
               d="m 155.5,426.4 c 0,-2 1.6,-3.7 3.6,-3.7 2,0 3.6,1.6 3.6,3.7 0,2 -1.6,3.6 -3.6,3.6 -2,0 -3.6,-1.6 -3.6,-3.6 z"
               inkscape:connector-curvature="0" /></g><g
             id="XMLID_1318_"><path
               id="XMLID_1319_"
               d="m 296.8,417 c 0,-2 1.6,-3.6 3.6,-3.6 2,0 3.6,1.6 3.6,3.6 0,2 -1.6,3.6 -3.6,3.6 -2,0.1 -3.6,-1.6 -3.6,-3.6 z"
               inkscape:connector-curvature="0" /></g><g
             id="XMLID_1316_"><path
               id="XMLID_1317_"
               d="m 295.6,378.8 c 0,-2 1.6,-3.6 3.7,-3.6 2,0 3.6,1.6 3.6,3.6 0,2 -1.7,3.6 -3.6,3.6 -2.1,0 -3.7,-1.6 -3.7,-3.6 z"
               inkscape:connector-curvature="0" /></g><g
             id="XMLID_1314_"><path
               id="XMLID_1315_"
               d="m 387.7,285.7 c 0,-2 1.6,-3.6 3.6,-3.6 2,0 3.6,1.6 3.6,3.6 0,2 -1.6,3.6 -3.6,3.6 -2,0 -3.6,-1.6 -3.6,-3.6 z"
               inkscape:connector-curvature="0" /></g><g
             id="XMLID_1312_"><path
               id="XMLID_1313_"
               d="m 244,312.7 c 0,-2 1.6,-3.6 3.6,-3.6 2,0 3.6,1.6 3.6,3.6 0,2 -1.6,3.7 -3.6,3.7 -1.9,0 -3.6,-1.7 -3.6,-3.7 z"
               inkscape:connector-curvature="0" /></g><g
             id="XMLID_1310_"><path
               id="XMLID_1311_"
               d="m 295,278.7 c 0,-2 1.6,-3.6 3.6,-3.6 2,0 3.6,1.6 3.6,3.6 0,2 -1.6,3.7 -3.6,3.7 -2,0 -3.6,-1.6 -3.6,-3.7 z"
               inkscape:connector-curvature="0" /></g><g
             id="XMLID_1308_"><path
               id="XMLID_1309_"
               d="m 288.3,256.9 c 0,-2 1.7,-3.6 3.6,-3.6 2,0 3.6,1.6 3.6,3.6 0,2 -1.6,3.6 -3.6,3.6 -1.9,0.1 -3.6,-1.6 -3.6,-3.6 z"
               inkscape:connector-curvature="0" /></g><g
             id="XMLID_1306_"><path
               id="XMLID_1307_"
               d="m 130.5,288.8 c 0,-2 1.6,-3.6 3.6,-3.6 2,0 3.6,1.6 3.6,3.6 0,2 -1.6,3.6 -3.6,3.6 -2,0 -3.6,-1.7 -3.6,-3.6 z"
               inkscape:connector-curvature="0" /></g><g
             id="XMLID_1304_"><path
               id="XMLID_1305_"
               d="m 85,347 c 0,-2 1.7,-3.7 3.6,-3.7 2,0 3.6,1.6 3.6,3.7 0,2 -1.6,3.6 -3.6,3.6 -1.9,0 -3.6,-1.7 -3.6,-3.6 z"
               inkscape:connector-curvature="0" /></g><g
             id="XMLID_1302_"><path
               id="XMLID_1303_"
               d="m 231.9,390.6 c 0,-2 1.6,-3.6 3.6,-3.6 2,0 3.7,1.6 3.7,3.6 0,2 -1.6,3.6 -3.7,3.6 -1.9,0 -3.6,-1.6 -3.6,-3.6 z"
               inkscape:connector-curvature="0" /></g><g
             id="XMLID_1300_"><path
               id="XMLID_1301_"
               d="m 180.1,323.9 c 0,-2 1.6,-3.6 3.6,-3.6 2,0 3.6,1.6 3.6,3.6 0,2 -1.6,3.7 -3.6,3.7 -2,0 -3.6,-1.7 -3.6,-3.7 z"
               inkscape:connector-curvature="0" /></g><g
             id="XMLID_1298_"><path
               id="XMLID_1299_"
               d="m 167.8,250.7 c 0,-2 1.6,-3.6 3.6,-3.6 2,0 3.6,1.6 3.6,3.6 0,2 -1.7,3.7 -3.6,3.7 -2,0 -3.6,-1.6 -3.6,-3.7 z"
               inkscape:connector-curvature="0" /></g><g
             id="XMLID_1296_"><path
               id="XMLID_1297_"
               d="m 128.8,212.1 c 0,-2 1.6,-3.6 3.6,-3.6 2,0 3.6,1.6 3.6,3.6 0,2 -1.6,3.6 -3.6,3.6 -2,0 -3.6,-1.6 -3.6,-3.6 z"
               inkscape:connector-curvature="0" /></g><g
             id="XMLID_1294_"><path
               id="XMLID_1295_"
               d="m 419.5,240.5 c 0,-2 1.6,-3.6 3.6,-3.6 2,0 3.6,1.6 3.6,3.6 0,2 -1.6,3.7 -3.6,3.7 -1.9,0 -3.6,-1.6 -3.6,-3.7 z"
               inkscape:connector-curvature="0" /></g><g
             id="XMLID_1292_"><path
               id="XMLID_1293_"
               d="m 318.6,239.9 c 0,-2 1.6,-3.6 3.6,-3.6 2,0 3.6,1.6 3.6,3.6 0,2 -1.6,3.7 -3.6,3.7 -2,0 -3.6,-1.6 -3.6,-3.7 z"
               inkscape:connector-curvature="0" /></g><g
             id="XMLID_1290_"><path
               id="XMLID_1291_"
               d="m 68.2,256.7 c 0,-2 1.6,-3.7 3.6,-3.7 2,0 3.6,1.6 3.6,3.7 0,2 -1.6,3.6 -3.6,3.6 -2,0 -3.6,-1.7 -3.6,-3.6 z"
               inkscape:connector-curvature="0" /></g><g
             id="XMLID_1288_"><path
               id="XMLID_1289_"
               d="m -9.3,360.9 c 0,-2 1.7,-3.6 3.7,-3.6 2,0 3.6,1.6 3.6,3.6 0,2 -1.6,3.6 -3.6,3.6 -2,0 -3.7,-1.6 -3.7,-3.6 z"
               inkscape:connector-curvature="0" /></g><g
             id="XMLID_1286_"><path
               id="XMLID_1287_"
               d="m 188.2,274.8 c 0,-2 1.6,-3.7 3.6,-3.7 2,0 3.7,1.6 3.7,3.7 0,2 -1.7,3.6 -3.7,3.6 -1.9,0 -3.6,-1.6 -3.6,-3.6 z"
               inkscape:connector-curvature="0" /></g><g
             id="XMLID_1284_"><path
               id="XMLID_1285_"
               d="m 181.7,411.4 c 0,-2 1.6,-3.7 3.6,-3.7 2,0 3.6,1.6 3.6,3.7 0,2 -1.6,3.6 -3.6,3.6 -1.9,0 -3.6,-1.6 -3.6,-3.6 z"
               inkscape:connector-curvature="0" /></g><g
             id="XMLID_1282_"><path
               id="XMLID_1283_"
               d="m 101.7,450.9 c 0,-2 1.6,-3.6 3.6,-3.6 2,0 3.6,1.6 3.6,3.6 0,2 -1.6,3.7 -3.6,3.7 -2,0 -3.6,-1.7 -3.6,-3.7 z"
               inkscape:connector-curvature="0" /></g><g
             id="XMLID_1280_"><path
               id="XMLID_1281_"
               d="m 37.8,461.6 c 0,-2 1.6,-3.6 3.6,-3.6 2,0 3.6,1.6 3.6,3.6 0,2 -1.6,3.6 -3.6,3.6 -1.9,0 -3.6,-1.6 -3.6,-3.6 z"
               inkscape:connector-curvature="0" /></g><g
             id="XMLID_1278_"><path
               id="XMLID_1279_"
               d="m -8.2,461.6 c 0,-2 1.7,-3.6 3.7,-3.6 2,0 3.6,1.6 3.6,3.6 0,2 -1.6,3.6 -3.6,3.6 -2,0 -3.7,-1.6 -3.7,-3.6 z"
               inkscape:connector-curvature="0" /></g><g
             id="XMLID_1276_"><path
               id="XMLID_1277_"
               d="m -7.3,444.3 c 0,-2 1.6,-3.6 3.6,-3.6 2,0 3.6,1.6 3.6,3.6 0,2 -1.6,3.6 -3.6,3.6 -1.9,0.1 -3.6,-1.5 -3.6,-3.6 z"
               inkscape:connector-curvature="0" /></g><g
             id="XMLID_1274_"><path
               id="XMLID_1275_"
               d="m 49.8,423.4 c 0,-2 1.6,-3.6 3.6,-3.6 2,0 3.6,1.6 3.6,3.6 0,2 -1.6,3.7 -3.6,3.7 -2,0 -3.6,-1.7 -3.6,-3.7 z"
               inkscape:connector-curvature="0" /></g><g
             id="XMLID_1272_"><path
               id="XMLID_1273_"
               d="m 118.5,390.6 c 0,-2 1.6,-3.6 3.6,-3.6 2,0 3.6,1.6 3.6,3.6 0,2 -1.6,3.6 -3.6,3.6 -1.9,0 -3.6,-1.6 -3.6,-3.6 z"
               inkscape:connector-curvature="0" /></g><g
             id="XMLID_1270_"><path
               id="XMLID_1271_"
               d="m 374.1,378.5 c 0,-2 1.6,-3.6 3.6,-3.6 2,0 3.6,1.6 3.6,3.6 0,2 -1.6,3.6 -3.6,3.6 -2,0 -3.6,-1.6 -3.6,-3.6 z"
               inkscape:connector-curvature="0" /></g><g
             id="XMLID_1268_"><path
               id="XMLID_1269_"
               d="m 333.2,354.2 c 0,-2.8 2.3,-5.2 5.1,-5.2 2.9,0 5.2,2.3 5.2,5.2 0,2.8 -2.3,5.2 -5.2,5.2 -2.9,0 -5.1,-2.3 -5.1,-5.2 z"
               inkscape:connector-curvature="0" /></g><g
             id="XMLID_1266_"><path
               id="XMLID_1267_"
               d="m 190.6,376.5 c 0,-2.8 2.3,-5.1 5.1,-5.1 2.8,0 5.2,2.3 5.2,5.1 0,2.8 -2.4,5.1 -5.2,5.1 -2.8,0 -5.1,-2.2 -5.1,-5.1 z"
               inkscape:connector-curvature="0" /></g><g
             id="XMLID_1264_"><path
               id="XMLID_1265_"
               d="m 88.7,376.3 c 0,-2.9 2.3,-5.2 5.2,-5.2 2.8,0 5.1,2.3 5.1,5.2 0,2.8 -2.3,5.1 -5.1,5.1 -2.8,0 -5.2,-2.3 -5.2,-5.1 z"
               inkscape:connector-curvature="0" /></g><g
             id="XMLID_1262_"><path
               id="XMLID_1263_"
               d="m 387.4,307.8 c 0,-2.8 2.3,-5.1 5.1,-5.1 2.9,0 5.2,2.3 5.2,5.1 0,2.9 -2.3,5.2 -5.2,5.2 -2.8,0 -5.1,-2.3 -5.1,-5.2 z"
               inkscape:connector-curvature="0" /></g></g><g
           id="XMLID_1176_"><g
             id="XMLID_1259_"><polygon
               id="XMLID_1260_"
               points="138.4,412.8 117.3,434.6 70.2,434.6 61.2,443.6 20.3,443.6 -3.8,419.5 -2.6,418.4 21,442 60.5,442 69.6,433 116.6,433 137.8,411.3 163.5,411.3 163.5,412.8 " /></g><g
             id="XMLID_1257_"><polygon
               id="XMLID_1258_"
               points="102.1,408.8 130.9,380 230.6,380 253.9,403.3 286.9,403.3 286.9,404.9 253.2,404.9 229.9,381.6 131.6,381.6 102.7,410.5 70.6,410.5 40.3,380.2 -2.1,380.2 -2.1,378.6 41,378.6 71.2,408.8 " /></g><g
             id="XMLID_1255_"><polygon
               id="XMLID_1256_"
               points="355.2,369.5 355.2,371 305.6,371 293.7,359.1 227.4,359.1 186.8,399.7 124.7,399.7 96.5,428 21.4,428 8.8,415.4 -3.7,415.4 -3.7,413.8 9.4,413.8 22,426.4 95.8,426.4 124,398.1 186.1,398.1 226.8,357.6 294.4,357.6 306.3,369.5 " /></g><g
             id="XMLID_1253_"><polygon
               id="XMLID_1254_"
               points="177.1,290.6 257,370.5 286.3,370.5 286.3,372.1 256.3,372.1 176.5,292.1 140.4,292.1 112.1,263.9 85.2,263.9 85.2,262.3 112.8,262.3 141.1,290.6 " /></g><g
             id="XMLID_1251_"><polygon
               id="XMLID_1252_"
               points="195.9,367.1 195.9,370.3 106.2,370.3 90.1,354.1 52.5,354.1 32,374.6 -3.7,374.6 -3.7,371.5 30.7,371.5 51.2,350.9 91.4,350.9 107.6,367.1 " /></g><g
             id="XMLID_1249_"><polygon
               id="XMLID_1250_"
               points="122.1,322.8 102.2,342.7 33.1,342.7 20.3,355.6 -6.4,355.6 -6.4,354 19.6,354 32.5,341.1 101.5,341.1 121.4,321.3 185.2,321.3 185.2,322.8 " /></g><g
             id="XMLID_1247_"><polygon
               id="XMLID_1248_"
               points="203.8,352.4 232.8,323.4 327.8,323.4 343.9,307.2 366.8,307.2 366.8,310.4 345.2,310.4 329.1,326.6 234.1,326.6 205.1,355.6 163.4,355.6 103,295.1 77.4,295.1 64.5,308 -5.8,308 -5.8,304.9 63.1,304.9 76.1,292 104.3,292 164.7,352.4 " /></g><g
             id="XMLID_1245_"><polygon
               id="XMLID_1246_"
               points="320.2,347.5 320.2,350.7 263.4,350.7 215.6,302.8 113.9,302.8 91.6,325.1 -3.7,325.1 -3.7,321.9 90.3,321.9 112.6,299.6 216.9,299.6 264.8,347.5 " /></g><g
             id="XMLID_1243_"><polygon
               id="XMLID_1244_"
               points="332.2,290.1 308.7,313.6 240.8,313.6 240.8,312 308,312 331.6,288.4 366.8,288.4 366.8,290.1 " /></g><g
             id="XMLID_1241_"><polygon
               id="XMLID_1242_"
               points="236.9,257.7 261.3,282.1 285.8,282.1 285.8,283.7 260.6,283.7 236.3,259.3 174.3,259.3 139.9,224.9 19.9,224.9 -1.8,246.6 -9.5,246.6 -9.5,245 -2.5,245 19.2,223.4 140.6,223.4 175,257.7 " /></g><g
             id="XMLID_1239_"><polygon
               id="XMLID_1240_"
               points="207.8,191.6 280.3,264.1 378.2,264.1 392.8,249.5 393.9,250.7 378.8,265.7 279.7,265.7 207.2,193.2 151.6,193.2 141,182.6 40,182.6 32.1,190.5 -7.9,190.5 -7.9,188.9 31.4,188.9 39.4,181 141.6,181 152.2,191.6 " /></g><g
             id="XMLID_1237_"><polygon
               id="XMLID_1238_"
               points="223.2,249.8 192.5,280.5 82.4,280.5 47.4,315.5 -6.4,315.5 -6.4,313.9 46.8,313.9 81.7,278.9 191.8,278.9 222.5,248.2 306.5,248.2 306.5,249.8 " /></g><g
             id="XMLID_1235_"><path
               id="XMLID_1236_"
               d="m 160.4,412.1 c 0,-1.8 1.4,-3.2 3.2,-3.2 1.8,0 3.2,1.5 3.2,3.2 0,1.7 -1.4,3.1 -3.2,3.1 -1.8,0 -3.2,-1.4 -3.2,-3.1 z"
               inkscape:connector-curvature="0" /></g><g
             id="XMLID_1233_"><path
               id="XMLID_1234_"
               d="m 283.7,403.9 c 0,-1.8 1.4,-3.2 3.2,-3.2 1.7,0 3.2,1.4 3.2,3.2 0,1.7 -1.5,3.2 -3.2,3.2 -1.8,-0.1 -3.2,-1.5 -3.2,-3.2 z"
               inkscape:connector-curvature="0" /></g><g
             id="XMLID_1231_"><path
               id="XMLID_1232_"
               d="m 282.6,370.5 c 0,-1.8 1.4,-3.2 3.2,-3.2 1.8,0 3.2,1.4 3.2,3.2 0,1.7 -1.4,3.2 -3.2,3.2 -1.7,0 -3.2,-1.4 -3.2,-3.2 z"
               inkscape:connector-curvature="0" /></g><g
             id="XMLID_1229_"><path
               id="XMLID_1230_"
               d="m 363.1,289.3 c 0,-1.7 1.4,-3.2 3.2,-3.2 1.7,0 3.2,1.5 3.2,3.2 0,1.7 -1.4,3.2 -3.2,3.2 -1.8,-0.1 -3.2,-1.5 -3.2,-3.2 z"
               inkscape:connector-curvature="0" /></g><g
             id="XMLID_1227_"><path
               id="XMLID_1228_"
               d="m 237.6,312.8 c 0,-1.7 1.5,-3.2 3.2,-3.2 1.8,0 3.2,1.4 3.2,3.2 0,1.8 -1.4,3.2 -3.2,3.2 -1.7,0 -3.2,-1.4 -3.2,-3.2 z"
               inkscape:connector-curvature="0" /></g><g
             id="XMLID_1225_"><path
               id="XMLID_1226_"
               d="m 282.1,283.1 c 0,-1.7 1.4,-3.1 3.2,-3.1 1.7,0 3.1,1.4 3.1,3.1 0,1.8 -1.4,3.2 -3.1,3.2 -1.7,0.1 -3.2,-1.4 -3.2,-3.2 z"
               inkscape:connector-curvature="0" /></g><g
             id="XMLID_1223_"><path
               id="XMLID_1224_"
               d="m 276.3,264.1 c 0,-1.7 1.4,-3.1 3.1,-3.1 1.8,0 3.2,1.4 3.2,3.1 0,1.8 -1.4,3.2 -3.2,3.2 -1.7,0 -3.1,-1.5 -3.1,-3.2 z"
               inkscape:connector-curvature="0" /></g><g
             id="XMLID_1221_"><path
               id="XMLID_1222_"
               d="m 138.5,291.9 c 0,-1.7 1.5,-3.2 3.2,-3.2 1.8,0 3.2,1.4 3.2,3.2 0,1.8 -1.4,3.2 -3.2,3.2 -1.7,0 -3.2,-1.4 -3.2,-3.2 z"
               inkscape:connector-curvature="0" /></g><g
             id="XMLID_1219_"><path
               id="XMLID_1220_"
               d="m 98.8,342.7 c 0,-1.7 1.4,-3.2 3.2,-3.2 1.7,0 3.2,1.5 3.2,3.2 0,1.8 -1.5,3.2 -3.2,3.2 -1.8,0 -3.2,-1.4 -3.2,-3.2 z"
               inkscape:connector-curvature="0" /></g><g
             id="XMLID_1217_"><path
               id="XMLID_1218_"
               d="m 227.1,380.8 c 0,-1.7 1.4,-3.2 3.2,-3.2 1.7,0 3.2,1.4 3.2,3.2 0,1.7 -1.4,3.2 -3.2,3.2 -1.8,0 -3.2,-1.4 -3.2,-3.2 z"
               inkscape:connector-curvature="0" /></g><g
             id="XMLID_1215_"><path
               id="XMLID_1216_"
               d="m 181.8,322.6 c 0,-1.7 1.4,-3.2 3.2,-3.2 1.7,0 3.1,1.5 3.1,3.2 0,1.7 -1.4,3.2 -3.1,3.2 -1.8,0 -3.2,-1.5 -3.2,-3.2 z"
               inkscape:connector-curvature="0" /></g><g
             id="XMLID_1213_"><path
               id="XMLID_1214_"
               d="m 171.1,258.7 c 0,-1.7 1.5,-3.2 3.2,-3.2 1.7,0 3.2,1.4 3.2,3.2 0,1.8 -1.4,3.2 -3.2,3.2 -1.8,0 -3.2,-1.5 -3.2,-3.2 z"
               inkscape:connector-curvature="0" /></g><g
             id="XMLID_1211_"><path
               id="XMLID_1212_"
               d="m 137.1,224.9 c 0,-1.7 1.4,-3.2 3.2,-3.2 1.7,0 3.2,1.4 3.2,3.2 0,1.8 -1.5,3.2 -3.2,3.2 -1.8,0 -3.2,-1.4 -3.2,-3.2 z"
               inkscape:connector-curvature="0" /></g><g
             id="XMLID_1209_"><path
               id="XMLID_1210_"
               d="m 390.9,249.8 c 0,-1.8 1.4,-3.2 3.2,-3.2 1.7,0 3.2,1.4 3.2,3.2 0,1.8 -1.5,3.2 -3.2,3.2 -1.8,0 -3.2,-1.4 -3.2,-3.2 z"
               inkscape:connector-curvature="0" /></g><g
             id="XMLID_1207_"><path
               id="XMLID_1208_"
               d="m 302.8,249.3 c 0,-1.7 1.4,-3.2 3.2,-3.2 1.8,0 3.2,1.4 3.2,3.2 0,1.7 -1.4,3.2 -3.2,3.2 -1.8,0 -3.2,-1.5 -3.2,-3.2 z"
               inkscape:connector-curvature="0" /></g><g
             id="XMLID_1205_"><path
               id="XMLID_1206_"
               d="m 84.1,263.9 c 0,-1.8 1.5,-3.2 3.2,-3.2 1.8,0 3.2,1.4 3.2,3.2 0,1.7 -1.4,3.2 -3.2,3.2 -1.7,-0.1 -3.2,-1.5 -3.2,-3.2 z"
               inkscape:connector-curvature="0" /></g><g
             id="XMLID_1203_"><path
               id="XMLID_1204_"
               d="m 16.5,354.9 c 0,-1.8 1.4,-3.2 3.2,-3.2 1.7,0 3.2,1.4 3.2,3.2 0,1.8 -1.4,3.2 -3.2,3.2 -1.7,-0.1 -3.2,-1.4 -3.2,-3.2 z"
               inkscape:connector-curvature="0" /></g><g
             id="XMLID_1201_"><path
               id="XMLID_1202_"
               d="m 189,279.7 c 0,-1.7 1.4,-3.2 3.2,-3.2 1.7,0 3.2,1.4 3.2,3.2 0,1.8 -1.5,3.2 -3.2,3.2 -1.8,0 -3.2,-1.5 -3.2,-3.2 z"
               inkscape:connector-curvature="0" /></g><g
             id="XMLID_1199_"><path
               id="XMLID_1200_"
               d="m 183.2,398.9 c 0,-1.7 1.4,-3.2 3.2,-3.2 1.7,0 3.2,1.4 3.2,3.2 0,1.8 -1.5,3.2 -3.2,3.2 -1.7,0 -3.2,-1.4 -3.2,-3.2 z"
               inkscape:connector-curvature="0" /></g><g
             id="XMLID_1197_"><path
               id="XMLID_1198_"
               d="m 113.3,433.5 c 0,-1.8 1.5,-3.2 3.2,-3.2 1.8,0 3.2,1.4 3.2,3.2 0,1.7 -1.4,3.2 -3.2,3.2 -1.7,0 -3.2,-1.5 -3.2,-3.2 z"
               inkscape:connector-curvature="0" /></g><g
             id="XMLID_1195_"><path
               id="XMLID_1196_"
               d="m 57.6,442.8 c 0,-1.7 1.5,-3.2 3.2,-3.2 1.7,0 3.2,1.4 3.2,3.2 0,1.7 -1.4,3.2 -3.2,3.2 -1.8,0 -3.2,-1.5 -3.2,-3.2 z"
               inkscape:connector-curvature="0" /></g><g
             id="XMLID_1193_"><path
               id="XMLID_1194_"
               d="m 17.5,442.8 c 0,-1.7 1.4,-3.2 3.2,-3.2 1.8,0 3.2,1.4 3.2,3.2 0,1.7 -1.4,3.2 -3.2,3.2 -1.8,0 -3.2,-1.5 -3.2,-3.2 z"
               inkscape:connector-curvature="0" /></g><g
             id="XMLID_1191_"><path
               id="XMLID_1192_"
               d="m 18.2,427.7 c 0,-1.7 1.4,-3.2 3.2,-3.2 1.8,0 3.2,1.4 3.2,3.2 0,1.8 -1.4,3.2 -3.2,3.2 -1.8,0 -3.2,-1.4 -3.2,-3.2 z"
               inkscape:connector-curvature="0" /></g><g
             id="XMLID_1189_"><path
               id="XMLID_1190_"
               d="m 68.1,409.5 c 0,-1.8 1.4,-3.2 3.2,-3.2 1.8,0 3.2,1.4 3.2,3.2 0,1.8 -1.4,3.2 -3.2,3.2 -1.8,0 -3.2,-1.5 -3.2,-3.2 z"
               inkscape:connector-curvature="0" /></g><g
             id="XMLID_1187_"><path
               id="XMLID_1188_"
               d="m 128.1,380.8 c 0,-1.7 1.4,-3.2 3.2,-3.2 1.7,0 3.2,1.4 3.2,3.2 0,1.7 -1.5,3.2 -3.2,3.2 -1.8,0 -3.2,-1.4 -3.2,-3.2 z"
               inkscape:connector-curvature="0" /></g><g
             id="XMLID_1185_"><path
               id="XMLID_1186_"
               d="m 351.2,370.3 c 0,-1.8 1.4,-3.2 3.2,-3.2 1.7,0 3.2,1.4 3.2,3.2 0,1.7 -1.4,3.2 -3.2,3.2 -1.8,-0.1 -3.2,-1.5 -3.2,-3.2 z"
               inkscape:connector-curvature="0" /></g><g
             id="XMLID_1183_"><path
               id="XMLID_1184_"
               d="m 315.5,349.1 c 0,-2.5 2,-4.5 4.5,-4.5 2.5,0 4.5,2 4.5,4.5 0,2.5 -2,4.5 -4.5,4.5 -2.5,0 -4.5,-2 -4.5,-4.5 z"
               inkscape:connector-curvature="0" /></g><g
             id="XMLID_1181_"><path
               id="XMLID_1182_"
               d="m 191,368.5 c 0,-2.5 2,-4.5 4.5,-4.5 2.5,0 4.5,2 4.5,4.5 0,2.5 -2,4.5 -4.5,4.5 -2.5,0 -4.5,-2 -4.5,-4.5 z"
               inkscape:connector-curvature="0" /></g><g
             id="XMLID_1179_"><path
               id="XMLID_1180_"
               d="m 102.1,368.3 c 0,-2.5 2,-4.5 4.5,-4.5 2.5,0 4.4,2 4.4,4.5 0,2.4 -2,4.5 -4.4,4.5 -2.5,0 -4.5,-2 -4.5,-4.5 z"
               inkscape:connector-curvature="0" /></g><g
             id="XMLID_1177_"><path
               id="XMLID_1178_"
               d="m 362.9,308.5 c 0,-2.4 2,-4.4 4.5,-4.4 2.5,0 4.5,2 4.5,4.4 0,2.5 -2,4.5 -4.5,4.5 -2.5,0 -4.5,-1.9 -4.5,-4.5 z"
               inkscape:connector-curvature="0" /></g></g></g></g></g></svg>