<?xml version="1.0" encoding="utf-8"?>
<!-- Generator: Adobe Illustrator 19.0.0, SVG Export Plug-In . SVG Version: 6.00 Build 0)  -->
<svg version="1.1" id="Layer_1" xmlns="http://www.w3.org/2000/svg" xmlns:xlink="http://www.w3.org/1999/xlink" x="0px" y="0px"
	 viewBox="0 0 105.2 105.9" style="enable-background:new 0 0 105.2 105.9;" xml:space="preserve">
<style type="text/css">
	.st0{fill:none;stroke:#A7A9AC;stroke-width:2;stroke-miterlimit:10;stroke-dasharray:6.3;}
	.st1{fill:#A7A9AC;}
</style>
<circle id="XMLID_696_" class="st0" cx="52.7" cy="53.5" r="50.2"/>
<g id="XMLID_627_">
	<path id="XMLID_653_" class="st1" d="M37.4,77.4h12.9v-2.6h-3.9V50.3c0-0.8-0.5-1.3-1.3-1.3h-7.7c-0.8,0-1.3,0.5-1.3,1.3V58h-6.5
		c-0.8,0-1.3,0.5-1.3,1.3v5.2H22c-0.8,0-1.3,0.5-1.3,1.3v10.3c0,0.8,0.5,1.3,1.3,1.3H37.4z M38.7,51.6h5.2v23.2h-5.2V51.6z M31,60.6
		h5.2v14.2H31V60.6z M23.3,67.1h5.2v7.7h-5.2V67.1z M23.3,67.1"/>
	<path id="XMLID_641_" class="st1" d="M81.3,59.3V37.4c0-0.8-0.5-1.3-1.3-1.3H52.9c-0.8,0-1.3,0.5-1.3,1.3v21.9
		c0,0.8,0.5,1.3,1.3,1.3H80C80.8,60.6,81.3,60.1,81.3,59.3L81.3,59.3z M78.8,43.8H63.3v-5.2h15.5V43.8z M60.7,38.7v5.2h-6.5v-5.2
		H60.7z M54.2,46.4h6.5V58h-6.5V46.4z M63.3,58V46.4h15.5V58H63.3z M63.3,58"/>
	<rect id="XMLID_640_" x="52.9" y="64.5" class="st1" width="27.1" height="2.6"/>
	<rect id="XMLID_638_" x="52.9" y="70.9" class="st1" width="27.1" height="2.6"/>
	<rect id="XMLID_636_" x="52.9" y="77.4" class="st1" width="27.1" height="2.6"/>
	<rect id="XMLID_631_" x="34.9" y="36.1" class="st1" width="7.7" height="2.6"/>
	<rect id="XMLID_628_" x="34.9" y="42.5" class="st1" width="11.6" height="2.6"/>
</g>
</svg>
