<?xml version="1.0" encoding="utf-8"?>
<!-- Generator: Adobe Illustrator 19.0.0, SVG Export Plug-In . SVG Version: 6.00 Build 0)  -->
<svg version="1.1" id="Layer_1" xmlns="http://www.w3.org/2000/svg" xmlns:xlink="http://www.w3.org/1999/xlink" x="0px" y="0px"
	 viewBox="-426 127 47 48" style="enable-background:new -426 127 47 48;" xml:space="preserve">
<style type="text/css">
	.st0{fill:none;stroke:#2FA1DB;stroke-miterlimit:10;}
	.st1{fill:#2FA1DB;}
</style>
<g id="XMLID_2713_">
	<circle id="XMLID_2743_" class="st0" cx="-402.2" cy="151.2" r="21.8"/>
	<g id="XMLID_2714_">
		<path id="XMLID_2739_" class="st1" d="M-389.5,158.4l-0.7-0.1c-0.3-0.1-0.6-0.3-0.7-0.6c-0.1-0.3-0.1-0.6,0.1-0.9l0.4-0.6
			c0.1-0.2,0.1-0.4,0-0.6l-0.9-0.9c-0.2-0.2-0.4-0.2-0.6-0.1l-0.6,0.4c-0.3,0.2-0.6,0.2-0.9,0.1c-0.3-0.1-0.5-0.4-0.5-0.7l-0.1-0.7
			c0-0.2-0.2-0.4-0.5-0.4h-1.3c-0.2,0-0.4,0.2-0.5,0.4l-0.2,0.9c-0.1,0.3-0.3,0.6-0.6,0.7c-0.3,0.1-0.6,0.1-0.9-0.1l-0.7-0.5
			c-0.2-0.1-0.4-0.1-0.6,0.1l-0.9,0.9c-0.2,0.2-0.2,0.4,0,0.6l0.4,0.6c0.2,0.3,0.2,0.6,0.1,0.9c-0.1,0.3-0.4,0.5-0.7,0.6l-0.7,0.1
			c-0.2,0-0.4,0.2-0.4,0.5v1.3c0,0.2,0.2,0.4,0.4,0.5l0.7,0.1c0.3,0,0.6,0.2,0.7,0.5c0.1,0.3,0.1,0.6-0.1,0.9l-0.4,0.6
			c-0.1,0.2-0.1,0.4,0.1,0.6l0.9,0.9c0.2,0.2,0.4,0.2,0.6,0l0.6-0.4c0.3-0.2,0.6-0.2,0.9-0.1c0.3,0.1,0.5,0.4,0.6,0.7l0.1,0.7
			c0,0.2,0.2,0.4,0.5,0.4h1.3c0.2,0,0.4-0.2,0.5-0.4l0.1-0.5c0.1-0.3,0.3-0.6,0.6-0.7c0.3-0.1,0.6-0.1,0.9,0.1l0.4,0.3
			c0.2,0.1,0.4,0.1,0.6,0l0.9-0.9c0.2-0.2,0.2-0.4,0.1-0.6l-0.4-0.6c-0.2-0.3-0.2-0.6-0.1-0.9c0.1-0.3,0.4-0.5,0.7-0.5l0.7-0.1
			c0.2,0,0.4-0.2,0.4-0.5v-1.3C-389.1,158.6-389.3,158.4-389.5,158.4L-389.5,158.4z M-390,159.7l-0.3,0c-0.6,0.1-1.2,0.5-1.4,1.1
			c-0.3,0.6-0.2,1.3,0.2,1.8l0.2,0.2l-0.4,0.4l-0.1-0.1c-0.5-0.4-1.2-0.5-1.8-0.2c-0.6,0.3-1,0.8-1.1,1.4l0,0.1h-0.5l-0.1-0.3
			c-0.1-0.6-0.5-1.1-1.1-1.4c-0.6-0.2-1.3-0.1-1.8,0.2l-0.3,0.2l-0.4-0.4l0.2-0.2c0.4-0.5,0.4-1.2,0.2-1.8c-0.3-0.6-0.8-1-1.4-1.1
			l-0.3,0v-0.5l0.3-0.1c0.6-0.1,1.1-0.5,1.4-1.1c0.2-0.6,0.1-1.3-0.2-1.8l-0.2-0.3l0.4-0.4l0.4,0.3c0.5,0.4,1.2,0.4,1.8,0.2
			c0.6-0.2,1-0.7,1.1-1.4l0.1-0.5h0.5l0,0.3c0.1,0.6,0.5,1.2,1.1,1.4c0.6,0.3,1.3,0.2,1.8-0.2l0.2-0.2l0.4,0.4l-0.2,0.3
			c-0.4,0.5-0.5,1.2-0.2,1.8c0.2,0.6,0.7,1,1.4,1.1l0.3,0.1L-390,159.7L-390,159.7z M-390,159.7"/>
		<path id="XMLID_2735_" class="st1" d="M-395.2,157c-1.3,0-2.3,1-2.3,2.3c0,1.3,1,2.3,2.3,2.3c1.3,0,2.3-1,2.3-2.3
			C-392.8,158.1-393.9,157-395.2,157L-395.2,157z M-395.2,160.8c-0.8,0-1.4-0.6-1.4-1.4c0-0.8,0.6-1.4,1.4-1.4
			c0.8,0,1.4,0.6,1.4,1.4C-393.8,160.1-394.4,160.8-395.2,160.8L-395.2,160.8z M-395.2,160.8"/>
		<path id="XMLID_2722_" class="st1" d="M-398,152.4h4.2v-5.1h-17.7v13.5h9.3v-8.4H-398z M-398,148.1h3.3v3.3h-3.3V148.1z
			 M-406.4,148.1h3.3v3.3h-3.3V148.1z M-410.6,148.1h3.3v3.3h-3.3V148.1z M-410.6,152.4h3.3v3.3h-3.3V152.4z M-407.3,159.8h-3.3
			v-3.3h3.3V159.8z M-403.1,159.8h-3.3v-3.3h3.3V159.8z M-403.1,155.6h-3.3v-3.3h3.3V155.6z M-402.2,151.4v-3.3h3.3v3.3H-402.2z
			 M-402.2,151.4"/>
		<path id="XMLID_2715_" class="st1" d="M-402.6,163.1h-11.2v-18.2h22.4v7.9c0,0.3,0.2,0.5,0.5,0.5c0.3,0,0.5-0.2,0.5-0.5v-13.1
			c0-0.3-0.2-0.5-0.5-0.5h-2.3v-1.4c0-0.3-0.2-0.5-0.5-0.5h-3.3c-0.3,0-0.5,0.2-0.5,0.5v1.4h-10.3v-1.4c0-0.3-0.2-0.5-0.5-0.5h-3.3
			c-0.3,0-0.5,0.2-0.5,0.5v1.4h-2.3c-0.3,0-0.5,0.2-0.5,0.5v23.8c0,0.3,0.2,0.5,0.5,0.5h11.7c0.3,0,0.5-0.2,0.5-0.5
			C-402.2,163.3-402.4,163.1-402.6,163.1L-402.6,163.1z M-396.6,138.4h2.3v2.8h-2.3V138.4z M-411,138.4h2.3v2.8h-2.3V138.4z
			 M-413.8,140.2h1.9v1.4c0,0.3,0.2,0.5,0.5,0.5h3.3c0.3,0,0.5-0.2,0.5-0.5v-1.4h10.3v1.4c0,0.3,0.2,0.5,0.5,0.5h3.3
			c0.3,0,0.5-0.2,0.5-0.5v-1.4h1.9v3.7h-22.4V140.2z M-413.8,140.2"/>
	</g>
</g>
</svg>
