<?xml version="1.0" encoding="utf-8"?>
<!-- Generator: Adobe Illustrator 19.0.0, SVG Export Plug-In . SVG Version: 6.00 Build 0)  -->
<svg version="1.1" id="Layer_1" xmlns="http://www.w3.org/2000/svg" xmlns:xlink="http://www.w3.org/1999/xlink" x="0px" y="0px"
	 viewBox="-399 101 100 100" style="enable-background:new -399 101 100 100;" xml:space="preserve">
<style type="text/css">
	.st0{fill:#2FA1DB;}
	.st1{fill:none;stroke:#A8AAAD;stroke-width:2;stroke-miterlimit:10;stroke-dasharray:6.3;}
	.st2{fill:#FFFFFF;}
</style>
<circle id="XMLID_2232_" class="st0" cx="-347.6" cy="150.8" r="31.3"/>
<circle id="XMLID_2319_" class="st1" cx="-347.9" cy="150.6" r="35.2"/>
<g id="XMLID_2231_">
	<g>
		<path id="XMLID_272_" class="st2" d="M-351.8,135.8"/>
		<path id="XMLID_269_" class="st2" d="M-358.1,148.4c0,0.6-0.5,1.1-1.1,1.1c-0.6,0-1.1-0.5-1.1-1.1c0-0.6,0.5-1.1,1.1-1.1
			C-358.6,147.2-358.1,147.7-358.1,148.4L-358.1,148.4z M-358.1,148.4"/>
		<path id="XMLID_259_" class="st2" d="M-331.3,165l-0.3-1.5c-0.1-0.7-0.6-1.3-1.2-1.7c-0.3-0.2-0.5-0.4-0.6-0.7h1v-1.1h-1.3
			c-0.5-1.6-0.9-3.5-1-5.7h1.1V153h-1.1v-1.1h1.1v-1.1h-0.7l1-1.7c0.2-0.3,0.2-0.6,0.2-0.9v-2.5c0-0.9-0.8-1.7-1.7-1.7h-0.6v-1.7
			h-0.6v-1.7h1.7v-3.4h-1.7v-1.7h-3.4v1.7h-1.7v3.4h1.7v1.7h-0.6v1.7h-0.6c-0.9,0-1.7,0.8-1.7,1.7v2.5c0,0.3,0.1,0.6,0.2,0.9l1,1.7
			h-0.7v1.1h1.1v1.1h-1.1v1.1h1.1c-0.1,2.2-0.4,4.1-1,5.7h-1.3v1.1h1c-0.1,0.3-0.3,0.6-0.6,0.8c-0.6,0.4-1,1-1.2,1.7l-0.3,1.5h-0.7
			v4h13.7v-4H-331.3z M-339.8,139.2v-1.1h1.7v-1.7h1.1v1.7h1.7v1.1h-1.7v2.9h-1.1v-2.9H-339.8z M-338.6,143.2h2.3v0.6h-2.3V143.2z
			 M-340.9,148.1v-2.5c0-0.3,0.3-0.6,0.6-0.6h5.7c0.3,0,0.6,0.3,0.6,0.6v2.5c0,0.1,0,0.2-0.1,0.3l-1.4,2.3h-3.9l-1.4-2.3
			C-340.9,148.3-340.9,148.2-340.9,148.1L-340.9,148.1z M-339.2,151.8h3.4v1.1h-3.4V151.8z M-339.2,154.1h3.5
			c0.1,2.1,0.4,4.1,0.9,5.7h-5.3C-339.6,158.2-339.3,156.2-339.2,154.1L-339.2,154.1z M-342.3,163.7c0.1-0.4,0.3-0.8,0.7-1
			c0.6-0.4,1-1,1.1-1.7h5.8c0.1,0.7,0.6,1.3,1.2,1.7c0.3,0.2,0.6,0.6,0.7,1l0.3,1.3h-10.1L-342.3,163.7z M-331.8,167.8h-11.5v-1.7
			h11.5V167.8z M-331.8,167.8"/>
		<rect id="XMLID_258_" x="-338.1" y="147.2" class="st2" width="1.1" height="1.1"/>
		<rect id="XMLID_257_" x="-335.8" y="147.2" class="st2" width="1.1" height="1.1"/>
		<rect id="XMLID_256_" x="-340.4" y="147.2" class="st2" width="1.1" height="1.1"/>
		<path id="XMLID_250_" class="st2" d="M-352.2,141.6l-1.9,1.9v3.8l1.3,2.1h-0.7v1.1h1c-0.1,0.3-0.3,0.6-0.6,0.8
			c-0.6,0.4-1,1-1.2,1.7l-0.3,1.5h-0.7v4h13.7v-4h-0.7l-0.3-1.5c-0.1-0.7-0.6-1.3-1.2-1.7c-0.3-0.2-0.5-0.4-0.6-0.7h1v-1.1h-0.7
			l1.3-2.1v-9.5l-2.5-4.4h-4.3l-2.9,0.7v1.1l-2.6,0.5l-2,2.7l1.4,3.6L-352.2,141.6z M-342.7,157.5h-11.5v-1.7h11.5V157.5z
			 M-344.3,152.4c0.3,0.2,0.6,0.6,0.7,1l0.3,1.3h-10.1l0.3-1.3c0.1-0.4,0.3-0.8,0.7-1c0.6-0.4,1-1,1.1-1.7h5.8
			C-345.3,151.4-344.9,152-344.3,152.4L-344.3,152.4z M-354.4,136.9l3.1-0.6v-1.2l0.6-0.2l0.6,1.1l1-0.5l-0.4-0.9h1.4l-0.3,1
			l1.1,0.4l0.4-1.3h1l0.8,1.3l-1.2,0.4l0.4,1.1l1.4-0.5l0.7,1.2v0.6l-1.3,0.4l0.4,1.1l1-0.3v2.1h-1.1v1.1h1.1v1.7h-1.1v1.1h1.1v1
			l-1.5,2.4h-6.2l-1-1.7h4.7v-1.1h-5.2V144l2.3-2.3v-1.5l-4.2,0.6l-0.9-2.1L-354.4,136.9z M-354.4,136.9"/>
		<rect id="XMLID_249_" x="-346.7" y="146.7" class="st2" width="1.1" height="1.1"/>
		<rect id="XMLID_248_" x="-350.7" y="136.9" class="st2" width="1.1" height="1.1"/>
		<path id="XMLID_240_" class="st2" d="M-353.4,163.4c-0.1-0.7-0.6-1.3-1.2-1.7c-0.3-0.2-0.5-0.4-0.6-0.7h1v-1.1h-1.3
			c-0.5-1.6-0.9-3.5-1-5.7h1.1V153h-1.1v-1.8c0.7-0.7,1.1-1.7,1.1-2.8c0-2.2-1.8-4-4-4c-2.2,0-4,1.8-4,4c0,1.1,0.4,2.1,1.1,2.8v1.8
			h-1.1v1.1h1.1c-0.1,2.2-0.4,4.1-1,5.7h-1.3v1.1h1c-0.1,0.3-0.3,0.6-0.6,0.8c-0.6,0.4-1,1-1.2,1.7l-0.3,1.5h-0.7v4h13.7v-4h-0.7
			L-353.4,163.4z M-359.3,145.5c1.6,0,2.9,1.3,2.9,2.9c0,1.6-1.3,2.9-2.9,2.9c-1.6,0-2.9-1.3-2.9-2.9
			C-362.1,146.8-360.8,145.5-359.3,145.5L-359.3,145.5z M-361,152c0.5,0.2,1.1,0.4,1.7,0.4c0.6,0,1.2-0.1,1.7-0.4v1h-3.4V152z
			 M-361,154.1h3.5c0.1,2.1,0.4,4.1,0.9,5.7h-5.3C-361.4,158.2-361.1,156.2-361,154.1L-361,154.1z M-364,163.7
			c0.1-0.4,0.3-0.8,0.7-1c0.6-0.4,1-1,1.1-1.7h5.8c0.1,0.7,0.6,1.3,1.2,1.7c0.3,0.2,0.6,0.6,0.7,1l0.3,1.3h-10.1L-364,163.7z
			 M-353.5,167.8H-365v-1.7h11.5V167.8z M-353.5,167.8"/>
	</g>
</g>
</svg>
