<?xml version="1.0" encoding="utf-8"?>
<!-- Generator: Adobe Illustrator 19.0.0, SVG Export Plug-In . SVG Version: 6.00 Build 0)  -->
<svg version="1.1" id="Layer_1" xmlns="http://www.w3.org/2000/svg" xmlns:xlink="http://www.w3.org/1999/xlink" x="0px" y="0px"
	 viewBox="-399 101 100 100" style="enable-background:new -399 101 100 100;" xml:space="preserve">
<style type="text/css">
	.st0{fill:none;stroke:#A7A9AC;stroke-width:2;stroke-miterlimit:10;stroke-dasharray:6.3;}
	.st1{fill:#808285;}
	.st2{fill:#2EA1DA;}
</style>
<circle id="XMLID_6499_" class="st0" cx="-348.9" cy="151.7" r="35.2"/>
<g id="XMLID_2274_">
	<g>
		<path id="XMLID_272_" class="st1" d="M-352.8,136.8"/>
		<path id="XMLID_269_" class="st1" d="M-359.1,149.4c0,0.6-0.5,1.1-1.1,1.1c-0.6,0-1.1-0.5-1.1-1.1c0-0.6,0.5-1.1,1.1-1.1
			C-359.6,148.3-359.1,148.8-359.1,149.4L-359.1,149.4z M-359.1,149.4"/>
		<path id="XMLID_259_" class="st1" d="M-332.3,166l-0.3-1.5c-0.1-0.7-0.6-1.3-1.2-1.7c-0.3-0.2-0.5-0.4-0.6-0.7h1v-1.1h-1.3
			c-0.5-1.6-0.9-3.5-1-5.7h1.1V154h-1.1v-1.1h1.1v-1.1h-0.7l1-1.7c0.2-0.3,0.2-0.6,0.2-0.9v-2.5c0-0.9-0.8-1.7-1.7-1.7h-0.6v-1.7
			h-0.6v-1.7h1.7V138h-1.7v-1.7h-3.4v1.7h-1.7v3.4h1.7v1.7h-0.6v1.7h-0.6c-0.9,0-1.7,0.8-1.7,1.7v2.5c0,0.3,0.1,0.6,0.2,0.9l1,1.7
			h-0.7v1.1h1.1v1.1h-1.1v1.1h1.1c-0.1,2.2-0.4,4.1-1,5.7h-1.3v1.1h1c-0.1,0.3-0.3,0.6-0.6,0.8c-0.6,0.4-1,1-1.2,1.7l-0.3,1.5h-0.7
			v4h13.7v-4H-332.3z M-340.8,140.3v-1.1h1.7v-1.7h1.1v1.7h1.7v1.1h-1.7v2.9h-1.1v-2.9H-340.8z M-339.6,144.3h2.3v0.6h-2.3V144.3z
			 M-341.9,149.1v-2.5c0-0.3,0.3-0.6,0.6-0.6h5.7c0.3,0,0.6,0.3,0.6,0.6v2.5c0,0.1,0,0.2-0.1,0.3l-1.4,2.3h-3.9l-1.4-2.3
			C-341.9,149.3-341.9,149.2-341.9,149.1L-341.9,149.1z M-340.2,152.9h3.4v1.1h-3.4V152.9z M-340.2,155.2h3.5
			c0.1,2.1,0.4,4.1,0.9,5.7h-5.3C-340.6,159.3-340.3,157.3-340.2,155.2L-340.2,155.2z M-343.3,164.7c0.1-0.4,0.3-0.8,0.7-1
			c0.6-0.4,1-1,1.1-1.7h5.8c0.1,0.7,0.6,1.3,1.2,1.7c0.3,0.2,0.6,0.6,0.7,1l0.3,1.3h-10.1L-343.3,164.7z M-332.8,168.9h-11.5v-1.7
			h11.5V168.9z M-332.8,168.9"/>
		<rect id="XMLID_258_" x="-339.1" y="148.3" class="st1" width="1.1" height="1.1"/>
		<rect id="XMLID_257_" x="-336.8" y="148.3" class="st1" width="1.1" height="1.1"/>
		<rect id="XMLID_256_" x="-341.4" y="148.3" class="st1" width="1.1" height="1.1"/>
		<path id="XMLID_250_" class="st1" d="M-353.2,142.7l-1.9,1.9v3.8l1.3,2.1h-0.7v1.1h1c-0.1,0.3-0.3,0.6-0.6,0.8
			c-0.6,0.4-1,1-1.2,1.7l-0.3,1.5h-0.7v4h13.7v-4h-0.7l-0.3-1.5c-0.1-0.7-0.6-1.3-1.2-1.7c-0.3-0.2-0.5-0.4-0.6-0.7h1v-1.1h-0.7
			l1.3-2.1V139l-2.5-4.4h-4.3l-2.9,0.7v1.1l-2.6,0.5l-2,2.7l1.4,3.6L-353.2,142.7z M-343.7,158.6h-11.5v-1.7h11.5V158.6z
			 M-345.3,153.4c0.3,0.2,0.6,0.6,0.7,1l0.3,1.3h-10.1l0.3-1.3c0.1-0.4,0.3-0.8,0.7-1c0.6-0.4,1-1,1.1-1.7h5.8
			C-346.3,152.4-345.9,153-345.3,153.4L-345.3,153.4z M-355.4,137.9l3.1-0.6v-1.2l0.6-0.2l0.6,1.1l1-0.5l-0.4-0.9h1.4l-0.3,1
			l1.1,0.4l0.4-1.3h1l0.8,1.3l-1.2,0.4l0.4,1.1l1.4-0.5l0.7,1.2v0.6l-1.3,0.4l0.4,1.1l1-0.3v2.1h-1.1v1.1h1.1v1.7h-1.1v1.1h1.1v1
			l-1.5,2.4h-6.2l-1-1.7h4.7v-1.1h-5.2v-2.6l2.3-2.3v-1.5l-4.2,0.6l-0.9-2.1L-355.4,137.9z M-355.4,137.9"/>
		<rect id="XMLID_249_" x="-347.7" y="147.7" class="st1" width="1.1" height="1.1"/>
		<rect id="XMLID_248_" x="-351.7" y="138" class="st1" width="1.1" height="1.1"/>
		<path id="XMLID_240_" class="st1" d="M-354.4,164.5c-0.1-0.7-0.6-1.3-1.2-1.7c-0.3-0.2-0.5-0.4-0.6-0.7h1v-1.1h-1.3
			c-0.5-1.6-0.9-3.5-1-5.7h1.1V154h-1.1v-1.8c0.7-0.7,1.1-1.7,1.1-2.8c0-2.2-1.8-4-4-4c-2.2,0-4,1.8-4,4c0,1.1,0.4,2.1,1.1,2.8v1.8
			h-1.1v1.1h1.1c-0.1,2.2-0.4,4.1-1,5.7h-1.3v1.1h1c-0.1,0.3-0.3,0.6-0.6,0.8c-0.6,0.4-1,1-1.2,1.7l-0.3,1.5h-0.7v4h13.7v-4h-0.7
			L-354.4,164.5z M-360.3,146.6c1.6,0,2.9,1.3,2.9,2.9c0,1.6-1.3,2.9-2.9,2.9c-1.6,0-2.9-1.3-2.9-2.9
			C-363.1,147.9-361.8,146.6-360.3,146.6L-360.3,146.6z M-362,153.1c0.5,0.2,1.1,0.4,1.7,0.4c0.6,0,1.2-0.1,1.7-0.4v1h-3.4V153.1z
			 M-362,155.2h3.5c0.1,2.1,0.4,4.1,0.9,5.7h-5.3C-362.4,159.3-362.1,157.3-362,155.2L-362,155.2z M-365,164.7
			c0.1-0.4,0.3-0.8,0.7-1c0.6-0.4,1-1,1.1-1.7h5.8c0.1,0.7,0.6,1.3,1.2,1.7c0.3,0.2,0.6,0.6,0.7,1l0.3,1.3h-10.1L-365,164.7z
			 M-354.5,168.9H-366v-1.7h11.5V168.9z M-354.5,168.9"/>
	</g>
</g>
<path id="XMLID_6524_" class="st2" d="M-349,114c-20.7,0-37.5,16.8-37.5,37.5S-369.7,189-349,189s37.5-16.8,37.5-37.5
	S-328.3,114-349,114z M-349,184.9c-18.4,0-33.4-14.9-33.4-33.4s14.9-33.4,33.4-33.4s33.4,14.9,33.4,33.4S-330.6,184.9-349,184.9z"/>
</svg>
