<?xml version="1.0" encoding="utf-8"?>
<!-- Generator: Adobe Illustrator 19.0.0, SVG Export Plug-In . SVG Version: 6.00 Build 0)  -->
<svg version="1.1" id="Layer_1" xmlns="http://www.w3.org/2000/svg" xmlns:xlink="http://www.w3.org/1999/xlink" x="0px" y="0px"
	 viewBox="-399 101 100 100" style="enable-background:new -399 101 100 100;" xml:space="preserve">
<style type="text/css">
	.st0{fill:none;stroke:#A8AAAD;stroke-width:2;stroke-miterlimit:10;stroke-dasharray:6.3;}
	.st1{fill:#A8AAAD;}
</style>
<circle id="XMLID_6806_" class="st0" cx="-348.4" cy="150.6" r="35.2"/>
<g id="XMLID_6801_">
	<path id="XMLID_6865_" class="st1" d="M-362.9,150.3l2.9,3c3.2,3.4,7.6,5.2,12.3,5.2c4.7,0,9-1.9,12.3-5.2l2.9-3l-2.9-3
		c-3.3-3.4-7.6-5.2-12.3-5.2c-4.7,0-9,1.9-12.3,5.2L-362.9,150.3z M-347.7,159.7c-5,0-9.6-2-13.1-5.6l-3.3-3.4
		c-0.2-0.2-0.2-0.6,0-0.8l3.3-3.4c3.5-3.6,8.1-5.6,13.1-5.6c5,0,9.6,2,13.1,5.6l3.3,3.4c0.2,0.2,0.2,0.6,0,0.8l-3.3,3.4
		C-338.1,157.7-342.7,159.7-347.7,159.7L-347.7,159.7z"/>
	<path id="XMLID_6862_" class="st1" d="M-362.9,150.3l1.5,1.5c2.8,2.9,9.8,4,13.8,4c4,0,10.9-1.1,13.8-4l1.5-1.5l-1.5-1.5
		c-2.8-2.9-9.8-4-13.8-4c-4,0-10.9,1.1-13.8,4L-362.9,150.3z M-347.7,156.9c-3.6,0-11.3-0.9-14.6-4.3l-1.8-1.9
		c-0.2-0.2-0.2-0.6,0-0.8l1.8-1.9c3.3-3.4,11-4.3,14.6-4.3c3.6,0,11.2,0.9,14.6,4.3l1.8,1.9c0.2,0.2,0.2,0.6,0,0.8l-1.8,1.9
		C-336.4,156-344.1,156.9-347.7,156.9L-347.7,156.9z"/>
	<path id="XMLID_6861_" class="st1" d="M-352.1,150.8c-0.3,0-0.6-0.2-0.6-0.6c0-2.7,2.2-5,5-5c0.3,0,0.6,0.2,0.6,0.6
		s-0.2,0.6-0.6,0.6c-2.1,0-3.9,1.7-3.9,3.9C-351.6,150.6-351.8,150.8-352.1,150.8"/>
	<path id="XMLID_6860_" class="st1" d="M-344.7,156.7c-0.2,0-0.4-0.1-0.5-0.3c-0.1-0.3,0-0.6,0.2-0.7c2.1-1,3.3-3.1,3.3-5.4
		c0-2.3-1.3-4.4-3.4-5.4c-0.3-0.1-0.4-0.5-0.2-0.7c0.1-0.3,0.5-0.4,0.7-0.2c2.4,1.2,4,3.7,4,6.4c0,2.7-1.5,5.2-3.9,6.4
		C-344.5,156.7-344.6,156.7-344.7,156.7"/>
	<path id="XMLID_6859_" class="st1" d="M-350.7,156.7c-0.1,0-0.2,0-0.2-0.1c-2.4-1.2-3.9-3.7-3.9-6.4c0-2.7,1.5-5.2,4-6.4
		c0.3-0.1,0.6,0,0.7,0.2c0.1,0.3,0,0.6-0.2,0.7c-2.1,1-3.4,3.1-3.4,5.4c0,2.3,1.3,4.4,3.3,5.4c0.3,0.1,0.4,0.5,0.2,0.7
		C-350.3,156.6-350.5,156.7-350.7,156.7"/>
	<path id="XMLID_6858_" class="st1" d="M-363.7,139.2c-0.3,0-0.6-0.2-0.6-0.6v-4.4c0-0.3,0.2-0.6,0.6-0.6h4.4c0.3,0,0.6,0.2,0.6,0.6
		s-0.2,0.6-0.6,0.6h-3.9v3.9C-363.1,139-363.4,139.2-363.7,139.2"/>
	<path id="XMLID_6857_" class="st1" d="M-331.7,139.2c-0.3,0-0.6-0.2-0.6-0.6v-3.9h-3.9c-0.3,0-0.6-0.2-0.6-0.6s0.2-0.6,0.6-0.6h4.4
		c0.3,0,0.6,0.2,0.6,0.6v4.4C-331.1,139-331.4,139.2-331.7,139.2"/>
	<path id="XMLID_6805_" class="st1" d="M-331.7,166.8h-4.4c-0.3,0-0.6-0.2-0.6-0.6c0-0.3,0.2-0.6,0.6-0.6h3.9v-3.9
		c0-0.3,0.2-0.6,0.6-0.6s0.6,0.2,0.6,0.6v4.4C-331.1,166.6-331.4,166.8-331.7,166.8"/>
	<path id="XMLID_6804_" class="st1" d="M-359.3,166.8h-4.4c-0.3,0-0.6-0.2-0.6-0.6v-4.4c0-0.3,0.2-0.6,0.6-0.6s0.6,0.2,0.6,0.6v3.9
		h3.9c0.3,0,0.6,0.2,0.6,0.6C-358.7,166.6-359,166.8-359.3,166.8"/>
	<path id="XMLID_6803_" class="st1" d="M-347.7,153c-0.3,0-0.6-0.2-0.6-0.6v-3.3c0-0.3,0.2-0.6,0.6-0.6s0.6,0.2,0.6,0.6v3.3
		C-347.1,152.8-347.4,153-347.7,153"/>
	<path id="XMLID_6802_" class="st1" d="M-346,151.4h-3.3c-0.3,0-0.6-0.2-0.6-0.6s0.2-0.6,0.6-0.6h3.3c0.3,0,0.6,0.2,0.6,0.6
		S-345.7,151.4-346,151.4"/>
</g>
</svg>
