<?xml version="1.0" encoding="utf-8"?>
<!-- Generator: Adobe Illustrator 19.0.0, SVG Export Plug-In . SVG Version: 6.00 Build 0)  -->
<svg version="1.1" id="Layer_1" xmlns="http://www.w3.org/2000/svg" xmlns:xlink="http://www.w3.org/1999/xlink" x="0px" y="0px"
	 viewBox="-399 101 100 100" style="enable-background:new -399 101 100 100;" xml:space="preserve">
<style type="text/css">
	.st0{fill:none;stroke:#A7A9AC;stroke-width:2;stroke-miterlimit:10;stroke-dasharray:6.3;}
	.st1{clip-path:url(#XMLID_2_);fill:#808285;}
	.st2{fill:#2EA1DA;}
</style>
<circle id="XMLID_2263_" class="st0" cx="-348.9" cy="151.7" r="35.2"/>
<g id="XMLID_2253_">
	<defs>
		<rect id="XMLID_2254_" x="-361" y="130.3" width="29.5" height="44.7"/>
	</defs>
	<clipPath id="XMLID_2_">
		<use xlink:href="#XMLID_2254_"  style="overflow:visible;"/>
	</clipPath>
	<path id="XMLID_2256_" class="st1" d="M-331.8,135.1c-0.1-0.1-0.3-0.1-0.4,0c0,0-3.1,1.5-7.6,1.5c-2.4,0-3.8-1-4.3-1.3v-2.1
		c0-0.1,0-0.8-0.6-1.5c-0.7-0.9-2-1.3-3.8-1.3c-4.6,0-8.2,1.5-9.6,2.1c-0.1-0.1-0.2-0.1-0.3-0.1h-2.1c-0.3,0-0.5,0.2-0.5,0.5v41.8
		c0,0.3,0.2,0.5,0.5,0.5h2.1c0.3,0,0.5-0.2,0.5-0.5v-24.7c1.1-0.5,5.4-2.2,9.5-2.2c0.1,0,0.2,0,0.3,0v5c0,0,0,0,0,0.1l0,0
		c0,0,0,0.1,0,0.1l0,0c0,0,0,0,0,0.1c0,0,0,0,0,0c0,0,0,0,0,0.1c0,0,0,0,0,0c0,0,0,0,0,0l0,0c0,0,0,0,0,0c0,0,0,0,0,0c0,0,0,0,0,0
		c0.1,0.1,3.3,1.6,8.1,1.6c6.4,0,8.1-1.6,8.2-1.7c0.1-0.1,0.1-0.2,0.1-0.3v-17.3C-331.6,135.3-331.7,135.2-331.8,135.1L-331.8,135.1
		z M-360.1,174.1v-24h1.2v24H-360.1z M-345.1,149.6C-345.1,149.6-345.1,149.7-345.1,149.6C-345.1,149.7-345.1,149.7-345.1,149.6
		c0,0.1,0,0.1,0,0.1l0,0c0,0,0,0,0,0c0,0,0.1,0.7-1.1,1.7c-0.4,0.3-0.8,0.6-1.1,0.7v-4.3C-345.1,148.2-345.1,149.5-345.1,149.6
		L-345.1,149.6z M-332.5,152.5c-0.5,0.3-2.4,1.3-7.4,1.3c-3,0-5.3-0.6-6.6-1.1c0.3-0.2,0.6-0.4,0.9-0.6c1.5-1.3,1.5-2.3,1.4-2.6
		v-9.4c0-0.3-0.2-0.5-0.5-0.5c-0.3,0-0.5,0.2-0.5,0.5v7.6c-0.8-0.7-1.9-1-3.5-1c-3.9,0-7.9,1.5-9.5,2.1v-12c0-0.3-0.2-0.5-0.5-0.5
		c-0.3,0-0.5,0.2-0.5,0.5v12.3h-1.2v-15.9h1.2v0.9c0,0.3,0.2,0.5,0.5,0.5c0.3,0,0.5-0.2,0.5-0.5v-0.7c1-0.5,4.7-2.2,9.5-2.2
		c3.4,0,3.5,1.8,3.5,1.9v3.9c0,0.3,0.2,0.5,0.5,0.5c0.3,0,0.5-0.2,0.5-0.5v-0.7c0.8,0.5,2.2,1.1,4.3,1.1c3.6,0,6.2-0.9,7.4-1.3
		V152.5z M-332.5,152.5"/>
</g>
<path id="XMLID_6906_" class="st2" d="M-348.5,114c-20.7,0-37.5,16.8-37.5,37.5s16.8,37.5,37.5,37.5s37.5-16.8,37.5-37.5
	S-327.8,114-348.5,114z M-348.5,184.9c-18.4,0-33.4-14.9-33.4-33.4s14.9-33.4,33.4-33.4s33.4,14.9,33.4,33.4
	S-330.1,184.9-348.5,184.9z"/>
</svg>
