<?xml version="1.0" encoding="utf-8"?>
<!-- Generator: Adobe Illustrator 19.0.0, SVG Export Plug-In . SVG Version: 6.00 Build 0)  -->
<svg version="1.1" baseProfile="basic" id="Layer_1"
	 xmlns="http://www.w3.org/2000/svg" xmlns:xlink="http://www.w3.org/1999/xlink" x="0px" y="0px" viewBox="0 0 47 48"
	 xml:space="preserve">
<style type="text/css">
	.st0{fill:none;stroke:#2EA1DA;stroke-miterlimit:10;}
	.st1{fill:#2EA1DA;}
</style>
<g id="XMLID_2768_">
	<circle id="XMLID_2789_" class="st0" cx="23.3" cy="24" r="21.8"/>
	<g id="XMLID_2769_">
		<path id="XMLID_68_" class="st1" d="M13.8,20.2c2.5,0,4.5-2,4.5-4.5c0-2.5-2-4.5-4.5-4.5c-2.5,0-4.5,2-4.5,4.5
			C9.3,18.2,11.3,20.2,13.8,20.2L13.8,20.2z M13.8,12.9c1.6,0,2.9,1.3,2.9,2.9c0,1.6-1.3,2.9-2.9,2.9s-2.9-1.3-2.9-2.9
			C10.9,14.2,12.2,12.9,13.8,12.9L13.8,12.9z M13.8,12.9"/>
		<path id="XMLID_57_" class="st1" d="M6.6,34.5c0.2,0,0.4-0.1,0.5-0.2l13.1-11.5l8.2,8.2c0.3,0.3,0.8,0.3,1.1,0
			c0.3-0.3,0.3-0.8,0-1.1l-3.8-3.8l7.3-8l9,8.3c0.3,0.3,0.8,0.3,1.1,0c0.3-0.3,0.3-0.8-0.1-1.1l-9.6-8.8c-0.2-0.1-0.4-0.2-0.6-0.2
			c-0.2,0-0.4,0.1-0.6,0.3L24.6,25l-3.8-3.8c-0.3-0.3-0.8-0.3-1.1,0l-13.6,12c-0.3,0.3-0.4,0.8-0.1,1.1C6.1,34.4,6.4,34.5,6.6,34.5
			L6.6,34.5z M6.6,34.5"/>
	</g>
</g>
</svg>
