<?xml version="1.0" encoding="utf-8"?>
<!-- Generator: Adobe Illustrator 19.0.0, SVG Export Plug-In . SVG Version: 6.00 Build 0)  -->
<svg version="1.1" id="Layer_1" xmlns="http://www.w3.org/2000/svg" xmlns:xlink="http://www.w3.org/1999/xlink" x="0px" y="0px"
	 viewBox="0 0 530 122" style="enable-background:new 0 0 530 122;" xml:space="preserve">
<style type="text/css">
	.st0{fill:#2EA1DA;}
	.st1{opacity:0.3;}
	.st2{fill:#231F20;}
</style>
<g id="XMLID_1_">
	<g id="XMLID_188_">
		<path id="XMLID_208_" class="st0" d="M40.1,11.5l35,75.1h-8.1L55.2,61.9H22.9L11.2,86.6H2.8l35.5-75.1H40.1z M39.2,27.4L26.3,54.6
			H52L39.2,27.4z"/>
		<path id="XMLID_205_" class="st0" d="M140.2,9.6v77h-7v-9.6c-3,3.6-6.4,6.4-10.1,8.2c-3.7,1.8-7.8,2.8-12.2,2.8
			c-7.9,0-14.6-2.9-20.1-8.6c-5.6-5.7-8.4-12.6-8.4-20.8c0-8,2.8-14.8,8.4-20.5c5.6-5.7,12.4-8.5,20.3-8.5c4.6,0,8.7,1,12.4,2.9
			c3.7,1.9,6.9,4.9,9.7,8.7V9.6H140.2z M111.6,36.5c-4,0-7.7,1-11,2.9c-3.4,2-6,4.7-8,8.2c-2,3.5-3,7.3-3,11.2c0,3.9,1,7.7,3,11.2
			c2,3.6,4.7,6.4,8.1,8.3c3.4,2,7,3,10.9,3c3.9,0,7.6-1,11.1-3s6.2-4.6,8.1-8c1.9-3.4,2.8-7.2,2.8-11.4c0-6.4-2.1-11.8-6.4-16.1
			C123,38.7,117.8,36.5,111.6,36.5z"/>
		<path id="XMLID_203_" class="st0" d="M150.1,31h7.6l18.7,40.5L194.8,31h7.7l-25.4,55.6h-1.3L150.1,31z"/>
		<path id="XMLID_200_" class="st0" d="M259.2,68.2l6,3.2c-2,3.9-4.3,7-6.9,9.4c-2.6,2.4-5.5,4.2-8.7,5.4c-3.2,1.2-6.9,1.9-11,1.9
			c-9.1,0-16.2-3-21.3-8.9c-5.1-5.9-7.7-12.7-7.7-20.1c0-7,2.2-13.3,6.5-18.8c5.5-7,12.8-10.5,22-10.5c9.5,0,17,3.6,22.7,10.8
			c4,5.1,6.1,11.4,6.1,19h-50c0.1,6.5,2.2,11.7,6.2,15.9c4,4.1,8.9,6.2,14.8,6.2c2.8,0,5.6-0.5,8.3-1.5c2.7-1,5-2.3,6.8-3.9
			S257,71.8,259.2,68.2z M259.2,53.2c-1-3.8-2.3-6.9-4.2-9.1c-1.8-2.3-4.2-4.1-7.2-5.5c-3-1.4-6.2-2.1-9.5-2.1
			c-5.5,0-10.1,1.8-14.1,5.3c-2.9,2.6-5,6.4-6.5,11.5H259.2z"/>
		<path id="XMLID_198_" class="st0" d="M279.5,31h7.2v10c2.9-3.8,6-6.7,9.5-8.6c3.5-1.9,7.3-2.8,11.3-2.8c4.2,0,7.8,1.1,11.1,3.2
			s5.6,5,7.1,8.5c1.5,3.6,2.3,9.1,2.3,16.7v28.6h-7.1V60.1c0-6.4-0.3-10.7-0.8-12.8c-0.8-3.7-2.4-6.4-4.8-8.3
			c-2.3-1.9-5.4-2.8-9.2-2.8c-4.3,0-8.2,1.4-11.6,4.3c-3.4,2.9-5.7,6.4-6.8,10.6c-0.7,2.8-1,7.8-1,15.1v20.4h-7.2V31z"/>
		<path id="XMLID_196_" class="st0" d="M348.5,10.4h7.2V31H367v6.2h-11.3v49.4h-7.2V37.2h-9.8V31h9.8V10.4z"/>
		<path id="XMLID_194_" class="st0" d="M375.9,31h7.1V57c0,6.3,0.3,10.7,1,13.1c1,3.4,3,6.1,5.9,8.1c2.9,2,6.3,3,10.3,3
			c4,0,7.4-1,10.2-2.9c2.8-1.9,4.7-4.5,5.8-7.6c0.7-2.1,1.1-6.7,1.1-13.6V31h7.3v27.3c0,7.7-0.9,13.4-2.7,17.3
			c-1.8,3.9-4.5,6.9-8.1,9.1s-8.1,3.3-13.5,3.3s-9.9-1.1-13.6-3.3c-3.6-2.2-6.3-5.3-8.1-9.2s-2.7-9.8-2.7-17.7V31z"/>
		<path id="XMLID_192_" class="st0" d="M436.8,31h7.3v8.1c2.2-3.2,4.5-5.6,6.9-7.2s4.9-2.4,7.6-2.4c2,0,4.1,0.6,6.3,1.9l-3.7,6
			c-1.5-0.6-2.8-1-3.8-1c-2.4,0-4.7,1-6.9,2.9c-2.2,2-3.9,5-5.1,9.1c-0.9,3.2-1.3,9.6-1.3,19.2v18.8h-7.3V31z"/>
		<path id="XMLID_189_" class="st0" d="M516.8,68.2l6,3.2c-2,3.9-4.3,7-6.9,9.4c-2.6,2.4-5.5,4.2-8.7,5.4c-3.2,1.2-6.9,1.9-11,1.9
			c-9.1,0-16.2-3-21.3-8.9c-5.1-5.9-7.7-12.7-7.7-20.1c0-7,2.2-13.3,6.5-18.8c5.5-7,12.8-10.5,22-10.5c9.5,0,17,3.6,22.7,10.8
			c4,5.1,6.1,11.4,6.1,19h-50c0.1,6.5,2.2,11.7,6.2,15.9c4,4.1,8.9,6.2,14.8,6.2c2.8,0,5.6-0.5,8.3-1.5c2.7-1,5-2.3,6.8-3.9
			S514.6,71.8,516.8,68.2z M516.8,53.2c-1-3.8-2.3-6.9-4.2-9.1s-4.2-4.1-7.2-5.5c-3-1.4-6.2-2.1-9.5-2.1c-5.5,0-10.1,1.8-14.1,5.3
			c-2.9,2.6-5,6.4-6.5,11.5H516.8z"/>
	</g>
</g>
<g id="XMLID_12_" class="st1">
	<path id="XMLID_15_" class="st2" d="M228.9,109.3c0,1.4-0.2,2.7-0.5,3.9c-0.3,1.2-0.8,2.2-1.5,3c-0.7,0.8-1.5,1.5-2.5,1.9
		c-1,0.5-2.1,0.7-3.4,0.7c-1.4,0-2.5-0.2-3.6-0.7c-1-0.5-1.8-1.1-2.5-1.9c-0.7-0.8-1.1-1.8-1.5-3c-0.3-1.2-0.5-2.5-0.5-3.9
		s0.2-2.7,0.5-3.9s0.8-2.2,1.5-3s1.5-1.5,2.5-1.9s2.2-0.7,3.6-0.7c1.3,0,2.4,0.2,3.4,0.7s1.8,1.1,2.5,1.9s1.2,1.8,1.5,3
		C228.8,106.5,228.9,107.8,228.9,109.3z M215.5,109.3c0,1.1,0.1,2.2,0.3,3.1c0.2,0.9,0.6,1.7,1,2.3s1,1.1,1.7,1.5
		c0.7,0.3,1.5,0.5,2.5,0.5s1.8-0.2,2.5-0.5c0.7-0.3,1.3-0.8,1.7-1.5s0.8-1.4,1-2.3c0.2-0.9,0.3-2,0.3-3.1c0-1.2-0.1-2.2-0.3-3.1
		s-0.5-1.7-1-2.3c-0.4-0.6-1-1.1-1.7-1.5c-0.7-0.3-1.5-0.5-2.5-0.5s-1.8,0.2-2.5,0.5c-0.7,0.3-1.3,0.8-1.7,1.5
		c-0.5,0.6-0.8,1.4-1,2.3S215.5,108.1,215.5,109.3z"/>
	<path id="XMLID_28_" class="st2" d="M241.3,118.5v-8.9c0-1.1-0.2-1.9-0.7-2.5s-1.1-0.8-2.1-0.8c-0.7,0-1.2,0.1-1.7,0.3
		c-0.5,0.2-0.8,0.5-1.1,1c-0.3,0.4-0.5,1-0.6,1.6c-0.1,0.6-0.2,1.3-0.2,2.1v7.2h-2.3v-13.8h1.9l0.3,1.9h0.1c0.2-0.4,0.5-0.7,0.7-0.9
		c0.3-0.3,0.6-0.5,0.9-0.7c0.3-0.2,0.7-0.3,1.1-0.4s0.8-0.1,1.2-0.1c1.5,0,2.7,0.4,3.5,1.2c0.8,0.8,1.2,2.1,1.2,3.8v9H241.3z"/>
	<path id="XMLID_30_" class="st2" d="M250.2,118.5h-2.3V98.9h2.3V118.5z"/>
	<path id="XMLID_32_" class="st2" d="M254.4,100.9c0-0.5,0.1-0.9,0.4-1.1c0.3-0.2,0.6-0.3,0.9-0.3c0.2,0,0.4,0,0.5,0.1
		c0.2,0.1,0.3,0.1,0.4,0.3c0.1,0.1,0.2,0.3,0.3,0.4c0.1,0.2,0.1,0.4,0.1,0.6c0,0.5-0.1,0.8-0.4,1.1c-0.3,0.2-0.6,0.4-0.9,0.4
		c-0.4,0-0.7-0.1-0.9-0.4C254.5,101.8,254.4,101.4,254.4,100.9z M256.8,118.5h-2.3v-13.8h2.3V118.5z"/>
	<path id="XMLID_35_" class="st2" d="M269.8,118.5v-8.9c0-1.1-0.2-1.9-0.7-2.5s-1.1-0.8-2.1-0.8c-0.7,0-1.2,0.1-1.7,0.3
		c-0.5,0.2-0.8,0.5-1.1,1c-0.3,0.4-0.5,1-0.6,1.6c-0.1,0.6-0.2,1.3-0.2,2.1v7.2h-2.3v-13.8h1.9l0.3,1.9h0.1c0.2-0.4,0.5-0.7,0.7-0.9
		c0.3-0.3,0.6-0.5,0.9-0.7c0.3-0.2,0.7-0.3,1.1-0.4c0.4-0.1,0.8-0.1,1.2-0.1c1.5,0,2.7,0.4,3.5,1.2c0.8,0.8,1.2,2.1,1.2,3.8v9H269.8
		z"/>
	<path id="XMLID_37_" class="st2" d="M281.8,118.7c-0.9,0-1.8-0.2-2.5-0.5c-0.8-0.3-1.4-0.8-2-1.4c-0.5-0.6-1-1.3-1.3-2.2
		c-0.3-0.9-0.5-1.9-0.5-3c0-1.1,0.1-2.2,0.4-3.1c0.3-0.9,0.7-1.7,1.2-2.3c0.5-0.6,1.1-1.1,1.8-1.4c0.7-0.3,1.5-0.5,2.3-0.5
		c0.8,0,1.6,0.1,2.2,0.4c0.7,0.3,1.2,0.7,1.7,1.3s0.8,1.2,1.1,1.9c0.2,0.8,0.4,1.6,0.4,2.5v1.4h-8.7c0,1.6,0.4,2.8,1,3.6
		c0.6,0.8,1.6,1.1,2.9,1.1c0.4,0,0.8,0,1.2-0.1c0.4,0,0.7-0.1,1.1-0.2c0.3-0.1,0.7-0.2,1-0.3c0.3-0.1,0.6-0.3,1-0.4v2
		c-0.3,0.2-0.7,0.3-1,0.4s-0.7,0.2-1,0.3c-0.3,0.1-0.7,0.1-1.1,0.2S282.2,118.7,281.8,118.7z M281.2,106.3c-1,0-1.7,0.3-2.3,1
		s-0.9,1.6-1,2.9h6.2c0-0.6-0.1-1.1-0.2-1.6c-0.1-0.5-0.3-0.9-0.5-1.2c-0.2-0.3-0.5-0.6-0.9-0.8
		C282.2,106.4,281.8,106.3,281.2,106.3z"/>
	<path id="XMLID_40_" class="st2" d="M307.9,118.5l-2-5.7H299l-2,5.7h-2.4l6.7-18.4h2.1l6.8,18.4H307.9z M305.1,110.7l-1.9-5.3
		c-0.1-0.2-0.1-0.3-0.2-0.6s-0.1-0.5-0.2-0.7c-0.1-0.3-0.2-0.5-0.2-0.8c-0.1-0.3-0.1-0.5-0.2-0.8c-0.1,0.3-0.1,0.5-0.2,0.8
		c-0.1,0.3-0.2,0.5-0.2,0.8c-0.1,0.3-0.1,0.5-0.2,0.7c-0.1,0.2-0.1,0.4-0.2,0.5l-1.8,5.3H305.1z"/>
	<path id="XMLID_43_" class="st2" d="M321,116.6h-0.1c-0.2,0.3-0.4,0.6-0.6,0.8c-0.2,0.3-0.5,0.5-0.9,0.7s-0.7,0.3-1.1,0.5
		c-0.4,0.1-0.9,0.2-1.4,0.2c-0.8,0-1.5-0.2-2.1-0.5s-1.2-0.8-1.7-1.4c-0.5-0.6-0.8-1.3-1.1-2.2c-0.3-0.9-0.4-1.9-0.4-3.1
		c0-1.2,0.1-2.2,0.4-3.1c0.3-0.9,0.6-1.6,1.1-2.2c0.5-0.6,1-1.1,1.7-1.4s1.4-0.5,2.1-0.5c0.5,0,0.9,0.1,1.3,0.2
		c0.4,0.1,0.8,0.3,1.1,0.4s0.6,0.4,0.9,0.6c0.3,0.2,0.5,0.5,0.7,0.8h0.2c0-0.3,0-0.6-0.1-0.8c0-0.2,0-0.4-0.1-0.7c0-0.2,0-0.4,0-0.5
		v-5.5h2.3v19.6h-1.8L321,116.6z M317.4,116.8c0.6,0,1.2-0.1,1.6-0.3c0.4-0.2,0.8-0.5,1.1-0.9c0.3-0.4,0.5-0.9,0.6-1.5
		c0.1-0.6,0.2-1.3,0.2-2.1v-0.5c0-0.8-0.1-1.6-0.2-2.3c-0.1-0.7-0.3-1.2-0.6-1.7c-0.3-0.4-0.6-0.8-1.1-1c-0.5-0.2-1-0.3-1.7-0.3
		c-1.1,0-2,0.5-2.5,1.4c-0.5,0.9-0.8,2.2-0.8,3.9c0,1.8,0.3,3.1,0.8,3.9C315.4,116.4,316.2,116.8,317.4,116.8z"/>
	<path id="XMLID_46_" class="st2" d="M330.1,118.5l-4.7-13.8h2.4l2.5,7.7c0.1,0.3,0.2,0.6,0.3,1.1c0.1,0.4,0.3,0.9,0.4,1.3
		c0.1,0.5,0.2,0.9,0.3,1.3c0.1,0.4,0.2,0.7,0.2,0.9h0.1c0-0.2,0.1-0.5,0.2-0.9c0.1-0.4,0.2-0.8,0.3-1.3c0.1-0.5,0.3-0.9,0.4-1.3
		c0.1-0.4,0.2-0.8,0.3-1.1l2.5-7.7h2.4l-4.7,13.8H330.1z"/>
	<path id="XMLID_48_" class="st2" d="M345.3,118.7c-0.9,0-1.8-0.2-2.5-0.5c-0.8-0.3-1.4-0.8-2-1.4c-0.5-0.6-1-1.3-1.3-2.2
		c-0.3-0.9-0.5-1.9-0.5-3c0-1.1,0.1-2.2,0.4-3.1c0.3-0.9,0.7-1.7,1.2-2.3c0.5-0.6,1.1-1.1,1.8-1.4c0.7-0.3,1.5-0.5,2.3-0.5
		c0.8,0,1.6,0.1,2.2,0.4c0.7,0.3,1.2,0.7,1.7,1.3s0.8,1.2,1.1,1.9c0.2,0.8,0.4,1.6,0.4,2.5v1.4h-8.7c0,1.6,0.4,2.8,1,3.6
		c0.6,0.8,1.6,1.1,2.9,1.1c0.4,0,0.8,0,1.2-0.1c0.4,0,0.7-0.1,1.1-0.2c0.3-0.1,0.7-0.2,1-0.3c0.3-0.1,0.6-0.3,1-0.4v2
		c-0.3,0.2-0.7,0.3-1,0.4s-0.7,0.2-1,0.3c-0.3,0.1-0.7,0.1-1.1,0.2S345.7,118.7,345.3,118.7z M344.7,106.3c-1,0-1.7,0.3-2.3,1
		s-0.9,1.6-1,2.9h6.2c0-0.6-0.1-1.1-0.2-1.6c-0.1-0.5-0.3-0.9-0.5-1.2c-0.2-0.3-0.5-0.6-0.9-0.8
		C345.7,106.4,345.3,106.3,344.7,106.3z"/>
	<path id="XMLID_51_" class="st2" d="M359.6,104.4c0.2,0,0.5,0,0.8,0c0.3,0,0.6,0.1,0.8,0.1l-0.3,2.1c-0.2,0-0.5-0.1-0.7-0.1
		c-0.2,0-0.5,0-0.7,0c-0.5,0-1,0.1-1.4,0.3c-0.4,0.2-0.8,0.5-1.1,0.9c-0.3,0.4-0.6,0.9-0.7,1.4c-0.2,0.6-0.3,1.2-0.3,1.9v7.4h-2.3
		v-13.8h1.9l0.3,2.5h0.1c0.2-0.4,0.4-0.7,0.7-1c0.2-0.3,0.5-0.6,0.8-0.9s0.6-0.5,1-0.6C358.7,104.5,359.1,104.4,359.6,104.4z"/>
	<path id="XMLID_53_" class="st2" d="M368.1,116.8c0.2,0,0.3,0,0.5,0c0.2,0,0.4,0,0.5-0.1s0.3-0.1,0.5-0.1s0.3-0.1,0.3-0.1v1.7
		c-0.1,0-0.2,0.1-0.4,0.2s-0.4,0.1-0.6,0.1c-0.2,0-0.4,0.1-0.6,0.1c-0.2,0-0.4,0-0.6,0c-0.5,0-1-0.1-1.4-0.2
		c-0.4-0.1-0.8-0.4-1.1-0.7c-0.3-0.3-0.6-0.8-0.8-1.3c-0.2-0.6-0.3-1.3-0.3-2.1v-8h-1.9v-1l1.9-1l1-2.9h1.3v3.2h3.5v1.7h-3.5v8
		c0,0.8,0.1,1.4,0.4,1.8C367,116.6,367.5,116.8,368.1,116.8z"/>
	<path id="XMLID_55_" class="st2" d="M372.4,100.9c0-0.5,0.1-0.9,0.4-1.1c0.3-0.2,0.6-0.3,0.9-0.3c0.2,0,0.4,0,0.5,0.1
		c0.2,0.1,0.3,0.1,0.4,0.3c0.1,0.1,0.2,0.3,0.3,0.4c0.1,0.2,0.1,0.4,0.1,0.6c0,0.5-0.1,0.8-0.4,1.1c-0.3,0.2-0.6,0.4-0.9,0.4
		c-0.4,0-0.7-0.1-0.9-0.4C372.6,101.8,372.4,101.4,372.4,100.9z M374.9,118.5h-2.3v-13.8h2.3V118.5z"/>
	<path id="XMLID_58_" class="st2" d="M387.5,114.7c0,0.7-0.1,1.3-0.4,1.8s-0.6,0.9-1,1.3c-0.5,0.3-1,0.6-1.7,0.8s-1.4,0.3-2.2,0.3
		c-0.9,0-1.7-0.1-2.3-0.2c-0.7-0.1-1.2-0.4-1.7-0.6v-2.1c0.3,0.1,0.5,0.3,0.9,0.4s0.7,0.2,1,0.3s0.7,0.2,1.1,0.2
		c0.4,0.1,0.7,0.1,1.1,0.1c0.5,0,1,0,1.4-0.1c0.4-0.1,0.7-0.2,0.9-0.4s0.4-0.4,0.5-0.6s0.2-0.5,0.2-0.8c0-0.3,0-0.5-0.1-0.7
		c-0.1-0.2-0.2-0.4-0.5-0.6c-0.2-0.2-0.5-0.4-0.9-0.6c-0.4-0.2-0.9-0.4-1.5-0.7s-1.1-0.5-1.6-0.8c-0.5-0.3-0.9-0.5-1.2-0.8
		c-0.3-0.3-0.6-0.7-0.8-1.1s-0.3-0.9-0.3-1.5c0-0.6,0.1-1.1,0.3-1.6s0.6-0.8,1-1.2c0.4-0.3,0.9-0.5,1.5-0.7s1.2-0.2,2-0.2
		c0.8,0,1.6,0.1,2.2,0.3c0.7,0.2,1.3,0.4,1.9,0.7l-0.8,1.8c-0.5-0.2-1.1-0.5-1.7-0.6c-0.6-0.2-1.2-0.3-1.8-0.3
		c-0.9,0-1.5,0.1-1.9,0.4c-0.4,0.3-0.6,0.7-0.6,1.2c0,0.3,0,0.5,0.1,0.8c0.1,0.2,0.3,0.4,0.5,0.6c0.2,0.2,0.5,0.4,0.9,0.6
		c0.4,0.2,0.9,0.4,1.5,0.7c0.6,0.3,1.1,0.5,1.6,0.8s0.9,0.5,1.2,0.8c0.3,0.3,0.6,0.7,0.8,1.1S387.5,114.1,387.5,114.7z"/>
	<path id="XMLID_60_" class="st2" d="M390.7,100.9c0-0.5,0.1-0.9,0.4-1.1c0.3-0.2,0.6-0.3,0.9-0.3c0.2,0,0.4,0,0.5,0.1
		c0.2,0.1,0.3,0.1,0.4,0.3c0.1,0.1,0.2,0.3,0.3,0.4c0.1,0.2,0.1,0.4,0.1,0.6c0,0.5-0.1,0.8-0.4,1.1c-0.3,0.2-0.6,0.4-0.9,0.4
		c-0.4,0-0.7-0.1-0.9-0.4C390.8,101.8,390.7,101.4,390.7,100.9z M393.2,118.5h-2.3v-13.8h2.3V118.5z"/>
	<path id="XMLID_63_" class="st2" d="M406.2,118.5v-8.9c0-1.1-0.2-1.9-0.7-2.5s-1.1-0.8-2.1-0.8c-0.7,0-1.2,0.1-1.7,0.3
		c-0.5,0.2-0.8,0.5-1.1,1c-0.3,0.4-0.5,1-0.6,1.6c-0.1,0.6-0.2,1.3-0.2,2.1v7.2h-2.3v-13.8h1.9l0.3,1.9h0.1c0.2-0.4,0.5-0.7,0.7-0.9
		c0.3-0.3,0.6-0.5,0.9-0.7c0.3-0.2,0.7-0.3,1.1-0.4c0.4-0.1,0.8-0.1,1.2-0.1c1.5,0,2.7,0.4,3.5,1.2c0.8,0.8,1.2,2.1,1.2,3.8v9H406.2
		z"/>
	<path id="XMLID_65_" class="st2" d="M423.3,104.7v1.4l-2.5,0.3c0.2,0.3,0.4,0.7,0.6,1.1c0.2,0.5,0.2,1,0.2,1.6
		c0,0.6-0.1,1.2-0.3,1.8c-0.2,0.5-0.5,1-0.9,1.4c-0.4,0.4-0.9,0.7-1.5,0.9c-0.6,0.2-1.3,0.3-2,0.3c-0.2,0-0.4,0-0.6,0
		c-0.2,0-0.3,0-0.5,0c-0.1,0.1-0.3,0.2-0.4,0.3s-0.3,0.2-0.4,0.4c-0.1,0.1-0.2,0.3-0.3,0.5c-0.1,0.2-0.1,0.4-0.1,0.6
		c0,0.2,0,0.4,0.2,0.5c0.1,0.1,0.2,0.2,0.4,0.3s0.4,0.1,0.6,0.2c0.2,0,0.5,0,0.7,0h2.2c0.8,0,1.4,0.1,2,0.3c0.5,0.2,1,0.5,1.3,0.8
		s0.6,0.7,0.7,1.2c0.2,0.5,0.2,0.9,0.2,1.5c0,0.7-0.1,1.4-0.4,2c-0.3,0.6-0.7,1.1-1.3,1.5s-1.3,0.7-2.1,0.9c-0.9,0.2-1.9,0.3-3,0.3
		c-0.9,0-1.7-0.1-2.3-0.3c-0.7-0.2-1.2-0.4-1.7-0.8c-0.4-0.3-0.8-0.7-1-1.2s-0.3-1-0.3-1.6c0-0.5,0.1-0.9,0.2-1.3
		c0.2-0.4,0.4-0.7,0.7-1c0.3-0.3,0.6-0.5,1-0.7s0.7-0.3,1.1-0.4c-0.4-0.2-0.6-0.4-0.9-0.8s-0.3-0.7-0.3-1.2c0-0.5,0.1-1,0.4-1.3
		s0.7-0.7,1.3-1.1c-0.4-0.2-0.7-0.4-1-0.6c-0.3-0.3-0.5-0.6-0.8-0.9c-0.2-0.3-0.4-0.7-0.5-1.1c-0.1-0.4-0.2-0.8-0.2-1.2
		c0-0.7,0.1-1.4,0.3-2c0.2-0.6,0.5-1.1,0.9-1.5c0.4-0.4,0.9-0.7,1.5-0.9c0.6-0.2,1.3-0.3,2.1-0.3c0.3,0,0.6,0,1,0.1
		c0.3,0,0.6,0.1,0.8,0.2H423.3z M413.1,120.7c0,0.3,0.1,0.6,0.2,0.9c0.1,0.3,0.3,0.5,0.5,0.7c0.2,0.2,0.6,0.3,1,0.5
		c0.4,0.1,0.9,0.2,1.5,0.2c1.6,0,2.7-0.2,3.5-0.7c0.8-0.5,1.2-1.2,1.2-2.1c0-0.4-0.1-0.7-0.2-0.9c-0.1-0.2-0.3-0.4-0.5-0.6
		c-0.2-0.1-0.5-0.2-0.9-0.3c-0.4-0.1-0.8-0.1-1.4-0.1h-2.2c-0.3,0-0.6,0-0.9,0.1c-0.3,0.1-0.6,0.2-0.9,0.4c-0.3,0.2-0.5,0.4-0.7,0.8
		C413.2,119.8,413.1,120.2,413.1,120.7z M414.3,109.1c0,1,0.2,1.7,0.7,2.1c0.5,0.5,1.1,0.7,1.9,0.7c0.8,0,1.5-0.2,1.9-0.7
		s0.6-1.2,0.6-2.2c0-1-0.2-1.8-0.7-2.3c-0.4-0.5-1.1-0.7-1.9-0.7c-0.8,0-1.5,0.3-1.9,0.8C414.5,107.3,414.3,108.1,414.3,109.1z"/>
	<path id="XMLID_69_" class="st2" d="M442.7,113.6c0,0.8-0.1,1.5-0.4,2.2s-0.7,1.2-1.2,1.6c-0.5,0.4-1.2,0.8-2,1
		c-0.8,0.2-1.6,0.3-2.6,0.3c-0.9,0-1.8-0.1-2.6-0.2s-1.5-0.4-2-0.6v-2.2c0.3,0.1,0.6,0.3,1,0.4c0.4,0.1,0.7,0.2,1.2,0.3
		s0.8,0.2,1.2,0.2s0.8,0.1,1.3,0.1c1.3,0,2.3-0.3,3-0.8c0.6-0.5,1-1.2,1-2.2c0-0.5-0.1-0.8-0.2-1.2c-0.1-0.3-0.3-0.6-0.6-0.9
		c-0.3-0.3-0.7-0.6-1.2-0.8c-0.5-0.3-1.2-0.6-1.9-0.9c-0.7-0.3-1.4-0.6-1.9-1c-0.5-0.3-1-0.7-1.4-1.2c-0.4-0.4-0.6-0.9-0.8-1.5
		s-0.3-1.2-0.3-1.9c0-0.7,0.1-1.4,0.4-2c0.3-0.6,0.6-1.1,1.1-1.5c0.5-0.4,1.1-0.7,1.7-0.9c0.7-0.2,1.4-0.3,2.2-0.3
		c1,0,1.9,0.1,2.7,0.3c0.8,0.2,1.5,0.4,2.1,0.7l-0.8,2c-0.5-0.2-1.2-0.5-1.9-0.6c-0.7-0.2-1.4-0.3-2.1-0.3c-1,0-1.8,0.2-2.4,0.7
		c-0.6,0.5-0.8,1.1-0.8,1.9c0,0.5,0.1,0.9,0.2,1.2s0.3,0.7,0.6,0.9s0.7,0.5,1.2,0.8s1.1,0.5,1.8,0.8c0.8,0.3,1.4,0.6,2,0.9
		s1.1,0.7,1.4,1.1c0.4,0.4,0.7,0.9,0.9,1.4C442.6,112.2,442.7,112.8,442.7,113.6z"/>
	<path id="XMLID_71_" class="st2" d="M457.3,111.5c0,1.1-0.1,2.2-0.4,3.1s-0.7,1.6-1.2,2.2c-0.5,0.6-1.2,1.1-1.9,1.4
		s-1.6,0.5-2.5,0.5c-0.9,0-1.7-0.2-2.4-0.5c-0.7-0.3-1.4-0.8-1.9-1.4c-0.5-0.6-0.9-1.4-1.2-2.2s-0.4-1.9-0.4-3.1
		c0-1.1,0.1-2.2,0.4-3s0.7-1.6,1.2-2.2c0.5-0.6,1.2-1.1,1.9-1.4s1.6-0.5,2.5-0.5c0.9,0,1.7,0.2,2.4,0.5c0.7,0.3,1.4,0.8,1.9,1.4
		c0.5,0.6,0.9,1.4,1.2,2.2C457.2,109.4,457.3,110.4,457.3,111.5z M447.7,111.5c0,1.8,0.3,3.1,0.9,4c0.6,0.9,1.5,1.3,2.8,1.3
		s2.2-0.4,2.8-1.3c0.6-0.9,0.8-2.2,0.8-4s-0.3-3.1-0.9-3.9c-0.6-0.9-1.5-1.3-2.8-1.3s-2.2,0.4-2.8,1.3S447.7,109.8,447.7,111.5z"/>
	<path id="XMLID_74_" class="st2" d="M463.2,118.5h-2.3V98.9h2.3V118.5z"/>
	<path id="XMLID_76_" class="st2" d="M476.5,118.5l-0.3-1.8h-0.1c-0.2,0.4-0.5,0.7-0.7,0.9s-0.6,0.5-0.9,0.7
		c-0.3,0.2-0.7,0.3-1.1,0.4c-0.4,0.1-0.8,0.1-1.2,0.1c-0.8,0-1.4-0.1-2-0.3c-0.6-0.2-1.1-0.5-1.4-0.9s-0.7-0.9-0.9-1.6
		c-0.2-0.6-0.3-1.4-0.3-2.3v-9h2.3v8.9c0,1.1,0.2,1.9,0.7,2.5c0.4,0.5,1.1,0.8,2.1,0.8c0.7,0,1.2-0.1,1.7-0.3c0.5-0.2,0.8-0.5,1.1-1
		c0.3-0.4,0.5-0.9,0.6-1.6c0.1-0.6,0.2-1.3,0.2-2.1v-7.2h2.3v13.8H476.5z"/>
	<path id="XMLID_78_" class="st2" d="M486.9,116.8c0.2,0,0.3,0,0.5,0c0.2,0,0.4,0,0.5-0.1s0.3-0.1,0.5-0.1s0.3-0.1,0.3-0.1v1.7
		c-0.1,0-0.2,0.1-0.4,0.2c-0.2,0-0.4,0.1-0.6,0.1c-0.2,0-0.4,0.1-0.6,0.1c-0.2,0-0.4,0-0.6,0c-0.5,0-1-0.1-1.4-0.2
		c-0.4-0.1-0.8-0.4-1.2-0.7c-0.3-0.3-0.6-0.8-0.8-1.3c-0.2-0.6-0.3-1.3-0.3-2.1v-8H481v-1l1.9-1l1-2.9h1.3v3.2h3.5v1.7h-3.5v8
		c0,0.8,0.1,1.4,0.4,1.8C485.9,116.6,486.3,116.8,486.9,116.8z"/>
	<path id="XMLID_80_" class="st2" d="M491.3,100.9c0-0.5,0.1-0.9,0.4-1.1c0.3-0.2,0.6-0.3,0.9-0.3c0.2,0,0.4,0,0.5,0.1
		c0.2,0.1,0.3,0.1,0.4,0.3c0.1,0.1,0.2,0.3,0.3,0.4c0.1,0.2,0.1,0.4,0.1,0.6c0,0.5-0.1,0.8-0.4,1.1c-0.3,0.2-0.6,0.4-0.9,0.4
		c-0.4,0-0.7-0.1-0.9-0.4C491.4,101.8,491.3,101.4,491.3,100.9z M493.8,118.5h-2.3v-13.8h2.3V118.5z"/>
	<path id="XMLID_83_" class="st2" d="M509.4,111.5c0,1.1-0.1,2.2-0.4,3.1s-0.7,1.6-1.2,2.2c-0.5,0.6-1.2,1.1-1.9,1.4
		s-1.6,0.5-2.5,0.5c-0.9,0-1.7-0.2-2.4-0.5c-0.7-0.3-1.4-0.8-1.9-1.4c-0.5-0.6-0.9-1.4-1.2-2.2s-0.4-1.9-0.4-3.1
		c0-1.1,0.1-2.2,0.4-3s0.7-1.6,1.2-2.2c0.5-0.6,1.2-1.1,1.9-1.4s1.6-0.5,2.5-0.5c0.9,0,1.7,0.2,2.4,0.5c0.7,0.3,1.4,0.8,1.9,1.4
		c0.5,0.6,0.9,1.4,1.2,2.2C509.2,109.4,509.4,110.4,509.4,111.5z M499.7,111.5c0,1.8,0.3,3.1,0.9,4c0.6,0.9,1.5,1.3,2.8,1.3
		s2.2-0.4,2.8-1.3c0.6-0.9,0.8-2.2,0.8-4s-0.3-3.1-0.9-3.9c-0.6-0.9-1.5-1.3-2.8-1.3s-2.2,0.4-2.8,1.3S499.7,109.8,499.7,111.5z"/>
	<path id="XMLID_86_" class="st2" d="M521.6,118.5v-8.9c0-1.1-0.2-1.9-0.7-2.5s-1.1-0.8-2.1-0.8c-0.7,0-1.2,0.1-1.7,0.3
		s-0.8,0.5-1.1,1c-0.3,0.4-0.5,1-0.6,1.6c-0.1,0.6-0.2,1.3-0.2,2.1v7.2H513v-13.8h1.9l0.3,1.9h0.1c0.2-0.4,0.5-0.7,0.7-0.9
		c0.3-0.3,0.6-0.5,0.9-0.7s0.7-0.3,1.1-0.4c0.4-0.1,0.8-0.1,1.2-0.1c1.5,0,2.7,0.4,3.5,1.2c0.8,0.8,1.2,2.1,1.2,3.8v9H521.6z"/>
</g>
</svg>
