<?xml version="1.0" encoding="utf-8"?>
<!-- Generator: Adobe Illustrator 19.0.0, SVG Export Plug-In . SVG Version: 6.00 Build 0)  -->
<svg version="1.1" id="Layer_1" xmlns="http://www.w3.org/2000/svg" xmlns:xlink="http://www.w3.org/1999/xlink" x="0px" y="0px"
	 viewBox="0 0 109.7 118" style="enable-background:new 0 0 109.7 118;" xml:space="preserve">
<style type="text/css">
	.st0{fill:#A7A9AC;}
	.st1{fill:none;stroke:#A7A9AC;stroke-width:2;stroke-miterlimit:10;stroke-dasharray:6.3;}
	.st2{fill:#ECECEC;}
	.st3{font-family:'DroidSans';}
	.st4{font-size:26.8558px;}
</style>
<g id="XMLID_686_">
	<path id="XMLID_698_" class="st0" d="M54.8,43.6c0.1,0.5,0.5,0.9,1.1,0.9c0,0,0.1,0,0.1,0c3.2-0.4,6.4-1.2,9.4-2.3
		c0.6-0.2,0.9-0.8,0.7-1.4c-0.2-0.6-0.8-0.9-1.4-0.7c-2.9,1-5.9,1.7-9,2.2C55.1,42.5,54.7,43,54.8,43.6L54.8,43.6z M54.8,43.6"/>
	<path id="XMLID_695_" class="st0" d="M68.7,40.9c0.1,0,0.3,0,0.4-0.1c0.8-0.4,1.6-0.8,2.4-1.2c0.5-0.3,0.7-0.9,0.4-1.5
		c-0.3-0.5-0.9-0.7-1.5-0.4c-0.8,0.4-1.5,0.8-2.3,1.1c-0.5,0.2-0.8,0.9-0.5,1.4C67.9,40.6,68.3,40.9,68.7,40.9L68.7,40.9z
		 M68.7,40.9"/>
	<path id="XMLID_687_" class="st0" d="M78,26.4c-2,0-3.7,1.6-3.8,3.6c-5.4,4.6-11.3,6.7-15.3,7.6c-4.5,1-7.7,0.8-7.7,0.8
		c0,0,0,0,0,0c0,0,0,0,0,0H35.7c-0.6,0-1.1,0.5-1.1,1.1v3.1h0c-3.9,0-7.1,3.2-7.1,7.1c0,3.9,3.2,7.1,7.1,7.1h0V60
		c0,0.6,0.5,1.1,1.1,1.1h1.9L40,74.3c0.6,3.2,3.4,5.5,6.6,5.5h5.2c0.3,0,0.6-0.1,0.8-0.4c0.2-0.2,0.3-0.6,0.2-0.9l-3.3-17.4h1.5
		c0,0,0,0,0,0c0,0,0,0,0,0c0,0,3.3-0.2,7.7,0.8c4,0.9,9.9,2.9,15.3,7.6c0.1,2,1.7,3.6,3.8,3.6c2.1,0,3.8-1.7,3.8-3.8V30.1
		C81.7,28,80,26.4,78,26.4L78,26.4z M34.6,54.7L34.6,54.7c-2.7,0-5-2.2-5-5c0-2.7,2.2-5,5-5h0V54.7z M49.6,72.8h-2.7
		c-0.6,0-1.1,0.5-1.1,1.1s0.5,1.1,1.1,1.1H50l0.5,2.6h-3.9c-2.2,0-4.1-1.6-4.5-3.7l-2.4-12.8h7.7l0.5,2.5h-2.8
		c-0.6,0-1.1,0.5-1.1,1.1c0,0.6,0.5,1.1,1.1,1.1h3.2l0.5,2.5h-2.8c-0.6,0-1.1,0.5-1.1,1.1c0,0.6,0.5,1.1,1.1,1.1h3.2L49.6,72.8z
		 M50,58.9H36.7V40.6H50V58.9z M74.2,66.7c-5.4-4.2-11-6.1-14.9-6.9c-3.2-0.7-5.7-0.9-7.1-0.9V40.6c1.4,0,3.9-0.2,7.1-0.9
		c3.9-0.9,9.6-2.8,14.9-6.9V66.7z M79.6,69.4c0,0.9-0.7,1.6-1.6,1.6c-0.9,0-1.6-0.7-1.6-1.6V30.1c0-0.9,0.7-1.6,1.6-1.6
		c0.9,0,1.6,0.7,1.6,1.6V69.4z M79.6,69.4"/>
</g>
<circle id="XMLID_685_" class="st1" cx="54.6" cy="53.1" r="50.2"/>
<circle id="XMLID_688_" class="st2" cx="54.6" cy="103.2" r="12.1"/>
<text id="XMLID_689_" transform="matrix(1 0 0 1 40.2082 112.7127)" class="st3 st4">+</text>
</svg>
