<?xml version="1.0" encoding="utf-8"?>
<!-- Generator: Adobe Illustrator 19.0.0, SVG Export Plug-In . SVG Version: 6.00 Build 0)  -->
<svg version="1.1" id="Layer_1" xmlns="http://www.w3.org/2000/svg" xmlns:xlink="http://www.w3.org/1999/xlink" x="0px" y="0px"
	 viewBox="-413 110.9 73 81.1" style="enable-background:new -413 110.9 73 81.1;" xml:space="preserve">
<style type="text/css">
	.st0{fill:#2EA1DA;}
	.st1{fill:none;stroke:#A7A9AC;stroke-width:2;stroke-miterlimit:10;stroke-dasharray:6.3;}
	.st2{fill:#FFFFFF;}
	.st3{fill:#ECECEC;}
	.st4{font-family:'DroidSans';}
	.st5{font-size:19.018px;}
</style>
<circle id="XMLID_6777_" class="st0" cx="-376.7" cy="146.7" r="31.3"/>
<circle id="XMLID_862_" class="st1" cx="-376.8" cy="147.7" r="35.2"/>
<g id="XMLID_4570_">
	<g id="XMLID_1094_">
		<path id="XMLID_1106_" class="st2" d="M-376.2,141.2c0.1,0.4,0.4,0.7,0.8,0.7c0,0,0.1,0,0.1,0c2.3-0.3,4.5-0.9,6.7-1.6
			c0.4-0.1,0.6-0.6,0.5-1c-0.1-0.4-0.6-0.6-1-0.5c-2,0.7-4.2,1.2-6.4,1.5C-375.9,140.4-376.2,140.8-376.2,141.2L-376.2,141.2z
			 M-376.2,141.2"/>
		<path id="XMLID_1103_" class="st2" d="M-366.3,139.3c0.1,0,0.2,0,0.3-0.1c0.6-0.3,1.2-0.6,1.7-0.9c0.4-0.2,0.5-0.7,0.3-1
			c-0.2-0.4-0.7-0.5-1-0.3c-0.5,0.3-1.1,0.6-1.6,0.8c-0.4,0.2-0.6,0.6-0.4,1C-366.9,139.1-366.6,139.3-366.3,139.3L-366.3,139.3z
			 M-366.3,139.3"/>
		<path id="XMLID_1095_" class="st2" d="M-359.8,129c-1.4,0-2.6,1.1-2.7,2.6c-3.8,3.3-8,4.7-10.9,5.4c-3.2,0.7-5.5,0.6-5.5,0.6
			c0,0,0,0,0,0c0,0,0,0,0,0h-10.9c-0.4,0-0.8,0.3-0.8,0.8v2.2h0c-2.8,0-5.1,2.3-5.1,5.1c0,2.8,2.3,5.1,5.1,5.1h0v2.2
			c0,0.4,0.3,0.8,0.8,0.8h1.3l1.8,9.4c0.4,2.3,2.4,3.9,4.7,3.9h3.7c0.2,0,0.4-0.1,0.6-0.3c0.1-0.2,0.2-0.4,0.2-0.6l-2.3-12.3h1
			c0,0,0,0,0,0c0,0,0,0,0,0c0,0,2.3-0.1,5.5,0.6c2.9,0.6,7,2.1,10.9,5.4c0,1.4,1.2,2.6,2.7,2.6c1.5,0,2.7-1.2,2.7-2.7v-27.8
			C-357.1,130.2-358.3,129-359.8,129L-359.8,129z M-390.5,149.1L-390.5,149.1c-1.9,0-3.5-1.6-3.5-3.5c0-1.9,1.6-3.5,3.5-3.5h0V149.1
			z M-379.8,161.9h-1.9c-0.4,0-0.8,0.3-0.8,0.8c0,0.4,0.3,0.8,0.8,0.8h2.2l0.3,1.8h-2.8c-1.6,0-2.9-1.1-3.2-2.6l-1.7-9.1h5.4
			l0.3,1.8h-2c-0.4,0-0.8,0.3-0.8,0.8c0,0.4,0.3,0.8,0.8,0.8h2.3l0.3,1.8h-2c-0.4,0-0.8,0.3-0.8,0.8c0,0.4,0.3,0.8,0.8,0.8h2.3
			L-379.8,161.9z M-379.6,152h-9.4v-13h9.4V152z M-362.4,157.6c-3.8-2.9-7.8-4.3-10.6-4.9c-2.2-0.5-4.1-0.6-5-0.6v-13
			c1,0,2.8-0.1,5-0.6c2.8-0.6,6.8-2,10.6-4.9V157.6z M-358.6,159.5c0,0.6-0.5,1.1-1.1,1.1c-0.6,0-1.1-0.5-1.1-1.1v-27.8
			c0-0.6,0.5-1.1,1.1-1.1c0.6,0,1.1,0.5,1.1,1.1V159.5z M-358.6,159.5"/>
	</g>
	<circle id="XMLID_1090_" class="st3" cx="-376" cy="183.4" r="8.6"/>
	<text id="XMLID_1089_" transform="matrix(1 0 0 1 -386.5034 190.1644)" class="st4 st5">+</text>
</g>
</svg>
