<?xml version="1.0" encoding="utf-8"?>
<!-- Generator: Adobe Illustrator 19.0.0, SVG Export Plug-In . SVG Version: 6.00 Build 0)  -->
<svg version="1.1" id="Layer_1" xmlns="http://www.w3.org/2000/svg" xmlns:xlink="http://www.w3.org/1999/xlink" x="0px" y="0px"
	 viewBox="-247 -69.3 403.3 438.3" style="enable-background:new -247 -69.3 403.3 438.3;" xml:space="preserve">
<style type="text/css">
	.st0{fill:#FFFFFF;}
	.st1{clip-path:url(#XMLID_5_);fill:#2EA1DA;}
	.st2{clip-path:url(#XMLID_5_);}
</style>
<g id="XMLID_5792_">
	
		<image style="overflow:visible;opacity:0.13;" width="397" height="437" xlink:href="F058F171.png"  transform="matrix(1 0 0 1 -243 -69)">
	</image>
	<g>
		<path class="st0" d="M116.4,358.3h-322.5c-15.3,0-27.7-12.4-27.7-27.7V-31.7c0-15.3,12.4-27.7,27.7-27.7h322.5
			c15.3,0,27.7,12.4,27.7,27.7v362.2C144.1,345.9,131.7,358.3,116.4,358.3z"/>
	</g>
</g>
<g id="XMLID_5780_">
	<defs>
		<path id="XMLID_5781_" d="M115.4,359.3h-322.5c-15.3,0-27.7-12.4-27.7-27.7V-30.7c0-15.3,12.4-27.7,27.7-27.7h322.5
			c15.3,0,27.7,12.4,27.7,27.7v362.2C143.1,346.9,130.7,359.3,115.4,359.3z"/>
	</defs>
	<clipPath id="XMLID_5_">
		<use xlink:href="#XMLID_5781_"  style="overflow:visible;"/>
	</clipPath>
	<polygon id="XMLID_5787_" class="st1" points="-235.4,56.5 -235.4,-63.1 -123.4,-63.1 	"/>
	<g id="XMLID_5782_" class="st2">
		<g>
			<path class="st0" d="M-217.2-13.7c0.2-0.3,0.4-0.6,0.7-0.8s0.5-0.4,0.7-0.5c0.2-0.1,0.4-0.2,0.6-0.3s0.2-0.1,0.3-0.1l0.5,1.5
				c-0.2,0.1-0.4,0.2-0.5,0.3c-0.1,0.1-0.3,0.2-0.4,0.3c-0.2,0.1-0.3,0.3-0.4,0.5c-0.1,0.2-0.3,0.4-0.3,0.6
				c-0.1,0.2-0.1,0.5-0.2,0.8c0,0.3,0,0.6,0,0.9c0,0.3,0.1,0.6,0.2,0.8c0.1,0.3,0.2,0.5,0.4,0.7c0.2,0.2,0.3,0.4,0.5,0.5
				c0.2,0.1,0.4,0.1,0.6,0.1c0.2,0,0.4-0.1,0.6-0.2c0.2-0.1,0.4-0.2,0.7-0.4s0.5-0.3,0.7-0.4c0.2-0.1,0.5-0.2,0.7-0.3
				c0.2-0.1,0.5-0.1,0.7-0.1c0.2,0,0.5,0.1,0.7,0.2s0.5,0.4,0.7,0.7c0.3,0.4,0.5,0.9,0.5,1.5c0,0.6,0,1.2-0.3,1.8
				c-0.2,0.6-0.5,1.2-0.9,1.9c-0.4,0.6-0.9,1.2-1.5,1.8c-0.7,0.7-1.4,1.2-2.2,1.5c-0.7,0.3-1.5,0.5-2.2,0.4c-0.6,0-1.3-0.2-1.8-0.6
				c-0.6-0.3-1.1-0.8-1.6-1.4c-0.2-0.3-0.4-0.6-0.6-0.9c-0.2-0.3-0.4-0.6-0.6-0.9c-0.2-0.3-0.4-0.6-0.5-0.9
				c-0.2-0.3-0.3-0.5-0.4-0.8c-0.1-0.2-0.2-0.4-0.3-0.5c-0.1-0.1-0.1-0.2-0.1-0.2l1.4-0.7c0.4,0.7,0.7,1.4,1.1,2
				c0.4,0.7,0.8,1.3,1.3,1.9c0.1,0.2,0.2,0.3,0.4,0.5s0.3,0.3,0.5,0.4c0.2,0.1,0.4,0.2,0.6,0.3c0.2,0.1,0.5,0.1,0.7,0.2
				c0.5,0,1-0.1,1.5-0.3c0.5-0.3,1.1-0.7,1.6-1.2c0.5-0.5,1-1,1.3-1.5s0.6-1,0.7-1.4c0.2-0.4,0.2-0.8,0.2-1.2c0-0.3-0.1-0.6-0.3-0.8
				c-0.1-0.1-0.2-0.1-0.3-0.1c-0.1,0-0.3,0.1-0.4,0.1c-0.2,0.1-0.3,0.2-0.5,0.3c-0.2,0.1-0.4,0.2-0.6,0.4c-0.2,0.1-0.5,0.2-0.7,0.3
				s-0.5,0.2-0.7,0.2c-0.3,0-0.5,0.1-0.8,0s-0.5-0.1-0.8-0.3c-0.4-0.2-0.7-0.5-0.9-0.8c-0.3-0.3-0.5-0.7-0.6-1s-0.3-0.8-0.4-1.2
				c-0.1-0.4-0.1-0.8-0.1-1.2c0-0.4,0.1-0.8,0.2-1.2C-217.6-13-217.4-13.4-217.2-13.7z"/>
			<path class="st0" d="M-207.1-14c-0.2,0.2-0.4,0.4-0.7,0.6c-0.3,0.2-0.6,0.4-0.9,0.6c-0.3,0.2-0.6,0.3-0.9,0.4
				c-0.3,0.1-0.5,0.2-0.7,0.2l-0.6-1.5c0.2,0,0.5-0.1,0.8-0.2c0.3-0.1,0.6-0.2,0.8-0.4c0.3-0.2,0.5-0.3,0.8-0.5
				c0.3-0.2,0.5-0.4,0.7-0.7c0.2-0.2,0.3-0.5,0.5-0.7c0.1-0.3,0.2-0.5,0.1-0.8c0-0.2-0.2-0.4-0.6-0.7c-0.2-0.1-0.5-0.3-0.8-0.4
				c-0.3-0.1-0.6-0.2-0.9-0.3c-0.3-0.1-0.7-0.1-1-0.2c-0.3,0-0.7,0-1,0c-0.3,0-0.6,0-0.9,0.1c-0.3,0-0.6,0.1-0.8,0.2l-0.6-1.5
				c0.3-0.1,0.7-0.2,1-0.3c0.4-0.1,0.8-0.1,1.2-0.1c0.4,0,0.8,0,1.2,0c0.4,0,0.8,0.1,1.2,0.2c0.4,0.1,0.8,0.2,1.1,0.3
				c0.4,0.1,0.7,0.3,1,0.5c0.3,0.2,0.5,0.3,0.6,0.5s0.3,0.3,0.4,0.5s0.2,0.3,0.2,0.5c0,0.1,0.1,0.3,0.1,0.4c0.1,0.7-0.1,1.5-0.6,2.2
				c-0.1,0.2-0.2,0.4-0.4,0.5C-206.8-14.4-207-14.2-207.1-14z"/>
			<path class="st0" d="M-200.7-14.9c0.5-0.7,0.8-1.4,1.1-2c0.2-0.7,0.4-1.3,0.5-1.8c0.1-0.6,0-1.1,0-1.6c-0.1-0.5-0.3-0.9-0.5-1.2
				c-0.2,0.2-0.3,0.3-0.5,0.6c-0.2,0.2-0.4,0.4-0.7,0.6c-0.9,0.7-1.7,1.1-2.6,1c-0.4,0-0.7-0.2-1.1-0.4c-0.3-0.2-0.6-0.5-0.9-0.9
				c-0.3-0.3-0.5-0.7-0.6-1.1c-0.2-0.4-0.3-0.8-0.3-1.1c0-0.4,0-0.8,0.1-1.1s0.3-0.6,0.5-0.9c0.5-0.5,1.2-0.8,2.2-0.7
				c0.4,0,0.8,0.1,1.2,0.2c0.4,0.1,0.8,0.3,1.2,0.5s0.8,0.5,1.1,0.8c0.4,0.3,0.7,0.6,1,1c0.4,0.4,0.7,0.9,0.9,1.4
				c0.2,0.5,0.4,1,0.4,1.5c0.1,0.5,0.1,1,0.1,1.6c0,0.5-0.1,1.1-0.3,1.6s-0.3,1-0.6,1.5c-0.2,0.5-0.5,1-0.8,1.4L-200.7-14.9z
				 M-204.6-23.7c-0.1,0.1-0.2,0.3-0.2,0.4c0,0.2,0,0.4,0.1,0.6c0.1,0.2,0.1,0.4,0.2,0.6c0.1,0.2,0.2,0.4,0.4,0.6s0.3,0.3,0.4,0.4
				s0.3,0.2,0.4,0.2c0.1,0,0.3,0,0.4,0c0.1,0,0.3-0.1,0.4-0.2c0.1-0.1,0.2-0.1,0.3-0.2s0.2-0.1,0.3-0.2c0.2-0.2,0.5-0.4,0.7-0.6
				s0.4-0.4,0.5-0.5c-0.2-0.2-0.5-0.4-0.8-0.6s-0.5-0.3-0.8-0.4c-0.2-0.1-0.5-0.2-0.7-0.3c-0.2-0.1-0.5-0.1-0.6-0.1
				c-0.1,0-0.2,0-0.2,0c-0.1,0-0.2,0-0.3,0c-0.1,0-0.2,0-0.3,0.1S-204.6-23.8-204.6-23.7z"/>
			<path class="st0" d="M-200.8-32v1.8h-1.8V-32H-200.8z M-198.8-29.5c0.4,0.2,0.9,0.5,1.3,0.7c0.2,0.1,0.4,0.2,0.6,0.3
				s0.4,0.2,0.6,0.4c0.2,0.1,0.4,0.2,0.5,0.4c0.2,0.1,0.3,0.2,0.5,0.3c0,0,0.1,0.1,0.1,0.1c0.1,0,0.1,0.1,0.2,0.2
				c0.3,0.3,0.6,0.7,0.8,1.1s0.4,0.8,0.5,1.3c0.1,0.4,0.2,0.9,0.2,1.4c0,0.5,0,1,0,1.5c0,0.5-0.1,1-0.2,1.5c-0.1,0.5-0.2,1-0.4,1.4
				l-1.5-0.5c0.2-0.6,0.3-1.2,0.5-1.8c0.1-0.6,0.2-1.2,0.1-1.8c0-0.6-0.1-1.1-0.3-1.6c-0.2-0.5-0.4-0.9-0.8-1.3c0,0-0.1,0-0.1-0.1
				c0,0-0.1-0.1-0.1-0.1l0,0c-0.1-0.1-0.3-0.2-0.4-0.3c-0.2-0.1-0.3-0.2-0.5-0.3c-0.2-0.1-0.4-0.2-0.5-0.3c-0.2-0.1-0.4-0.2-0.5-0.3
				c-0.4-0.2-0.8-0.4-1.2-0.6L-198.8-29.5z"/>
			<path class="st0" d="M-191.5-31.2c-1,1-1.8,1.4-2.7,1.3c-0.2,0-0.4-0.1-0.6-0.2c-0.2-0.1-0.3-0.2-0.5-0.3
				c-0.1-0.1-0.3-0.3-0.4-0.4c-0.1-0.1-0.2-0.3-0.2-0.4c-0.1-0.3-0.2-0.6-0.2-0.9s0-0.6,0-0.9c0-0.3,0.1-0.6,0.1-0.9
				s0.1-0.5,0.2-0.8c0.1-0.2,0.2-0.5,0.2-0.7c0.1-0.2,0.2-0.4,0.2-0.5c-0.3-0.3-0.5-0.4-0.7-0.6c-0.1-0.1-0.2-0.2-0.2-0.2l0.9-1.3
				l0,0c0,0,0.1,0.1,0.2,0.2c0.1,0.1,0.3,0.2,0.4,0.3c0.2,0.1,0.3,0.3,0.5,0.4c0.2,0.1,0.3,0.3,0.5,0.4c0.2,0.1,0.3,0.2,0.4,0.3
				c0.1,0.1,0.2,0.1,0.2,0.2c0.5,0.4,1,0.8,1.3,1c0.4,0.3,0.6,0.5,0.8,0.6c0.2,0.1,0.4,0.2,0.5,0.3c0.1,0.1,0.2,0.1,0.2,0.1
				c0.1,0.1,0.3,0.1,0.4,0.1c0.1,0,0.2,0,0.4,0c0.1,0,0.2-0.1,0.3-0.2c0.1-0.1,0.2-0.2,0.4-0.3c0.2-0.2,0.3-0.2,0.5-0.2
				c0.2,0,0.4,0.1,0.5,0.2c0.1,0.1,0.1,0.2,0.2,0.3c0,0.1,0.1,0.2,0.1,0.3s0,0.2-0.1,0.3c0,0.1-0.1,0.2-0.2,0.3
				c-0.1,0.1-0.3,0.3-0.5,0.5s-0.5,0.3-0.7,0.4c-0.4,0.2-0.9,0.2-1.4,0.1c-0.2,0.3-0.4,0.5-0.6,0.7
				C-191.1-31.6-191.3-31.4-191.5-31.2z M-194.1-34.9c-0.1,0.1-0.1,0.3-0.2,0.5s-0.1,0.4-0.2,0.6s-0.1,0.4-0.2,0.6s-0.1,0.4-0.1,0.6
				c0,0.2,0,0.4,0.1,0.6s0.1,0.3,0.2,0.4c0.1,0.1,0.3,0.2,0.4,0.2c0.2,0,0.3,0,0.5-0.1c0.2-0.1,0.3-0.2,0.5-0.3
				c0.2-0.1,0.3-0.3,0.5-0.4c0.1-0.2,0.3-0.3,0.4-0.5c0.1-0.2,0.2-0.3,0.3-0.4c-0.3-0.2-0.6-0.4-0.9-0.6
				C-193.1-34.1-193.5-34.4-194.1-34.9z"/>
			<path class="st0" d="M-188.8-33.4c-0.2-0.2-0.2-0.3-0.2-0.5c0-0.2,0.1-0.4,0.2-0.5l0.6-0.6c0.2-0.2,0.4-0.4,0.6-0.6
				c0.2-0.2,0.3-0.4,0.4-0.6c0.1-0.2,0.2-0.4,0.2-0.6s0-0.4-0.1-0.7c-0.1-0.2-0.3-0.5-0.6-0.7s-0.7-0.5-1.3-0.8
				c-0.2-0.1-0.3-0.2-0.5-0.2c-0.2-0.1-0.4-0.2-0.5-0.2c-0.2-0.1-0.4-0.2-0.6-0.2l0.5-1.5c0,0,0.1,0,0.2,0.1c0.1,0,0.2,0.1,0.4,0.2
				s0.4,0.2,0.6,0.3c0.2,0.1,0.5,0.2,0.7,0.3c1.4,0.7,2.3,1.5,2.6,2.4c0.3,0.9,0.3,1.7-0.2,2.6c-0.1,0.3-0.3,0.5-0.5,0.7
				c-0.2,0.2-0.4,0.4-0.5,0.6l-0.8,0.8l-0.1,0c-0.2,0.2-0.3,0.2-0.5,0.2S-188.7-33.3-188.8-33.4z M-183.1-33.9v1.8h-1.8v-1.8H-183.1
				z"/>
		</g>
		<g>
			<path class="st0" d="M-217.2-13.7c0.2-0.3,0.4-0.6,0.7-0.8s0.5-0.4,0.7-0.5c0.2-0.1,0.4-0.2,0.6-0.3s0.2-0.1,0.3-0.1l0.5,1.5
				c-0.2,0.1-0.4,0.2-0.5,0.3c-0.1,0.1-0.3,0.2-0.4,0.3c-0.2,0.1-0.3,0.3-0.4,0.5c-0.1,0.2-0.3,0.4-0.3,0.6
				c-0.1,0.2-0.1,0.5-0.2,0.8c0,0.3,0,0.6,0,0.9c0,0.3,0.1,0.6,0.2,0.8c0.1,0.3,0.2,0.5,0.4,0.7c0.2,0.2,0.3,0.4,0.5,0.5
				c0.2,0.1,0.4,0.1,0.6,0.1c0.2,0,0.4-0.1,0.6-0.2c0.2-0.1,0.4-0.2,0.7-0.4s0.5-0.3,0.7-0.4c0.2-0.1,0.5-0.2,0.7-0.3
				c0.2-0.1,0.5-0.1,0.7-0.1c0.2,0,0.5,0.1,0.7,0.2s0.5,0.4,0.7,0.7c0.3,0.4,0.5,0.9,0.5,1.5c0,0.6,0,1.2-0.3,1.8
				c-0.2,0.6-0.5,1.2-0.9,1.9c-0.4,0.6-0.9,1.2-1.5,1.8c-0.7,0.7-1.4,1.2-2.2,1.5c-0.7,0.3-1.5,0.5-2.2,0.4c-0.6,0-1.3-0.2-1.8-0.6
				c-0.6-0.3-1.1-0.8-1.6-1.4c-0.2-0.3-0.4-0.6-0.6-0.9c-0.2-0.3-0.4-0.6-0.6-0.9c-0.2-0.3-0.4-0.6-0.5-0.9
				c-0.2-0.3-0.3-0.5-0.4-0.8c-0.1-0.2-0.2-0.4-0.3-0.5c-0.1-0.1-0.1-0.2-0.1-0.2l1.4-0.7c0.4,0.7,0.7,1.4,1.1,2
				c0.4,0.7,0.8,1.3,1.3,1.9c0.1,0.2,0.2,0.3,0.4,0.5s0.3,0.3,0.5,0.4c0.2,0.1,0.4,0.2,0.6,0.3c0.2,0.1,0.5,0.1,0.7,0.2
				c0.5,0,1-0.1,1.5-0.3c0.5-0.3,1.1-0.7,1.6-1.2c0.5-0.5,1-1,1.3-1.5s0.6-1,0.7-1.4c0.2-0.4,0.2-0.8,0.2-1.2c0-0.3-0.1-0.6-0.3-0.8
				c-0.1-0.1-0.2-0.1-0.3-0.1c-0.1,0-0.3,0.1-0.4,0.1c-0.2,0.1-0.3,0.2-0.5,0.3c-0.2,0.1-0.4,0.2-0.6,0.4c-0.2,0.1-0.5,0.2-0.7,0.3
				s-0.5,0.2-0.7,0.2c-0.3,0-0.5,0.1-0.8,0s-0.5-0.1-0.8-0.3c-0.4-0.2-0.7-0.5-0.9-0.8c-0.3-0.3-0.5-0.7-0.6-1s-0.3-0.8-0.4-1.2
				c-0.1-0.4-0.1-0.8-0.1-1.2c0-0.4,0.1-0.8,0.2-1.2C-217.6-13-217.4-13.4-217.2-13.7z"/>
			<path class="st0" d="M-207.1-14c-0.2,0.2-0.4,0.4-0.7,0.6c-0.3,0.2-0.6,0.4-0.9,0.6c-0.3,0.2-0.6,0.3-0.9,0.4
				c-0.3,0.1-0.5,0.2-0.7,0.2l-0.6-1.5c0.2,0,0.5-0.1,0.8-0.2c0.3-0.1,0.6-0.2,0.8-0.4c0.3-0.2,0.5-0.3,0.8-0.5
				c0.3-0.2,0.5-0.4,0.7-0.7c0.2-0.2,0.3-0.5,0.5-0.7c0.1-0.3,0.2-0.5,0.1-0.8c0-0.2-0.2-0.4-0.6-0.7c-0.2-0.1-0.5-0.3-0.8-0.4
				c-0.3-0.1-0.6-0.2-0.9-0.3c-0.3-0.1-0.7-0.1-1-0.2c-0.3,0-0.7,0-1,0c-0.3,0-0.6,0-0.9,0.1c-0.3,0-0.6,0.1-0.8,0.2l-0.6-1.5
				c0.3-0.1,0.7-0.2,1-0.3c0.4-0.1,0.8-0.1,1.2-0.1c0.4,0,0.8,0,1.2,0c0.4,0,0.8,0.1,1.2,0.2c0.4,0.1,0.8,0.2,1.1,0.3
				c0.4,0.1,0.7,0.3,1,0.5c0.3,0.2,0.5,0.3,0.6,0.5s0.3,0.3,0.4,0.5s0.2,0.3,0.2,0.5c0,0.1,0.1,0.3,0.1,0.4c0.1,0.7-0.1,1.5-0.6,2.2
				c-0.1,0.2-0.2,0.4-0.4,0.5C-206.8-14.4-207-14.2-207.1-14z"/>
			<path class="st0" d="M-200.7-14.9c0.5-0.7,0.8-1.4,1.1-2c0.2-0.7,0.4-1.3,0.5-1.8c0.1-0.6,0-1.1,0-1.6c-0.1-0.5-0.3-0.9-0.5-1.2
				c-0.2,0.2-0.3,0.3-0.5,0.6c-0.2,0.2-0.4,0.4-0.7,0.6c-0.9,0.7-1.7,1.1-2.6,1c-0.4,0-0.7-0.2-1.1-0.4c-0.3-0.2-0.6-0.5-0.9-0.9
				c-0.3-0.3-0.5-0.7-0.6-1.1c-0.2-0.4-0.3-0.8-0.3-1.1c0-0.4,0-0.8,0.1-1.1s0.3-0.6,0.5-0.9c0.5-0.5,1.2-0.8,2.2-0.7
				c0.4,0,0.8,0.1,1.2,0.2c0.4,0.1,0.8,0.3,1.2,0.5s0.8,0.5,1.1,0.8c0.4,0.3,0.7,0.6,1,1c0.4,0.4,0.7,0.9,0.9,1.4
				c0.2,0.5,0.4,1,0.4,1.5c0.1,0.5,0.1,1,0.1,1.6c0,0.5-0.1,1.1-0.3,1.6s-0.3,1-0.6,1.5c-0.2,0.5-0.5,1-0.8,1.4L-200.7-14.9z
				 M-204.6-23.7c-0.1,0.1-0.2,0.3-0.2,0.4c0,0.2,0,0.4,0.1,0.6c0.1,0.2,0.1,0.4,0.2,0.6c0.1,0.2,0.2,0.4,0.4,0.6s0.3,0.3,0.4,0.4
				s0.3,0.2,0.4,0.2c0.1,0,0.3,0,0.4,0c0.1,0,0.3-0.1,0.4-0.2c0.1-0.1,0.2-0.1,0.3-0.2s0.2-0.1,0.3-0.2c0.2-0.2,0.5-0.4,0.7-0.6
				s0.4-0.4,0.5-0.5c-0.2-0.2-0.5-0.4-0.8-0.6s-0.5-0.3-0.8-0.4c-0.2-0.1-0.5-0.2-0.7-0.3c-0.2-0.1-0.5-0.1-0.6-0.1
				c-0.1,0-0.2,0-0.2,0c-0.1,0-0.2,0-0.3,0c-0.1,0-0.2,0-0.3,0.1S-204.6-23.8-204.6-23.7z"/>
			<path class="st0" d="M-200.8-32v1.8h-1.8V-32H-200.8z M-198.8-29.5c0.4,0.2,0.9,0.5,1.3,0.7c0.2,0.1,0.4,0.2,0.6,0.3
				s0.4,0.2,0.6,0.4c0.2,0.1,0.4,0.2,0.5,0.4c0.2,0.1,0.3,0.2,0.5,0.3c0,0,0.1,0.1,0.1,0.1c0.1,0,0.1,0.1,0.2,0.2
				c0.3,0.3,0.6,0.7,0.8,1.1s0.4,0.8,0.5,1.3c0.1,0.4,0.2,0.9,0.2,1.4c0,0.5,0,1,0,1.5c0,0.5-0.1,1-0.2,1.5c-0.1,0.5-0.2,1-0.4,1.4
				l-1.5-0.5c0.2-0.6,0.3-1.2,0.5-1.8c0.1-0.6,0.2-1.2,0.1-1.8c0-0.6-0.1-1.1-0.3-1.6c-0.2-0.5-0.4-0.9-0.8-1.3c0,0-0.1,0-0.1-0.1
				c0,0-0.1-0.1-0.1-0.1l0,0c-0.1-0.1-0.3-0.2-0.4-0.3c-0.2-0.1-0.3-0.2-0.5-0.3c-0.2-0.1-0.4-0.2-0.5-0.3c-0.2-0.1-0.4-0.2-0.5-0.3
				c-0.4-0.2-0.8-0.4-1.2-0.6L-198.8-29.5z"/>
			<path class="st0" d="M-191.5-31.2c-1,1-1.8,1.4-2.7,1.3c-0.2,0-0.4-0.1-0.6-0.2c-0.2-0.1-0.3-0.2-0.5-0.3
				c-0.1-0.1-0.3-0.3-0.4-0.4c-0.1-0.1-0.2-0.3-0.2-0.4c-0.1-0.3-0.2-0.6-0.2-0.9s0-0.6,0-0.9c0-0.3,0.1-0.6,0.1-0.9
				s0.1-0.5,0.2-0.8c0.1-0.2,0.2-0.5,0.2-0.7c0.1-0.2,0.2-0.4,0.2-0.5c-0.3-0.3-0.5-0.4-0.7-0.6c-0.1-0.1-0.2-0.2-0.2-0.2l0.9-1.3
				l0,0c0,0,0.1,0.1,0.2,0.2c0.1,0.1,0.3,0.2,0.4,0.3c0.2,0.1,0.3,0.3,0.5,0.4c0.2,0.1,0.3,0.3,0.5,0.4c0.2,0.1,0.3,0.2,0.4,0.3
				c0.1,0.1,0.2,0.1,0.2,0.2c0.5,0.4,1,0.8,1.3,1c0.4,0.3,0.6,0.5,0.8,0.6c0.2,0.1,0.4,0.2,0.5,0.3c0.1,0.1,0.2,0.1,0.2,0.1
				c0.1,0.1,0.3,0.1,0.4,0.1c0.1,0,0.2,0,0.4,0c0.1,0,0.2-0.1,0.3-0.2c0.1-0.1,0.2-0.2,0.4-0.3c0.2-0.2,0.3-0.2,0.5-0.2
				c0.2,0,0.4,0.1,0.5,0.2c0.1,0.1,0.1,0.2,0.2,0.3c0,0.1,0.1,0.2,0.1,0.3s0,0.2-0.1,0.3c0,0.1-0.1,0.2-0.2,0.3
				c-0.1,0.1-0.3,0.3-0.5,0.5s-0.5,0.3-0.7,0.4c-0.4,0.2-0.9,0.2-1.4,0.1c-0.2,0.3-0.4,0.5-0.6,0.7
				C-191.1-31.6-191.3-31.4-191.5-31.2z M-194.1-34.9c-0.1,0.1-0.1,0.3-0.2,0.5s-0.1,0.4-0.2,0.6s-0.1,0.4-0.2,0.6s-0.1,0.4-0.1,0.6
				c0,0.2,0,0.4,0.1,0.6s0.1,0.3,0.2,0.4c0.1,0.1,0.3,0.2,0.4,0.2c0.2,0,0.3,0,0.5-0.1c0.2-0.1,0.3-0.2,0.5-0.3
				c0.2-0.1,0.3-0.3,0.5-0.4c0.1-0.2,0.3-0.3,0.4-0.5c0.1-0.2,0.2-0.3,0.3-0.4c-0.3-0.2-0.6-0.4-0.9-0.6
				C-193.1-34.1-193.5-34.4-194.1-34.9z"/>
			<path class="st0" d="M-188.8-33.4c-0.2-0.2-0.2-0.3-0.2-0.5c0-0.2,0.1-0.4,0.2-0.5l0.6-0.6c0.2-0.2,0.4-0.4,0.6-0.6
				c0.2-0.2,0.3-0.4,0.4-0.6c0.1-0.2,0.2-0.4,0.2-0.6s0-0.4-0.1-0.7c-0.1-0.2-0.3-0.5-0.6-0.7s-0.7-0.5-1.3-0.8
				c-0.2-0.1-0.3-0.2-0.5-0.2c-0.2-0.1-0.4-0.2-0.5-0.2c-0.2-0.1-0.4-0.2-0.6-0.2l0.5-1.5c0,0,0.1,0,0.2,0.1c0.1,0,0.2,0.1,0.4,0.2
				s0.4,0.2,0.6,0.3c0.2,0.1,0.5,0.2,0.7,0.3c1.4,0.7,2.3,1.5,2.6,2.4c0.3,0.9,0.3,1.7-0.2,2.6c-0.1,0.3-0.3,0.5-0.5,0.7
				c-0.2,0.2-0.4,0.4-0.5,0.6l-0.8,0.8l-0.1,0c-0.2,0.2-0.3,0.2-0.5,0.2S-188.7-33.3-188.8-33.4z M-183.1-33.9v1.8h-1.8v-1.8H-183.1
				z"/>
		</g>
		<g>
			<path class="st0" d="M-217.2-13.7c0.2-0.3,0.4-0.6,0.7-0.8s0.5-0.4,0.7-0.5c0.2-0.1,0.4-0.2,0.6-0.3s0.2-0.1,0.3-0.1l0.5,1.5
				c-0.2,0.1-0.4,0.2-0.5,0.3c-0.1,0.1-0.3,0.2-0.4,0.3c-0.2,0.1-0.3,0.3-0.4,0.5c-0.1,0.2-0.3,0.4-0.3,0.6
				c-0.1,0.2-0.1,0.5-0.2,0.8c0,0.3,0,0.6,0,0.9c0,0.3,0.1,0.6,0.2,0.8c0.1,0.3,0.2,0.5,0.4,0.7c0.2,0.2,0.3,0.4,0.5,0.5
				c0.2,0.1,0.4,0.1,0.6,0.1c0.2,0,0.4-0.1,0.6-0.2c0.2-0.1,0.4-0.2,0.7-0.4s0.5-0.3,0.7-0.4c0.2-0.1,0.5-0.2,0.7-0.3
				c0.2-0.1,0.5-0.1,0.7-0.1c0.2,0,0.5,0.1,0.7,0.2s0.5,0.4,0.7,0.7c0.3,0.4,0.5,0.9,0.5,1.5c0,0.6,0,1.2-0.3,1.8
				c-0.2,0.6-0.5,1.2-0.9,1.9c-0.4,0.6-0.9,1.2-1.5,1.8c-0.7,0.7-1.4,1.2-2.2,1.5c-0.7,0.3-1.5,0.5-2.2,0.4c-0.6,0-1.3-0.2-1.8-0.6
				c-0.6-0.3-1.1-0.8-1.6-1.4c-0.2-0.3-0.4-0.6-0.6-0.9c-0.2-0.3-0.4-0.6-0.6-0.9c-0.2-0.3-0.4-0.6-0.5-0.9
				c-0.2-0.3-0.3-0.5-0.4-0.8c-0.1-0.2-0.2-0.4-0.3-0.5c-0.1-0.1-0.1-0.2-0.1-0.2l1.4-0.7c0.4,0.7,0.7,1.4,1.1,2
				c0.4,0.7,0.8,1.3,1.3,1.9c0.1,0.2,0.2,0.3,0.4,0.5s0.3,0.3,0.5,0.4c0.2,0.1,0.4,0.2,0.6,0.3c0.2,0.1,0.5,0.1,0.7,0.2
				c0.5,0,1-0.1,1.5-0.3c0.5-0.3,1.1-0.7,1.6-1.2c0.5-0.5,1-1,1.3-1.5s0.6-1,0.7-1.4c0.2-0.4,0.2-0.8,0.2-1.2c0-0.3-0.1-0.6-0.3-0.8
				c-0.1-0.1-0.2-0.1-0.3-0.1c-0.1,0-0.3,0.1-0.4,0.1c-0.2,0.1-0.3,0.2-0.5,0.3c-0.2,0.1-0.4,0.2-0.6,0.4c-0.2,0.1-0.5,0.2-0.7,0.3
				s-0.5,0.2-0.7,0.2c-0.3,0-0.5,0.1-0.8,0s-0.5-0.1-0.8-0.3c-0.4-0.2-0.7-0.5-0.9-0.8c-0.3-0.3-0.5-0.7-0.6-1s-0.3-0.8-0.4-1.2
				c-0.1-0.4-0.1-0.8-0.1-1.2c0-0.4,0.1-0.8,0.2-1.2C-217.6-13-217.4-13.4-217.2-13.7z"/>
			<path class="st0" d="M-207.1-14c-0.2,0.2-0.4,0.4-0.7,0.6c-0.3,0.2-0.6,0.4-0.9,0.6c-0.3,0.2-0.6,0.3-0.9,0.4
				c-0.3,0.1-0.5,0.2-0.7,0.2l-0.6-1.5c0.2,0,0.5-0.1,0.8-0.2c0.3-0.1,0.6-0.2,0.8-0.4c0.3-0.2,0.5-0.3,0.8-0.5
				c0.3-0.2,0.5-0.4,0.7-0.7c0.2-0.2,0.3-0.5,0.5-0.7c0.1-0.3,0.2-0.5,0.1-0.8c0-0.2-0.2-0.4-0.6-0.7c-0.2-0.1-0.5-0.3-0.8-0.4
				c-0.3-0.1-0.6-0.2-0.9-0.3c-0.3-0.1-0.7-0.1-1-0.2c-0.3,0-0.7,0-1,0c-0.3,0-0.6,0-0.9,0.1c-0.3,0-0.6,0.1-0.8,0.2l-0.6-1.5
				c0.3-0.1,0.7-0.2,1-0.3c0.4-0.1,0.8-0.1,1.2-0.1c0.4,0,0.8,0,1.2,0c0.4,0,0.8,0.1,1.2,0.2c0.4,0.1,0.8,0.2,1.1,0.3
				c0.4,0.1,0.7,0.3,1,0.5c0.3,0.2,0.5,0.3,0.6,0.5s0.3,0.3,0.4,0.5s0.2,0.3,0.2,0.5c0,0.1,0.1,0.3,0.1,0.4c0.1,0.7-0.1,1.5-0.6,2.2
				c-0.1,0.2-0.2,0.4-0.4,0.5C-206.8-14.4-207-14.2-207.1-14z"/>
			<path class="st0" d="M-200.7-14.9c0.5-0.7,0.8-1.4,1.1-2c0.2-0.7,0.4-1.3,0.5-1.8c0.1-0.6,0-1.1,0-1.6c-0.1-0.5-0.3-0.9-0.5-1.2
				c-0.2,0.2-0.3,0.3-0.5,0.6c-0.2,0.2-0.4,0.4-0.7,0.6c-0.9,0.7-1.7,1.1-2.6,1c-0.4,0-0.7-0.2-1.1-0.4c-0.3-0.2-0.6-0.5-0.9-0.9
				c-0.3-0.3-0.5-0.7-0.6-1.1c-0.2-0.4-0.3-0.8-0.3-1.1c0-0.4,0-0.8,0.1-1.1s0.3-0.6,0.5-0.9c0.5-0.5,1.2-0.8,2.2-0.7
				c0.4,0,0.8,0.1,1.2,0.2c0.4,0.1,0.8,0.3,1.2,0.5s0.8,0.5,1.1,0.8c0.4,0.3,0.7,0.6,1,1c0.4,0.4,0.7,0.9,0.9,1.4
				c0.2,0.5,0.4,1,0.4,1.5c0.1,0.5,0.1,1,0.1,1.6c0,0.5-0.1,1.1-0.3,1.6s-0.3,1-0.6,1.5c-0.2,0.5-0.5,1-0.8,1.4L-200.7-14.9z
				 M-204.6-23.7c-0.1,0.1-0.2,0.3-0.2,0.4c0,0.2,0,0.4,0.1,0.6c0.1,0.2,0.1,0.4,0.2,0.6c0.1,0.2,0.2,0.4,0.4,0.6s0.3,0.3,0.4,0.4
				s0.3,0.2,0.4,0.2c0.1,0,0.3,0,0.4,0c0.1,0,0.3-0.1,0.4-0.2c0.1-0.1,0.2-0.1,0.3-0.2s0.2-0.1,0.3-0.2c0.2-0.2,0.5-0.4,0.7-0.6
				s0.4-0.4,0.5-0.5c-0.2-0.2-0.5-0.4-0.8-0.6s-0.5-0.3-0.8-0.4c-0.2-0.1-0.5-0.2-0.7-0.3c-0.2-0.1-0.5-0.1-0.6-0.1
				c-0.1,0-0.2,0-0.2,0c-0.1,0-0.2,0-0.3,0c-0.1,0-0.2,0-0.3,0.1S-204.6-23.8-204.6-23.7z"/>
			<path class="st0" d="M-200.8-32v1.8h-1.8V-32H-200.8z M-198.8-29.5c0.4,0.2,0.9,0.5,1.3,0.7c0.2,0.1,0.4,0.2,0.6,0.3
				s0.4,0.2,0.6,0.4c0.2,0.1,0.4,0.2,0.5,0.4c0.2,0.1,0.3,0.2,0.5,0.3c0,0,0.1,0.1,0.1,0.1c0.1,0,0.1,0.1,0.2,0.2
				c0.3,0.3,0.6,0.7,0.8,1.1s0.4,0.8,0.5,1.3c0.1,0.4,0.2,0.9,0.2,1.4c0,0.5,0,1,0,1.5c0,0.5-0.1,1-0.2,1.5c-0.1,0.5-0.2,1-0.4,1.4
				l-1.5-0.5c0.2-0.6,0.3-1.2,0.5-1.8c0.1-0.6,0.2-1.2,0.1-1.8c0-0.6-0.1-1.1-0.3-1.6c-0.2-0.5-0.4-0.9-0.8-1.3c0,0-0.1,0-0.1-0.1
				c0,0-0.1-0.1-0.1-0.1l0,0c-0.1-0.1-0.3-0.2-0.4-0.3c-0.2-0.1-0.3-0.2-0.5-0.3c-0.2-0.1-0.4-0.2-0.5-0.3c-0.2-0.1-0.4-0.2-0.5-0.3
				c-0.4-0.2-0.8-0.4-1.2-0.6L-198.8-29.5z"/>
			<path class="st0" d="M-191.5-31.2c-1,1-1.8,1.4-2.7,1.3c-0.2,0-0.4-0.1-0.6-0.2c-0.2-0.1-0.3-0.2-0.5-0.3
				c-0.1-0.1-0.3-0.3-0.4-0.4c-0.1-0.1-0.2-0.3-0.2-0.4c-0.1-0.3-0.2-0.6-0.2-0.9s0-0.6,0-0.9c0-0.3,0.1-0.6,0.1-0.9
				s0.1-0.5,0.2-0.8c0.1-0.2,0.2-0.5,0.2-0.7c0.1-0.2,0.2-0.4,0.2-0.5c-0.3-0.3-0.5-0.4-0.7-0.6c-0.1-0.1-0.2-0.2-0.2-0.2l0.9-1.3
				l0,0c0,0,0.1,0.1,0.2,0.2c0.1,0.1,0.3,0.2,0.4,0.3c0.2,0.1,0.3,0.3,0.5,0.4c0.2,0.1,0.3,0.3,0.5,0.4c0.2,0.1,0.3,0.2,0.4,0.3
				c0.1,0.1,0.2,0.1,0.2,0.2c0.5,0.4,1,0.8,1.3,1c0.4,0.3,0.6,0.5,0.8,0.6c0.2,0.1,0.4,0.2,0.5,0.3c0.1,0.1,0.2,0.1,0.2,0.1
				c0.1,0.1,0.3,0.1,0.4,0.1c0.1,0,0.2,0,0.4,0c0.1,0,0.2-0.1,0.3-0.2c0.1-0.1,0.2-0.2,0.4-0.3c0.2-0.2,0.3-0.2,0.5-0.2
				c0.2,0,0.4,0.1,0.5,0.2c0.1,0.1,0.1,0.2,0.2,0.3c0,0.1,0.1,0.2,0.1,0.3s0,0.2-0.1,0.3c0,0.1-0.1,0.2-0.2,0.3
				c-0.1,0.1-0.3,0.3-0.5,0.5s-0.5,0.3-0.7,0.4c-0.4,0.2-0.9,0.2-1.4,0.1c-0.2,0.3-0.4,0.5-0.6,0.7
				C-191.1-31.6-191.3-31.4-191.5-31.2z M-194.1-34.9c-0.1,0.1-0.1,0.3-0.2,0.5s-0.1,0.4-0.2,0.6s-0.1,0.4-0.2,0.6s-0.1,0.4-0.1,0.6
				c0,0.2,0,0.4,0.1,0.6s0.1,0.3,0.2,0.4c0.1,0.1,0.3,0.2,0.4,0.2c0.2,0,0.3,0,0.5-0.1c0.2-0.1,0.3-0.2,0.5-0.3
				c0.2-0.1,0.3-0.3,0.5-0.4c0.1-0.2,0.3-0.3,0.4-0.5c0.1-0.2,0.2-0.3,0.3-0.4c-0.3-0.2-0.6-0.4-0.9-0.6
				C-193.1-34.1-193.5-34.4-194.1-34.9z"/>
			<path class="st0" d="M-188.8-33.4c-0.2-0.2-0.2-0.3-0.2-0.5c0-0.2,0.1-0.4,0.2-0.5l0.6-0.6c0.2-0.2,0.4-0.4,0.6-0.6
				c0.2-0.2,0.3-0.4,0.4-0.6c0.1-0.2,0.2-0.4,0.2-0.6s0-0.4-0.1-0.7c-0.1-0.2-0.3-0.5-0.6-0.7s-0.7-0.5-1.3-0.8
				c-0.2-0.1-0.3-0.2-0.5-0.2c-0.2-0.1-0.4-0.2-0.5-0.2c-0.2-0.1-0.4-0.2-0.6-0.2l0.5-1.5c0,0,0.1,0,0.2,0.1c0.1,0,0.2,0.1,0.4,0.2
				s0.4,0.2,0.6,0.3c0.2,0.1,0.5,0.2,0.7,0.3c1.4,0.7,2.3,1.5,2.6,2.4c0.3,0.9,0.3,1.7-0.2,2.6c-0.1,0.3-0.3,0.5-0.5,0.7
				c-0.2,0.2-0.4,0.4-0.5,0.6l-0.8,0.8l-0.1,0c-0.2,0.2-0.3,0.2-0.5,0.2S-188.7-33.3-188.8-33.4z M-183.1-33.9v1.8h-1.8v-1.8H-183.1
				z"/>
		</g>
	</g>
</g>
</svg>
