<?xml version="1.0" encoding="utf-8"?>
<!-- Generator: Adobe Illustrator 19.0.0, SVG Export Plug-In . SVG Version: 6.00 Build 0)  -->
<svg version="1.1" id="Layer_1" xmlns="http://www.w3.org/2000/svg" xmlns:xlink="http://www.w3.org/1999/xlink" x="0px" y="0px"
	 viewBox="0 0 105 105" style="enable-background:new 0 0 105 105;" xml:space="preserve">
<style type="text/css">
	.st0{fill:none;stroke:#A7A9AC;stroke-width:2;stroke-miterlimit:10;stroke-dasharray:6.3;}
	.st1{fill:#A7A9AC;}
	.st2{fill:#939598;}
</style>
<circle id="XMLID_937_" class="st0" cx="52.7" cy="52.4" r="50.2"/>
<g id="XMLID_819_">
	<path id="XMLID_842_" class="st1" d="M59.6,33.5c0.4,0.4,1,0.3,1.4-0.1c0.4-0.4,0.3-1-0.1-1.4c-2.3-1.9-5.4-3.1-9.5-3.6
		c-3.3-0.4-6.4-0.2-8.4,0c-1.6,0.2-2.8,1.5-2.8,3.1v2.3c0,0.5,0.4,1,1,1s1-0.4,1-1v-2.3c0-0.6,0.4-1.1,1-1.1
		C46.5,30,54.9,29.6,59.6,33.5z"/>
	<g id="XMLID_820_">
		<path id="XMLID_835_" class="st1" d="M61.2,17.9H47.5c-2,0-3.8,0.8-5.2,2.2c-3.6,0.5-6.4,3.6-6.4,7.3v3c0,1.6,0.2,3.3,0.6,4.9
			l0.5,1.8v3.7c0,4.5,2.1,8.5,5.3,11.1v3.5c-0.6,0.1-1.1,0.4-1.5,0.9l-1.4,2.1L32.2,61c-2.9,1.1-4.8,3.8-4.8,6.9v9.3
			c0,0.5,0.4,1,1,1c0.5,0,1-0.4,1-1v-9.3c0-2.2,1.4-4.3,3.5-5l6.8-2.5l4.1,5.8c0.4,0.5,0.9,0.8,1.5,0.9c0.1,0,0.1,0,0.2,0
			c0.5,0,1.1-0.2,1.4-0.6l0.6-0.6c0.1,0.5,0.3,0.9,0.6,1.2l-0.6,10.2c0,0.5,0.4,1,0.9,1c0,0,0,0,0.1,0c0.5,0,1-0.4,1-0.9l0.6-9.7
			h1.1l0.6,9.7c0,0.5,0.5,0.9,1,0.9c0,0,0,0,0.1,0c0.5,0,1-0.5,0.9-1L53.2,67c0.3-0.3,0.5-0.7,0.6-1.2l0.6,0.6
			c0.4,0.4,0.9,0.6,1.4,0.6c0.1,0,0.1,0,0.2,0c0.6,0,1.1-0.4,1.5-0.9l4.6-6.4c0.2-0.3,0.2-0.8,0-1.1l-1.5-2.3
			c-0.3-0.5-0.9-0.8-1.5-0.9V52c0.4-0.3,0.8-0.7,1.2-1c2.6-2.6,4.1-6.1,4.1-9.8v-4.1l0.5-1.8c0.4-1.6,0.6-3.2,0.6-4.9v-8.2
			C65.4,19.8,63.5,17.9,61.2,17.9z M45.5,65C45.5,65,45.5,65.1,45.5,65c-0.1,0-0.1,0-0.1,0l-4.2-5.8l1.2-1.8c0,0,0.1,0,0.1,0
			l6.5,4.1L45.5,65z M51.8,65.6C51.8,65.6,51.7,65.6,51.8,65.6l-2.2,0.1c0,0-0.1,0-0.1-0.1v-1.7l1.1-1.1l1.1,1.1L51.8,65.6
			L51.8,65.6z M50.7,60.2l-6.4-4v-2.9c1.8,1,3.9,1.6,6.2,1.7c0.1,0,0.2,0,0.3,0c2.3,0,4.5-0.6,6.4-1.6v2.8c0,0,0,0,0,0L50.7,60.2z
			 M60,59.2L55.9,65c0,0,0,0,0,0c0,0,0,0-0.1,0l-3.5-3.5l6.5-4.1c0,0,0.1,0,0.1,0L60,59.2z M63.4,30.4c0,1.5-0.2,3-0.5,4.4l-0.5,2
			c0,0.1,0,0.2,0,0.2v4.2c0,3.2-1.2,6.1-3.5,8.4c-2.3,2.2-5.3,3.4-8.4,3.4c-6.3-0.1-11.5-5.6-11.5-12.1V37c0-0.1,0-0.2,0-0.2l-0.5-2
			c-0.4-1.4-0.5-2.9-0.5-4.4v-3c0-2.8,2.2-5.1,4.9-5.3c0.3,0,0.5-0.1,0.7-0.3c1-1.2,2.5-1.8,4-1.8h13.8c1.2,0,2.2,1,2.2,2.2V30.4z"
			/>
		<path id="XMLID_834_" class="st1" d="M35.6,68.3c-0.2-0.5-0.8-0.7-1.3-0.4c-0.5,0.2-0.7,0.8-0.4,1.3l0.6,1.2
			c0.2,0.4,0.3,1,0.3,1.5v5.4c0,0.5,0.4,1,1,1c0.5,0,1-0.4,1-1v-5.4c0-0.8-0.2-1.6-0.6-2.3L35.6,68.3z"/>
		<g id="XMLID_824_">
			<path id="XMLID_829_" class="st2" d="M64.8,77c0.1,0,0.3,0,0.4-0.1l0.5-0.2c0.3,0.4,0.7,0.8,1.2,1.2l-0.2,0.5
				c-0.1,0.3-0.1,0.5,0,0.8c0.1,0.3,0.3,0.5,0.6,0.6l0.9,0.4c0.1,0.1,0.3,0.1,0.4,0.1c0.4,0,0.8-0.3,1-0.7l0.2-0.5
				c0.6,0.1,1.1,0.1,1.7,0l0.2,0.5c0.2,0.4,0.5,0.7,1,0.7c0.1,0,0.3,0,0.4-0.1l0.9-0.4c0.5-0.2,0.8-0.8,0.6-1.4l-0.2-0.5
				c0.4-0.3,0.8-0.7,1.2-1.2l0.5,0.2c0.1,0.1,0.3,0.1,0.4,0.1c0.4,0,0.8-0.3,1-0.7l0.4-0.9c0.2-0.5,0-1.2-0.6-1.4l-0.5-0.2
				c0.1-0.6,0.1-1.1,0-1.7l0.5-0.2c0.5-0.2,0.8-0.8,0.6-1.4l-0.4-0.9c-0.2-0.4-0.5-0.7-1-0.7c-0.1,0-0.3,0-0.4,0.1l-0.5,0.2
				c-0.3-0.4-0.7-0.8-1.2-1.2l0.2-0.5c0.2-0.5,0-1.2-0.6-1.4l-0.9-0.4c-0.1-0.1-0.3-0.1-0.4-0.1c-0.4,0-0.8,0.3-1,0.7l-0.2,0.5
				c-0.6-0.1-1.1-0.1-1.7,0l-0.2-0.5c-0.2-0.4-0.5-0.7-1-0.7c-0.1,0-0.3,0-0.4,0.1l-0.9,0.4c-0.3,0.1-0.5,0.3-0.6,0.6
				c-0.1,0.3-0.1,0.5,0,0.8l0.2,0.5c-0.4,0.3-0.8,0.7-1.2,1.2L65.2,69c-0.1-0.1-0.3-0.1-0.4-0.1c-0.4,0-0.8,0.3-1,0.7l-0.4,0.9
				c-0.2,0.5,0,1.2,0.6,1.4l0.5,0.2c-0.1,0.6-0.1,1.1,0,1.7L64,74c-0.3,0.1-0.5,0.3-0.6,0.6c-0.1,0.3-0.1,0.5,0,0.8l0.4,0.9
				C64,76.7,64.4,77,64.8,77L64.8,77z M64.3,74.9C64.3,74.9,64.3,74.8,64.3,74.9l1-0.4c0.2-0.1,0.3-0.3,0.3-0.5
				c-0.1-0.7-0.1-1.4,0-2.1c0-0.2-0.1-0.4-0.3-0.5L64.3,71c-0.1,0-0.1-0.1-0.1-0.2l0.4-0.9c0-0.1,0.1-0.1,0.2-0.1c0,0,0,0,0.1,0
				l0.9,0.4c0.2,0.1,0.4,0,0.5-0.2c0.4-0.6,0.9-1.1,1.5-1.5c0.2-0.1,0.2-0.3,0.2-0.5l-0.4-0.9c0-0.1,0-0.2,0.1-0.2l0.9-0.4
				c0,0,0,0,0.1,0c0,0,0.1,0,0.2,0.1l0.4,0.9c0.1,0.2,0.3,0.3,0.5,0.3c0.7-0.1,1.4-0.1,2.1,0c0.2,0,0.4-0.1,0.5-0.3l0.4-0.9
				c0-0.1,0.1-0.1,0.2-0.1c0,0,0,0,0.1,0l0.9,0.4c0.1,0,0.1,0.1,0.1,0.2L73.5,68c-0.1,0.2,0,0.4,0.2,0.5c0.6,0.4,1.1,0.9,1.5,1.5
				c0.1,0.2,0.3,0.2,0.5,0.2l0.9-0.4c0,0,0,0,0.1,0c0,0,0.1,0,0.2,0.1l0.4,0.9c0,0.1,0,0.2-0.1,0.2l-0.9,0.4
				c-0.2,0.1-0.3,0.3-0.3,0.5c0.1,0.7,0.1,1.4,0,2.1c0,0.2,0.1,0.4,0.3,0.5l0.9,0.4c0.1,0,0.1,0.1,0.1,0.2L76.7,76
				c0,0.1-0.1,0.1-0.2,0.1c0,0,0,0-0.1,0l-0.9-0.4c-0.2-0.1-0.4,0-0.5,0.2c-0.4,0.6-0.9,1.1-1.5,1.5c-0.2,0.1-0.2,0.3-0.2,0.5
				l0.4,0.9c0,0.1,0,0.2-0.1,0.2l-0.9,0.4c0,0,0,0-0.1,0c0,0-0.1,0-0.2-0.1l-0.4-0.9c-0.1-0.2-0.2-0.3-0.4-0.3c0,0-0.1,0-0.1,0
				c-0.7,0.1-1.4,0.1-2.1,0c-0.2,0-0.4,0.1-0.5,0.3l-0.4,0.9c0,0.1-0.1,0.1-0.2,0.1c0,0,0,0-0.1,0l-0.9-0.4c-0.1,0-0.1-0.1-0.1-0.1
				c0,0,0-0.1,0-0.1l0.4-0.9c0.1-0.2,0-0.4-0.2-0.5c-0.6-0.4-1.1-0.9-1.5-1.5c-0.1-0.2-0.3-0.2-0.5-0.2l-0.9,0.4c0,0,0,0-0.1,0
				c0,0-0.1,0-0.2-0.1L64.3,75C64.2,75,64.2,74.9,64.3,74.9L64.3,74.9z M64.3,74.9"/>
			<path id="XMLID_825_" class="st2" d="M70.7,76.1c0.4,0,0.8-0.1,1.2-0.2c0.8-0.3,1.4-0.9,1.7-1.7c0.3-0.8,0.3-1.6,0-2.4
				c-0.5-1.2-1.6-2-2.9-2c-0.4,0-0.8,0.1-1.2,0.2c-0.8,0.3-1.4,0.9-1.7,1.7c-0.3,0.8-0.3,1.6,0,2.4C68.2,75.3,69.4,76.1,70.7,76.1
				L70.7,76.1z M68.6,72c0.2-0.6,0.7-1,1.2-1.2c0.3-0.1,0.6-0.2,0.9-0.2c0.9,0,1.8,0.6,2.1,1.4c0.2,0.6,0.2,1.2,0,1.7
				c-0.2,0.6-0.7,1-1.2,1.2c-0.3,0.1-0.6,0.2-0.9,0.2c-0.9,0-1.8-0.6-2.1-1.4C68.3,73.2,68.3,72.6,68.6,72L68.6,72z M68.6,72"/>
		</g>
		<path id="XMLID_821_" class="st1" d="M70.8,85.2c-6.8,0-12.2-5.5-12.2-12.2S64,60.7,70.8,60.7S83,66.2,83,73S77.5,85.2,70.8,85.2z
			 M70.8,61.9c-6.1,0-11.1,5-11.1,11.1s5,11.1,11.1,11.1s11.1-5,11.1-11.1S76.9,61.9,70.8,61.9z"/>
	</g>
</g>
</svg>
