<?xml version="1.0" encoding="utf-8"?>
<!-- Generator: Adobe Illustrator 19.0.0, SVG Export Plug-In . SVG Version: 6.00 Build 0)  -->
<svg version="1.1" id="Layer_1" xmlns="http://www.w3.org/2000/svg" xmlns:xlink="http://www.w3.org/1999/xlink" x="0px" y="0px"
	 viewBox="0 0 105 105" style="enable-background:new 0 0 105 105;" xml:space="preserve">
<style type="text/css">
	.st0{fill:none;stroke:#A7A9AC;stroke-width:2;stroke-miterlimit:10;stroke-dasharray:6.3;}
	.st1{fill:#A7A9AC;}
</style>
<circle id="XMLID_726_" class="st0" cx="51.9" cy="52.4" r="50.2"/>
<g id="XMLID_617_">
	<path id="XMLID_618_" class="st1" d="M61.6,28.8c-0.3,0.5-0.2,1.1,0.2,1.5l12.5,9.1c0.2,0.1,0.4,0.2,0.6,0.2c0.3,0,0.6-0.1,0.8-0.4
		c0.3-0.5,0.2-1.1-0.2-1.5l-12.5-9.1C62.6,28.3,62,28.4,61.6,28.8z"/>
	<path id="XMLID_619_" class="st1" d="M44.7,32.7c-0.1-0.6-0.6-1-1.2-0.9l-15.3,2.4c-0.6,0.1-1,0.6-0.9,1.2c0.1,0.5,0.5,0.9,1,0.9
		c0.1,0,0.1,0,0.2,0l15.3-2.4C44.4,33.8,44.8,33.3,44.7,32.7z"/>
	<path id="XMLID_620_" class="st1" d="M86.2,34.5L62.9,17.5c-0.2-0.2-0.5-0.2-0.8-0.2c-0.3,0-0.5,0.2-0.7,0.4l-10.2,14l-1.4-8.8
		c0-0.3-0.2-0.5-0.4-0.7c-0.2-0.2-0.5-0.2-0.8-0.2l-28.4,4.5c-0.6,0.1-1,0.6-0.9,1.2l5.6,35c0,0.3,0.2,0.5,0.4,0.7
		c0.2,0.1,0.4,0.2,0.6,0.2c0.1,0,0.1,0,0.2,0l6.5-1v11.1c0,0.6,0.5,1,1,1h28.8c0.6,0,1-0.5,1-1v-2.9c0.7-0.4,1.4-0.9,2-1.4l2.6,2.6
		l-0.8,0.8c-0.4,0.4-0.4,1.1,0,1.5l9.4,9.4c0.2,0.2,0.5,0.3,0.7,0.3c0.3,0,0.5-0.1,0.7-0.3l3.1-3.1c0.2-0.2,0.3-0.5,0.3-0.7
		c0-0.3-0.1-0.5-0.3-0.7l-9.4-9.4c-0.2-0.2-0.5-0.3-0.7-0.3c-0.3,0-0.5,0.1-0.7,0.3l-0.8,0.8L67,67.9c2-2.4,3.2-5.4,3.2-8.6
		c0-0.3,0-0.7,0-1l16.3-22.4C86.8,35.4,86.7,34.8,86.2,34.5z M71.2,71.9l7.9,7.9l-1.7,1.7l-7.9-7.9L71.2,71.9z M21.6,28.5L48,24.3
		l1.6,9.8l-2.3,3.1H33.7c-0.6,0-1,0.5-1,1v4.3l-3.1,0.5c-0.6,0.1-1,0.6-0.9,1.2c0.1,0.5,0.5,0.9,1,0.9c0.1,0,0.1,0,0.2,0l2.7-0.4
		v6.9L31,51.8c-0.6,0.1-1,0.6-0.9,1.2c0.1,0.5,0.5,0.9,1,0.9c0.1,0,0.1,0,0.2,0l1.4-0.2v6.9l-5.8,0.9L21.6,28.5z M34.8,72.7V61.4v-9
		v-9v-4.1h13.1l0,0l0,0h3.5h8.3l0,0l0,0h1.9v1.1v6.5c-1.4-0.5-2.9-0.8-4.5-0.8c-0.3,0-0.6,0-0.9,0c-0.1,0-0.2,0-0.2,0H40.4
		c-0.6,0-1,0.5-1,1s0.5,1,1,1h9.5c-1.1,0.7-2.1,1.6-3,2.7c-1,1.2-1.8,2.6-2.3,4.1h-4.1c-0.6,0-1,0.5-1,1c0,0.6,0.5,1,1,1H44
		c-0.1,0.8-0.2,1.5-0.2,2.3c0,1.6,0.3,3.1,0.8,4.5h-4.2c-0.6,0-1,0.5-1,1c0,0.6,0.5,1,1,1h5.1c2.4,4.1,6.7,6.6,11.5,6.6
		c1.6,0,3.1-0.3,4.5-0.8v0.9H34.8z M64.9,67.2L64.9,67.2c-0.8,0.8-1.8,1.5-2.8,2c-1.6,0.8-3.3,1.2-5.1,1.2c-4.2,0-8-2.3-9.9-6.1l0,0
		c-0.8-1.6-1.2-3.3-1.2-5.1c0-1,0.1-2.1,0.4-3c0.4-1.5,1.2-2.9,2.2-4.1c2.1-2.5,5.2-4,8.5-4c1.8,0,3.5,0.4,5.1,1.2
		c3.4,1.7,5.6,5,6,8.7c0,0,0,0,0,0c0,0.4,0.1,0.8,0.1,1.2C68.1,62.3,67,65.1,64.9,67.2z M69.6,55.5c-1-3.2-3.1-5.9-6.1-7.6v-5.4
		l5.6,4.1c0.2,0.1,0.4,0.2,0.6,0.2c0.3,0,0.6-0.1,0.8-0.4c0.3-0.5,0.2-1.1-0.2-1.5l-6.9-5v-1.6c0-0.6-0.5-1-1-1h-2.6l-2.1-1.5
		c-0.5-0.3-1.1-0.2-1.5,0.2c-0.3,0.4-0.3,0.9,0,1.3h-5.2h-1.4l1.6-2.3l0,0l11-15.2l21.6,15.7L69.6,55.5z"/>
	<path id="XMLID_635_" class="st1" d="M57,50.6c-4.8,0-8.8,3.9-8.8,8.8s3.9,8.8,8.8,8.8s8.8-3.9,8.8-8.8S61.8,50.6,57,50.6z
		 M57,66.1c-3.7,0-6.7-3-6.7-6.7s3-6.7,6.7-6.7c3.7,0,6.7,3,6.7,6.7S60.7,66.1,57,66.1z"/>
	<path id="XMLID_649_" class="st1" d="M58.5,59.2l-2.8,2.8c-0.4,0.4-0.4,1.1,0,1.5c0.2,0.2,0.5,0.3,0.7,0.3c0.3,0,0.5-0.1,0.7-0.3
		l2.8-2.8c0.4-0.4,0.4-1.1,0-1.5C59.5,58.8,58.9,58.8,58.5,59.2z"/>
	<path id="XMLID_657_" class="st1" d="M58.8,56.2c0.4-0.4,0.4-1.1,0-1.5c-0.4-0.4-1.1-0.4-1.5,0l-3,3c-0.4,0.4-0.4,1.1,0,1.5
		c0.2,0.2,0.5,0.3,0.7,0.3s0.5-0.1,0.7-0.3L58.8,56.2z"/>
</g>
</svg>
