<?xml version="1.0" encoding="utf-8"?>
<!-- Generator: Adobe Illustrator 19.0.0, SVG Export Plug-In . SVG Version: 6.00 Build 0)  -->
<svg version="1.1" baseProfile="basic" id="Layer_1"
	 xmlns="http://www.w3.org/2000/svg" xmlns:xlink="http://www.w3.org/1999/xlink" x="0px" y="0px" viewBox="0 0 79.3 81.1"
	 xml:space="preserve">
<style type="text/css">
	.st0{fill:none;stroke:#A7A9AC;stroke-width:2;stroke-miterlimit:10;stroke-dasharray:6.3;}
	.st1{fill:#A7A9AC;}
	.st2{fill:#2EA1DA;}
</style>
<circle id="XMLID_6799_" class="st0" cx="1501.6" cy="353.6" r="35.2"/>
<path id="XMLID_6057_" class="st1" d="M1500.3,369c-7.8,0-14.2-6.4-14.2-14.2s6.4-14.2,14.2-14.2c1.8,0,3.6,0.3,5.2,1
	c0.2,0.1,0.3,0.2,0.3,0.3s0.1,0.3,0,0.5c-0.1,0.2-0.3,0.4-0.6,0.4l0,0c-0.1,0-0.2,0-0.2,0c-1.5-0.6-3.1-0.9-4.8-0.9
	c-7.1,0-12.9,5.8-12.9,12.9s5.8,12.9,12.9,12.9c7.1,0,12.9-5.8,12.9-12.9c0-1.6-0.3-3.2-0.9-4.7c-0.1-0.2-0.1-0.3,0-0.5
	c0.1-0.2,0.2-0.3,0.3-0.3c0.1,0,0.2,0,0.2,0c0.3,0,0.5,0.2,0.6,0.4c0.7,1.7,1,3.4,1,5.2C1514.4,362.7,1508.1,369,1500.3,369z"/>
<path id="XMLID_5694_" class="st1" d="M1500.3,375.8c-11.5,0-20.9-9.4-20.9-20.9s9.4-20.9,20.9-20.9c2,0,3.9,0.3,5.8,0.8
	c0.3,0.1,0.5,0.4,0.4,0.8c-0.1,0.3-0.3,0.5-0.6,0.5c-0.1,0-0.1,0-0.2,0c-1.8-0.5-3.6-0.8-5.4-0.8c-10.9,0-19.7,8.8-19.7,19.7
	s8.8,19.7,19.7,19.7s19.7-8.8,19.7-19.7c0-1.8-0.3-3.7-0.8-5.4c0-0.2,0-0.3,0.1-0.5c0.1-0.1,0.2-0.3,0.4-0.3c0.1,0,0.1,0,0.2,0
	c0.3,0,0.5,0.2,0.6,0.5c0.5,1.9,0.8,3.8,0.8,5.8C1521.2,366.4,1511.8,375.8,1500.3,375.8z"/>
<path id="XMLID_5693_" class="st1" d="M1500.3,362.2c-4.1,0-7.4-3.3-7.4-7.4c0-4.1,3.3-7.4,7.4-7.4c0.2,0,0.5,0,0.7,0
	c0.2,0,0.3,0.1,0.4,0.2c0.1,0.1,0.2,0.3,0.1,0.5c0,0.3-0.3,0.6-0.6,0.6c-0.2,0-0.4,0-0.6,0c-3.4,0-6.1,2.8-6.1,6.1
	c0,3.4,2.8,6.1,6.1,6.1s6.1-2.8,6.1-6.1c0-0.2,0-0.4,0-0.5c0-0.3,0.2-0.7,0.6-0.7c0,0,0,0,0,0c0.4,0,0.6,0.2,0.7,0.6
	c0,0.2,0,0.4,0,0.6C1507.7,358.9,1504.3,362.2,1500.3,362.2z"/>
<path id="XMLID_6062_" class="st1" d="M1500.7,355c-0.2,0-0.3-0.1-0.4-0.2c-0.2-0.2-0.2-0.6,0-0.9l9.3-9.3V338c0-0.8,0.3-1.5,0.8-2
	l6.6-6.6c0.3-0.3,0.8-0.5,1.2-0.5c0.2,0,0.5,0,0.7,0.1c0.7,0.3,1.1,0.9,1.1,1.6v4.4h4.4c0.7,0,1.4,0.4,1.6,1.1s0.1,1.4-0.4,1.9
	l-6.6,6.6c-0.5,0.5-1.3,0.8-2,0.8h-6.6l-9.3,9.3C1501,355,1500.9,355,1500.7,355z M1511.7,344.3h5.3c0.4,0,0.8-0.2,1.2-0.5l7.4-7.4
	h-6L1511.7,344.3z M1511.3,336.9c-0.3,0.3-0.5,0.7-0.5,1.2v5.3l7.9-7.9v-6L1511.3,336.9z"/>
<path id="XMLID_2209_" class="st2" d="M39.4,4.5C18.7,4.5,1.9,21.3,1.9,42s16.8,37.5,37.5,37.5S76.9,62.7,76.9,42S60.2,4.5,39.4,4.5
	z M39.4,75.4C21,75.4,6.1,60.4,6.1,42S21,8.6,39.4,8.6S72.8,23.6,72.8,42S57.9,75.4,39.4,75.4z"/>
</svg>
