<?xml version="1.0" encoding="utf-8"?>
<!-- Generator: Adobe Illustrator 19.0.0, SVG Export Plug-In . SVG Version: 6.00 Build 0)  -->
<svg version="1.1" id="Layer_1" xmlns="http://www.w3.org/2000/svg" xmlns:xlink="http://www.w3.org/1999/xlink" x="0px" y="0px"
	 viewBox="-399 101 100 100" style="enable-background:new -399 101 100 100;" xml:space="preserve">
<style type="text/css">
	.st0{fill:none;stroke:#A7A9AC;stroke-width:2;stroke-miterlimit:10;stroke-dasharray:6.3;}
	.st1{fill:#A7A9AC;}
	.st2{fill:#2EA1DA;}
</style>
<circle id="XMLID_6522_" class="st0" cx="-348.4" cy="152.7" r="35.2"/>
<path id="XMLID_7231_" class="st1" d="M-336.1,148.6c-1-0.1-2,0.2-2.8,0.9c-0.1,0.1-0.2,0.2-0.3,0.3c-0.6-1.1-1.6-1.8-2.8-1.9
	c-1-0.1-2,0.2-2.8,0.9c-0.1,0.1-0.2,0.2-0.3,0.3c-0.5-0.9-1.4-1.6-2.4-1.9c1.8-1.8,2.8-4.2,2.8-6.8c0-5.3-4.3-9.5-9.5-9.5
	s-9.5,4.3-9.5,9.5c0,3.9,2.4,7.4,5.9,8.8v4.1l-2.7,1.9c-1.6,1.1-2.2,3.1-1.6,5l2.6,7.9c1.1,3.3,4.2,5.5,7.7,5.5h10.9
	c4.5,0,8.1-3.6,8.1-8.1v-13.2C-332.8,150.4-334.3,148.7-336.1,148.6z M-356.6,137.7c-0.8,0.7-1.2,1.7-1.2,2.7v3.7
	c-1-1-1.6-2.3-1.6-3.7c0-2.9,2.3-5.2,5.2-5.2c2.9,0,5.2,2.3,5.2,5.2c0,1.4-0.6,2.8-1.6,3.7v-3.6c0-1.9-1.4-3.6-3.3-3.8
	C-354.9,136.7-355.9,137-356.6,137.7z M-362.4,140.4c0-4.5,3.7-8.2,8.2-8.2s8.2,3.7,8.2,8.2c0,3.1-1.8,5.9-4.5,7.3v-1.8
	c1.8-1.2,3-3.3,3-5.5c0-3.6-3-6.6-6.6-6.6s-6.6,3-6.6,6.6c0,2.2,1.1,4.3,3,5.5v1.8C-360.6,146.3-362.4,143.5-362.4,140.4z
	 M-334.2,165.5c0,3.7-3,6.7-6.7,6.7h-10.9c-2.9,0-5.4-1.8-6.3-4.6l-2.6-7.9c-0.4-1.3,0-2.6,1.1-3.4l1.9-1.3v6c0,0.4,0.3,0.7,0.7,0.7
	c0.4,0,0.7-0.3,0.7-0.7v-20.7c0-0.6,0.3-1.2,0.7-1.7c0.5-0.4,1.1-0.6,1.7-0.6c1.1,0.1,2,1.2,2,2.4v14.6c0,0.4,0.3,0.7,0.7,0.7
	s0.7-0.3,0.7-0.7v-4.4c0-0.6,0.3-1.2,0.7-1.7c0.5-0.4,1.1-0.6,1.7-0.6c1.1,0.1,2,1.2,2,2.4v0.6v4.4c0,0.4,0.3,0.7,0.7,0.7
	s0.7-0.3,0.7-0.7v-4.4c0-0.6,0.3-1.2,0.7-1.7c0.5-0.4,1.1-0.6,1.7-0.6c1.1,0.1,2,1.2,2,2.4v0.6v4.4c0,0.4,0.3,0.7,0.7,0.7
	c0.4,0,0.7-0.3,0.7-0.7v-4.4c0-0.6,0.3-1.2,0.7-1.7c0.5-0.4,1.1-0.6,1.7-0.6c1.1,0.1,2,1.2,2,2.4L-334.2,165.5L-334.2,165.5z"/>
<path id="XMLID_6365_" class="st2" d="M-348.5,114.5c-20.7,0-37.5,16.8-37.5,37.5s16.8,37.5,37.5,37.5S-311,172.7-311,152
	S-327.8,114.5-348.5,114.5z M-348.5,185.4c-18.4,0-33.4-14.9-33.4-33.4s14.9-33.4,33.4-33.4s33.4,14.9,33.4,33.4
	S-330.1,185.4-348.5,185.4z"/>
</svg>
