<?xml version="1.0" encoding="utf-8"?>
<!-- Generator: Adobe Illustrator 19.0.0, SVG Export Plug-In . SVG Version: 6.00 Build 0)  -->
<svg version="1.1" id="Layer_1" xmlns="http://www.w3.org/2000/svg" xmlns:xlink="http://www.w3.org/1999/xlink" x="0px" y="0px"
	 viewBox="-399 101 100 100" style="enable-background:new -399 101 100 100;" xml:space="preserve">
<style type="text/css">
	.st0{fill:#2EA1DA;}
	.st1{fill:none;stroke:#A7A9AC;stroke-width:2;stroke-miterlimit:10;stroke-dasharray:6.3;}
	.st2{fill:#FFFFFF;}
</style>
<circle id="XMLID_6524_" class="st0" cx="-348.6" cy="153.4" r="31.3"/>
<circle id="XMLID_6522_" class="st1" cx="-349.4" cy="153.3" r="35.2"/>
<path id="XMLID_7231_" class="st2" d="M-337.1,149.2c-1-0.1-2,0.2-2.8,0.9c-0.1,0.1-0.2,0.2-0.3,0.3c-0.6-1.1-1.6-1.8-2.8-1.9
	c-1-0.1-2,0.2-2.8,0.9c-0.1,0.1-0.2,0.2-0.3,0.3c-0.5-0.9-1.4-1.6-2.4-1.9c1.8-1.8,2.8-4.2,2.8-6.8c0-5.3-4.3-9.5-9.5-9.5
	s-9.5,4.3-9.5,9.5c0,3.9,2.4,7.4,5.9,8.8v4.1l-2.7,1.9c-1.6,1.1-2.2,3.1-1.6,5l2.6,7.9c1.1,3.3,4.2,5.5,7.7,5.5h10.9
	c4.5,0,8.1-3.6,8.1-8.1V153C-333.8,151-335.3,149.4-337.1,149.2z M-357.6,138.3c-0.8,0.7-1.2,1.7-1.2,2.7v3.7c-1-1-1.6-2.3-1.6-3.7
	c0-2.9,2.3-5.2,5.2-5.2c2.9,0,5.2,2.3,5.2,5.2c0,1.4-0.6,2.8-1.6,3.7v-3.6c0-1.9-1.4-3.6-3.3-3.8
	C-355.9,137.3-356.9,137.7-357.6,138.3z M-363.4,141c0-4.5,3.7-8.2,8.2-8.2s8.2,3.7,8.2,8.2c0,3.1-1.8,5.9-4.5,7.3v-1.8
	c1.8-1.2,3-3.3,3-5.5c0-3.6-3-6.6-6.6-6.6s-6.6,3-6.6,6.6c0,2.2,1.1,4.3,3,5.5v1.8C-361.6,147-363.4,144.1-363.4,141z M-335.2,166.1
	c0,3.7-3,6.7-6.7,6.7h-10.9c-2.9,0-5.4-1.8-6.3-4.6l-2.6-7.9c-0.4-1.3,0-2.6,1.1-3.4l1.9-1.3v6c0,0.4,0.3,0.7,0.7,0.7
	c0.4,0,0.7-0.3,0.7-0.7V141c0-0.6,0.3-1.2,0.7-1.7c0.5-0.4,1.1-0.6,1.7-0.6c1.1,0.1,2,1.2,2,2.4v14.6c0,0.4,0.3,0.7,0.7,0.7
	s0.7-0.3,0.7-0.7v-4.4c0-0.6,0.3-1.2,0.7-1.7c0.5-0.4,1.1-0.6,1.7-0.6c1.1,0.1,2,1.2,2,2.4v0.6v4.4c0,0.4,0.3,0.7,0.7,0.7
	s0.7-0.3,0.7-0.7v-4.4c0-0.6,0.3-1.2,0.7-1.7c0.5-0.4,1.1-0.6,1.7-0.6c1.1,0.1,2,1.2,2,2.4v0.6v4.4c0,0.4,0.3,0.7,0.7,0.7
	c0.4,0,0.7-0.3,0.7-0.7v-4.4c0-0.6,0.3-1.2,0.7-1.7c0.5-0.4,1.1-0.6,1.7-0.6c1.1,0.1,2,1.2,2,2.4L-335.2,166.1L-335.2,166.1z"/>
</svg>
