<?xml version="1.0" encoding="utf-8"?>
<!-- Generator: Adobe Illustrator 19.0.0, SVG Export Plug-In . SVG Version: 6.00 Build 0)  -->
<svg version="1.1" id="Layer_1" xmlns="http://www.w3.org/2000/svg" xmlns:xlink="http://www.w3.org/1999/xlink" x="0px" y="0px"
	 viewBox="-399 101 100 100" style="enable-background:new -399 101 100 100;" xml:space="preserve">
<style type="text/css">
	.st0{fill:none;stroke:#A8AAAD;stroke-width:2;stroke-miterlimit:10;stroke-dasharray:6.3;}
	.st1{fill:#A8AAAD;}
	.st2{fill:#2FA1DB;}
</style>
<circle id="XMLID_6806_" class="st0" cx="-349.4" cy="151.6" r="35.2"/>
<g id="XMLID_6801_">
	<path id="XMLID_6865_" class="st1" d="M-363.9,151.3l2.9,3c3.2,3.4,7.6,5.2,12.3,5.2c4.7,0,9-1.9,12.3-5.2l2.9-3l-2.9-3
		c-3.3-3.4-7.6-5.2-12.3-5.2c-4.7,0-9,1.9-12.3,5.2L-363.9,151.3z M-348.7,160.7c-5,0-9.6-2-13.1-5.6l-3.3-3.4
		c-0.2-0.2-0.2-0.6,0-0.8l3.3-3.4c3.5-3.6,8.1-5.6,13.1-5.6c5,0,9.6,2,13.1,5.6l3.3,3.4c0.2,0.2,0.2,0.6,0,0.8l-3.3,3.4
		C-339.1,158.7-343.7,160.7-348.7,160.7L-348.7,160.7z"/>
	<path id="XMLID_6862_" class="st1" d="M-363.9,151.3l1.5,1.5c2.8,2.9,9.8,4,13.8,4c4,0,10.9-1.1,13.8-4l1.5-1.5l-1.5-1.5
		c-2.8-2.9-9.8-4-13.8-4c-4,0-10.9,1.1-13.8,4L-363.9,151.3z M-348.7,157.9c-3.6,0-11.3-0.9-14.6-4.3l-1.8-1.9
		c-0.2-0.2-0.2-0.6,0-0.8l1.8-1.9c3.3-3.4,11-4.3,14.6-4.3c3.6,0,11.2,0.9,14.6,4.3l1.8,1.9c0.2,0.2,0.2,0.6,0,0.8l-1.8,1.9
		C-337.4,157-345.1,157.9-348.7,157.9L-348.7,157.9z"/>
	<path id="XMLID_6861_" class="st1" d="M-353.1,151.8c-0.3,0-0.6-0.2-0.6-0.6c0-2.7,2.2-5,5-5c0.3,0,0.6,0.2,0.6,0.6
		s-0.2,0.6-0.6,0.6c-2.1,0-3.9,1.7-3.9,3.9C-352.6,151.6-352.8,151.8-353.1,151.8"/>
	<path id="XMLID_6860_" class="st1" d="M-345.7,157.7c-0.2,0-0.4-0.1-0.5-0.3c-0.1-0.3,0-0.6,0.2-0.7c2.1-1,3.3-3.1,3.3-5.4
		c0-2.3-1.3-4.4-3.4-5.4c-0.3-0.1-0.4-0.5-0.2-0.7c0.1-0.3,0.5-0.4,0.7-0.2c2.4,1.2,4,3.7,4,6.4c0,2.7-1.5,5.2-3.9,6.4
		C-345.5,157.7-345.6,157.7-345.7,157.7"/>
	<path id="XMLID_6859_" class="st1" d="M-351.7,157.7c-0.1,0-0.2,0-0.2-0.1c-2.4-1.2-3.9-3.7-3.9-6.4c0-2.7,1.5-5.2,4-6.4
		c0.3-0.1,0.6,0,0.7,0.2c0.1,0.3,0,0.6-0.2,0.7c-2.1,1-3.4,3.1-3.4,5.4c0,2.3,1.3,4.4,3.3,5.4c0.3,0.1,0.4,0.5,0.2,0.7
		C-351.3,157.6-351.5,157.7-351.7,157.7"/>
	<path id="XMLID_6858_" class="st1" d="M-364.7,140.2c-0.3,0-0.6-0.2-0.6-0.6v-4.4c0-0.3,0.2-0.6,0.6-0.6h4.4c0.3,0,0.6,0.2,0.6,0.6
		s-0.2,0.6-0.6,0.6h-3.9v3.9C-364.1,140-364.4,140.2-364.7,140.2"/>
	<path id="XMLID_6857_" class="st1" d="M-332.7,140.2c-0.3,0-0.6-0.2-0.6-0.6v-3.9h-3.9c-0.3,0-0.6-0.2-0.6-0.6s0.2-0.6,0.6-0.6h4.4
		c0.3,0,0.6,0.2,0.6,0.6v4.4C-332.1,140-332.4,140.2-332.7,140.2"/>
	<path id="XMLID_6805_" class="st1" d="M-332.7,167.8h-4.4c-0.3,0-0.6-0.2-0.6-0.6c0-0.3,0.2-0.6,0.6-0.6h3.9v-3.9
		c0-0.3,0.2-0.6,0.6-0.6s0.6,0.2,0.6,0.6v4.4C-332.1,167.6-332.4,167.8-332.7,167.8"/>
	<path id="XMLID_6804_" class="st1" d="M-360.3,167.8h-4.4c-0.3,0-0.6-0.2-0.6-0.6v-4.4c0-0.3,0.2-0.6,0.6-0.6s0.6,0.2,0.6,0.6v3.9
		h3.9c0.3,0,0.6,0.2,0.6,0.6C-359.7,167.6-360,167.8-360.3,167.8"/>
	<path id="XMLID_6803_" class="st1" d="M-348.7,154c-0.3,0-0.6-0.2-0.6-0.6v-3.3c0-0.3,0.2-0.6,0.6-0.6s0.6,0.2,0.6,0.6v3.3
		C-348.1,153.8-348.4,154-348.7,154"/>
	<path id="XMLID_6802_" class="st1" d="M-347,152.4h-3.3c-0.3,0-0.6-0.2-0.6-0.6s0.2-0.6,0.6-0.6h3.3c0.3,0,0.6,0.2,0.6,0.6
		S-346.7,152.4-347,152.4"/>
</g>
<path id="XMLID_6190_" class="st2" d="M-349,113.5c-20.7,0-37.5,16.8-37.5,37.5s16.8,37.5,37.5,37.5s37.5-16.8,37.5-37.5
	S-328.3,113.5-349,113.5z M-349,184.4c-18.4,0-33.4-14.9-33.4-33.4s14.9-33.4,33.4-33.4s33.4,14.9,33.4,33.4S-330.6,184.4-349,184.4
	z"/>
</svg>
